G75*
G70*
%OFA0B0*%
%FSLAX24Y24*%
%IPPOS*%
%LPD*%
%AMOC8*
5,1,8,0,0,1.08239X$1,22.5*
%
%ADD10C,0.0000*%
%ADD11C,0.0030*%
%ADD12C,0.0040*%
%ADD13C,0.0050*%
D10*
X000148Y000683D02*
X000148Y020368D01*
X019833Y020368D01*
X019833Y000683D01*
X000148Y000683D01*
D11*
X001116Y005698D02*
X001054Y005760D01*
X001116Y005698D02*
X001240Y005698D01*
X001301Y005760D01*
X001301Y006007D01*
X001240Y006069D01*
X001116Y006069D01*
X001054Y006007D01*
X001423Y006069D02*
X001546Y006069D01*
X001484Y006069D02*
X001484Y005760D01*
X001546Y005698D01*
X001608Y005698D01*
X001670Y005760D01*
X001791Y005760D02*
X001791Y005883D01*
X001915Y005883D01*
X002038Y005760D02*
X001976Y005698D01*
X001853Y005698D01*
X001791Y005760D01*
X001791Y006007D02*
X001853Y006069D01*
X001976Y006069D01*
X002038Y006007D01*
X002038Y005760D01*
X002528Y005760D02*
X002589Y005698D01*
X002713Y005698D01*
X002775Y005760D01*
X002528Y006007D01*
X002528Y005760D01*
X002775Y005760D02*
X002775Y006007D01*
X002713Y006069D01*
X002589Y006069D01*
X002528Y006007D01*
X002897Y005760D02*
X002897Y005698D01*
X002959Y005698D01*
X002959Y005760D01*
X002897Y005760D01*
X003080Y005698D02*
X003327Y005698D01*
X003204Y005698D02*
X003204Y006069D01*
X003327Y005945D01*
X003817Y005945D02*
X003940Y005698D01*
X004064Y005945D01*
X004185Y005883D02*
X004185Y005822D01*
X004432Y005822D01*
X004432Y005883D02*
X004370Y005945D01*
X004247Y005945D01*
X004185Y005883D01*
X004247Y005698D02*
X004370Y005698D01*
X004432Y005760D01*
X004432Y005883D01*
X004553Y005883D02*
X004615Y005822D01*
X004800Y005822D01*
X004677Y005822D02*
X004553Y005698D01*
X004553Y005883D02*
X004553Y006007D01*
X004615Y006069D01*
X004800Y006069D01*
X004800Y005698D01*
X011789Y003107D02*
X011789Y002860D01*
X011851Y002798D01*
X012036Y002798D01*
X012036Y003169D01*
X011851Y003169D01*
X011789Y003107D01*
X012157Y003107D02*
X012157Y003045D01*
X012219Y002983D01*
X012404Y002983D01*
X012404Y002798D02*
X012219Y002798D01*
X012157Y002860D01*
X012157Y002922D01*
X012219Y002983D01*
X012157Y003107D02*
X012219Y003169D01*
X012404Y003169D01*
X012404Y002798D01*
X012894Y002798D02*
X012894Y003169D01*
X012894Y002983D02*
X013141Y002983D01*
X013262Y002860D02*
X013324Y002798D01*
X013448Y002798D01*
X013509Y002860D01*
X013509Y003107D01*
X013448Y003169D01*
X013324Y003169D01*
X013262Y003107D01*
X013141Y003169D02*
X013141Y002798D01*
X013631Y003169D02*
X013878Y003169D01*
X014000Y003169D02*
X014123Y003169D01*
X014061Y003169D02*
X014061Y002798D01*
X014000Y002798D02*
X014123Y002798D01*
X014245Y002798D02*
X014245Y003169D01*
X014491Y003169D02*
X014491Y002798D01*
X014368Y002922D01*
X014245Y002798D01*
X014613Y002860D02*
X014675Y002798D01*
X014798Y002798D01*
X014860Y002860D01*
X014798Y002983D02*
X014675Y002983D01*
X014613Y002922D01*
X014613Y002860D01*
X014798Y002983D02*
X014860Y003045D01*
X014860Y003107D01*
X014798Y003169D01*
X014675Y003169D01*
X014613Y003107D01*
X014981Y003169D02*
X015228Y003169D01*
X015105Y003169D02*
X015105Y002798D01*
X015349Y002860D02*
X015349Y003107D01*
X015411Y003169D01*
X015535Y003169D01*
X015596Y003107D01*
X015596Y002860D01*
X015535Y002798D01*
X015411Y002798D01*
X015349Y002860D01*
X015718Y002860D02*
X015718Y003107D01*
X015780Y003169D01*
X015903Y003169D01*
X015965Y003107D01*
X015965Y002860D01*
X015903Y002798D01*
X015780Y002798D01*
X015718Y002860D01*
X016086Y003169D02*
X016333Y003169D01*
X016333Y002798D01*
X016333Y002983D02*
X016210Y002983D01*
X015800Y004998D02*
X015800Y005369D01*
X015615Y005369D01*
X015553Y005307D01*
X015553Y005183D01*
X015615Y005122D01*
X015800Y005122D01*
X015677Y005122D02*
X015553Y004998D01*
X015432Y005060D02*
X015432Y005183D01*
X015370Y005245D01*
X015247Y005245D01*
X015185Y005183D01*
X015185Y005122D01*
X015432Y005122D01*
X015432Y005060D02*
X015370Y004998D01*
X015247Y004998D01*
X015064Y005245D02*
X014940Y004998D01*
X014817Y005245D01*
X014327Y005245D02*
X014204Y005369D01*
X014204Y004998D01*
X014327Y004998D02*
X014080Y004998D01*
X013959Y004998D02*
X013897Y004998D01*
X013897Y005060D01*
X013959Y005060D01*
X013959Y004998D01*
X013775Y005060D02*
X013775Y005307D01*
X013713Y005369D01*
X013589Y005369D01*
X013528Y005307D01*
X013775Y005060D01*
X013713Y004998D01*
X013589Y004998D01*
X013528Y005060D01*
X013528Y005307D01*
X013038Y005307D02*
X013038Y005060D01*
X012976Y004998D01*
X012853Y004998D01*
X012791Y005060D01*
X012791Y005183D01*
X012915Y005183D01*
X013038Y005307D02*
X012976Y005369D01*
X012853Y005369D01*
X012791Y005307D01*
X012546Y005369D02*
X012423Y005369D01*
X012484Y005369D02*
X012484Y005060D01*
X012546Y004998D01*
X012608Y004998D01*
X012670Y005060D01*
X012301Y005060D02*
X012301Y005307D01*
X012240Y005369D01*
X012116Y005369D01*
X012054Y005307D01*
X012054Y005060D02*
X012116Y004998D01*
X012240Y004998D01*
X012301Y005060D01*
X013754Y003169D02*
X013754Y002798D01*
X012733Y019498D02*
X012733Y019869D01*
X012548Y019869D01*
X012486Y019807D01*
X012486Y019683D01*
X012548Y019622D01*
X012733Y019622D01*
X012610Y019622D02*
X012486Y019498D01*
X012365Y019560D02*
X012365Y019683D01*
X012303Y019745D01*
X012180Y019745D01*
X012118Y019683D01*
X012118Y019622D01*
X012365Y019622D01*
X012365Y019560D02*
X012303Y019498D01*
X012180Y019498D01*
X011873Y019498D02*
X011996Y019745D01*
X011749Y019745D02*
X011873Y019498D01*
X011260Y019498D02*
X011013Y019498D01*
X010891Y019498D02*
X010830Y019498D01*
X010830Y019560D01*
X010891Y019560D01*
X010891Y019498D01*
X010707Y019560D02*
X010707Y019807D01*
X010646Y019869D01*
X010522Y019869D01*
X010460Y019807D01*
X010707Y019560D01*
X010646Y019498D01*
X010522Y019498D01*
X010460Y019560D01*
X010460Y019807D01*
X009971Y019807D02*
X009971Y019560D01*
X009909Y019498D01*
X009785Y019498D01*
X009724Y019560D01*
X009724Y019683D01*
X009847Y019683D01*
X009724Y019807D02*
X009785Y019869D01*
X009909Y019869D01*
X009971Y019807D01*
X009602Y019560D02*
X009541Y019498D01*
X009479Y019498D01*
X009417Y019560D01*
X009417Y019869D01*
X009479Y019869D02*
X009355Y019869D01*
X009234Y019807D02*
X009234Y019560D01*
X009172Y019498D01*
X009049Y019498D01*
X008987Y019560D01*
X008987Y019807D02*
X009049Y019869D01*
X009172Y019869D01*
X009234Y019807D01*
X011136Y019869D02*
X011136Y019498D01*
X011260Y019745D02*
X011136Y019869D01*
D12*
X019441Y011941D02*
X019802Y011941D01*
X019441Y011701D01*
X019802Y011701D01*
X019802Y011576D02*
X019802Y011455D01*
X019802Y011516D02*
X019441Y011516D01*
X019441Y011576D02*
X019441Y011455D01*
X019441Y011327D02*
X019682Y011327D01*
X019802Y011207D01*
X019682Y011087D01*
X019441Y011087D01*
X019436Y010098D02*
X019676Y010098D01*
X019796Y009978D01*
X019676Y009857D01*
X019436Y009857D01*
X019496Y009729D02*
X019436Y009669D01*
X019436Y009489D01*
X019796Y009489D01*
X019796Y009669D01*
X019736Y009729D01*
X019496Y009729D01*
X019496Y009361D02*
X019556Y009361D01*
X019616Y009301D01*
X019616Y009121D01*
X019436Y009121D02*
X019436Y009301D01*
X019496Y009361D01*
X019616Y009301D02*
X019676Y009361D01*
X019736Y009361D01*
X019796Y009301D01*
X019796Y009121D01*
X019436Y009121D01*
X019431Y008029D02*
X019431Y007909D01*
X019431Y007969D02*
X019792Y007969D01*
X019792Y007909D02*
X019792Y008029D01*
X019732Y007781D02*
X019492Y007781D01*
X019431Y007721D01*
X019431Y007541D01*
X019792Y007541D01*
X019792Y007721D01*
X019732Y007781D01*
X019732Y007413D02*
X019672Y007413D01*
X019612Y007353D01*
X019612Y007173D01*
X019612Y007353D02*
X019552Y007413D01*
X019492Y007413D01*
X019431Y007353D01*
X019431Y007173D01*
X019792Y007173D01*
X019792Y007353D01*
X019732Y007413D01*
X019741Y006037D02*
X019500Y006037D01*
X019440Y005977D01*
X019440Y005857D01*
X019500Y005797D01*
X019741Y005797D01*
X019801Y005857D01*
X019801Y005977D01*
X019741Y006037D01*
X019741Y005669D02*
X019500Y005669D01*
X019440Y005609D01*
X019440Y005429D01*
X019801Y005429D01*
X019801Y005609D01*
X019741Y005669D01*
X019741Y005301D02*
X019681Y005301D01*
X019621Y005241D01*
X019621Y005061D01*
X019801Y005061D02*
X019801Y005241D01*
X019741Y005301D01*
X019621Y005241D02*
X019560Y005301D01*
X019500Y005301D01*
X019440Y005241D01*
X019440Y005061D01*
X019801Y005061D01*
X019809Y004170D02*
X019809Y004050D01*
X019809Y004110D02*
X019449Y004110D01*
X019449Y004050D02*
X019449Y004170D01*
X019449Y003922D02*
X019689Y003681D01*
X019629Y003741D02*
X019809Y003922D01*
X019809Y003681D02*
X019449Y003681D01*
X019449Y003553D02*
X019449Y003433D01*
X019449Y003493D02*
X019749Y003493D01*
X019809Y003433D01*
X019809Y003373D01*
X019749Y003313D01*
X019742Y002098D02*
X019502Y002098D01*
X019442Y002038D01*
X019442Y001918D01*
X019502Y001858D01*
X019742Y001858D01*
X019802Y001918D01*
X019802Y002038D01*
X019742Y002098D01*
X019802Y001730D02*
X019622Y001550D01*
X019682Y001490D02*
X019442Y001730D01*
X019442Y001490D02*
X019802Y001490D01*
X019742Y001302D02*
X019442Y001302D01*
X019442Y001242D02*
X019442Y001362D01*
X019742Y001302D02*
X019802Y001242D01*
X019802Y001182D01*
X019742Y001122D01*
X017261Y001678D02*
X017184Y001602D01*
X017031Y001602D01*
X016954Y001678D01*
X017261Y001678D02*
X017261Y001985D01*
X017184Y002062D01*
X017031Y002062D01*
X016954Y001985D01*
X017031Y003688D02*
X017261Y003688D01*
X017261Y004149D01*
X017031Y004149D01*
X016954Y004072D01*
X016954Y003995D01*
X017031Y003919D01*
X017261Y003919D01*
X017031Y003919D02*
X016954Y003842D01*
X016954Y003765D01*
X017031Y003688D01*
X016954Y005775D02*
X016954Y006082D01*
X017108Y006235D01*
X017261Y006082D01*
X017261Y005775D01*
X017261Y006005D02*
X016954Y006005D01*
X016043Y006917D02*
X016119Y006993D01*
X016043Y006917D02*
X015889Y006917D01*
X015812Y006993D01*
X015812Y007070D01*
X015889Y007147D01*
X015966Y007147D01*
X015889Y007147D02*
X015812Y007224D01*
X015812Y007300D01*
X015889Y007377D01*
X016043Y007377D01*
X016119Y007300D01*
X014230Y007300D02*
X014153Y007377D01*
X013999Y007377D01*
X013923Y007300D01*
X013923Y007224D01*
X014230Y006917D01*
X013923Y006917D01*
X012340Y006917D02*
X012033Y006917D01*
X012186Y006917D02*
X012186Y007377D01*
X012340Y007224D01*
X000828Y007154D02*
X000521Y007154D01*
X000368Y007307D01*
X000521Y007461D01*
X000828Y007461D01*
X000828Y007614D02*
X000368Y007614D01*
X000368Y007921D01*
X000368Y008075D02*
X000828Y008075D01*
X000828Y008305D01*
X000752Y008381D01*
X000598Y008381D01*
X000521Y008305D01*
X000521Y008075D01*
X000521Y008228D02*
X000368Y008381D01*
X000368Y008688D02*
X000828Y008688D01*
X000828Y008535D02*
X000828Y008842D01*
X000828Y008995D02*
X000368Y008995D01*
X000368Y009302D01*
X000368Y009456D02*
X000828Y009456D01*
X000828Y009686D01*
X000752Y009763D01*
X000598Y009763D01*
X000521Y009686D01*
X000521Y009456D01*
X000521Y009609D02*
X000368Y009763D01*
X000828Y009302D02*
X000828Y008995D01*
X000598Y008995D02*
X000598Y009149D01*
X000828Y007921D02*
X000828Y007614D01*
X000598Y007614D02*
X000598Y007768D01*
X000368Y007000D02*
X000828Y007000D01*
X000828Y006693D02*
X000368Y007000D01*
X000368Y006693D02*
X000828Y006693D01*
X000828Y006540D02*
X000828Y006386D01*
X000828Y006463D02*
X000368Y006463D01*
X000368Y006386D02*
X000368Y006540D01*
X000828Y006233D02*
X000368Y005926D01*
X000368Y005773D02*
X000521Y005619D01*
X000521Y005696D02*
X000521Y005466D01*
X000368Y005466D02*
X000828Y005466D01*
X000828Y005696D01*
X000752Y005773D01*
X000598Y005773D01*
X000521Y005696D01*
X000368Y005312D02*
X000368Y005005D01*
X000828Y005005D01*
X000828Y005312D01*
X000598Y005159D02*
X000598Y005005D01*
X000368Y004852D02*
X000368Y004545D01*
X000828Y004545D01*
X000752Y004391D02*
X000675Y004391D01*
X000598Y004315D01*
X000598Y004084D01*
X000445Y003931D02*
X000828Y003931D01*
X000828Y004084D02*
X000828Y004315D01*
X000752Y004391D01*
X000598Y004315D02*
X000521Y004391D01*
X000445Y004391D01*
X000368Y004315D01*
X000368Y004084D01*
X000828Y004084D01*
X000445Y003931D02*
X000368Y003854D01*
X000368Y003701D01*
X000445Y003624D01*
X000828Y003624D01*
X000752Y003471D02*
X000828Y003394D01*
X000828Y003240D01*
X000752Y003164D01*
X000445Y003164D01*
X000368Y003240D01*
X000368Y003394D01*
X000445Y003471D01*
X000752Y003471D01*
X000752Y003010D02*
X000445Y003010D01*
X000368Y002933D01*
X000368Y002703D01*
X000828Y002703D01*
X000828Y002933D01*
X000752Y003010D01*
D13*
X006366Y002435D02*
X006441Y002510D01*
X006592Y002510D01*
X006667Y002435D01*
X006827Y002510D02*
X007127Y002059D01*
X007287Y002210D02*
X007287Y002510D01*
X007587Y002510D02*
X007587Y002210D01*
X007437Y002059D01*
X007287Y002210D01*
X006667Y002059D02*
X006366Y002360D01*
X006366Y002435D01*
X006366Y002059D02*
X006667Y002059D01*
M02*
