G75*
G70*
%OFA0B0*%
%FSLAX24Y24*%
%IPPOS*%
%LPD*%
%AMOC8*
5,1,8,0,0,1.08239X$1,22.5*
%
%ADD10C,0.0000*%
%ADD11C,0.0650*%
%ADD12R,0.0650X0.0650*%
%ADD13OC8,0.0850*%
%ADD14C,0.0554*%
%ADD15R,0.0554X0.0554*%
%ADD16C,0.0476*%
%ADD17R,0.0476X0.0476*%
%ADD18OC8,0.0476*%
%ADD19C,0.0240*%
%ADD20C,0.0531*%
D10*
X000148Y000683D02*
X000148Y020368D01*
X019833Y020368D01*
X019833Y000683D01*
X000148Y000683D01*
D11*
X011838Y001897D02*
X012488Y001897D01*
X013728Y001897D02*
X014378Y001897D01*
X015618Y001897D02*
X016267Y001897D01*
X016267Y003983D02*
X015618Y003983D01*
X014378Y003983D02*
X013728Y003983D01*
X012488Y003983D02*
X011838Y003983D01*
X013728Y006070D02*
X014378Y006070D01*
X015618Y006070D02*
X016267Y006070D01*
D12*
X012163Y006070D03*
D13*
X007985Y001441D03*
X006790Y001441D03*
X002319Y012103D03*
X001321Y012097D03*
X001317Y013099D03*
X001319Y014101D03*
X002318Y014103D03*
X002321Y013101D03*
X018989Y012623D03*
X018989Y011621D03*
X018989Y010622D03*
X018991Y009623D03*
X018990Y008623D03*
X018991Y007623D03*
X018991Y006625D03*
X018989Y005622D03*
X018991Y004623D03*
X018989Y003621D03*
X018990Y002624D03*
X018990Y001624D03*
D14*
X010748Y011483D03*
X013466Y012804D03*
X004348Y010983D03*
X001347Y009782D03*
D15*
X001348Y010983D03*
X004347Y009782D03*
X010748Y008483D03*
X014466Y012804D03*
D16*
X013748Y011483D03*
X012748Y011483D03*
X011748Y011483D03*
X009748Y011483D03*
X007687Y008986D03*
X006687Y008986D03*
X004460Y008200D03*
X004448Y006583D03*
X003448Y006583D03*
X002448Y006583D03*
X001448Y006583D03*
X002464Y008210D03*
X006687Y005986D03*
X007687Y005986D03*
X009820Y004539D03*
X008109Y003812D03*
X009820Y001539D03*
X004447Y001927D03*
X004448Y003583D03*
X003448Y003583D03*
X002448Y003583D03*
X002452Y001930D03*
X009748Y008483D03*
X011748Y008483D03*
X012748Y008483D03*
X013748Y008483D03*
X014646Y008523D03*
X017363Y010631D03*
X017646Y008523D03*
X017948Y007583D03*
X017948Y005583D03*
X017948Y003983D03*
X017948Y001983D03*
X017868Y013031D03*
X015868Y013031D03*
X004410Y012727D03*
D17*
X004410Y014105D03*
X003460Y008200D03*
X001464Y008210D03*
X001448Y003583D03*
X001452Y001930D03*
X003447Y001927D03*
X006731Y003812D03*
X015985Y010631D03*
D18*
X012148Y012783D03*
X011148Y012783D03*
X010148Y012783D03*
X009748Y007583D03*
X009748Y006583D03*
X009748Y005583D03*
D19*
X010248Y005183D02*
X010248Y007280D01*
X010321Y007456D02*
X010748Y007883D01*
X014744Y007883D01*
X014921Y007956D02*
X015248Y008283D01*
X015248Y008680D01*
X015175Y008856D02*
X014948Y009083D01*
X014948Y012218D01*
X014875Y012395D02*
X014466Y012804D01*
X014875Y012395D02*
X014893Y012374D01*
X014910Y012351D01*
X014923Y012326D01*
X014934Y012301D01*
X014942Y012274D01*
X014946Y012246D01*
X014948Y012218D01*
X015428Y012131D02*
X017790Y012131D01*
X017768Y012079D02*
X017768Y011088D01*
X017779Y011060D01*
X017702Y011138D01*
X017482Y011229D01*
X017244Y011229D01*
X017024Y011138D01*
X016856Y010970D01*
X016765Y010750D01*
X016765Y010512D01*
X016856Y010293D01*
X017024Y010125D01*
X017244Y010034D01*
X017482Y010034D01*
X017702Y010125D01*
X017870Y010293D01*
X017961Y010512D01*
X017961Y010750D01*
X017931Y010821D01*
X018204Y010548D01*
X018204Y010297D01*
X018478Y010023D01*
X018346Y009890D01*
X018346Y009623D01*
X018991Y009623D01*
X018991Y009623D01*
X018346Y009623D01*
X018346Y009356D01*
X018479Y009222D01*
X018205Y008948D01*
X018205Y008297D01*
X018379Y008123D01*
X018320Y008063D01*
X018313Y008063D01*
X018287Y008090D01*
X018067Y008181D01*
X017952Y008181D01*
X017995Y008224D01*
X018037Y008283D01*
X018070Y008347D01*
X018092Y008415D01*
X018104Y008487D01*
X018104Y008523D01*
X018104Y008559D01*
X018092Y008630D01*
X018070Y008698D01*
X018037Y008763D01*
X017995Y008821D01*
X017944Y008872D01*
X017886Y008914D01*
X017822Y008947D01*
X017753Y008969D01*
X017682Y008980D01*
X017646Y008980D01*
X017646Y008523D01*
X017646Y008523D01*
X018104Y008523D01*
X017646Y008523D01*
X017646Y008523D01*
X017646Y008980D01*
X017610Y008980D01*
X017539Y008969D01*
X017470Y008947D01*
X017406Y008914D01*
X017348Y008872D01*
X017297Y008821D01*
X017254Y008763D01*
X017222Y008698D01*
X017199Y008630D01*
X017188Y008559D01*
X017188Y008523D01*
X017646Y008523D01*
X017646Y008523D01*
X017188Y008523D01*
X017188Y008487D01*
X017199Y008415D01*
X017222Y008347D01*
X017254Y008283D01*
X017297Y008224D01*
X017348Y008173D01*
X017406Y008131D01*
X017470Y008098D01*
X017539Y008076D01*
X017588Y008068D01*
X017441Y007922D01*
X017350Y007702D01*
X017350Y007464D01*
X017441Y007245D01*
X017468Y007218D01*
X017468Y006482D01*
X017041Y006055D01*
X016968Y005879D01*
X016968Y005282D01*
X016849Y005163D01*
X015253Y005163D01*
X015076Y005090D01*
X014941Y004955D01*
X014613Y004627D01*
X014514Y004668D01*
X013592Y004668D01*
X013340Y004564D01*
X013147Y004371D01*
X013108Y004276D01*
X013068Y004371D01*
X012876Y004564D01*
X012624Y004668D01*
X011702Y004668D01*
X011450Y004564D01*
X011258Y004371D01*
X011153Y004119D01*
X011153Y003847D01*
X011258Y003595D01*
X011450Y003403D01*
X011702Y003298D01*
X012624Y003298D01*
X012876Y003403D01*
X013068Y003595D01*
X013108Y003691D01*
X013147Y003595D01*
X013340Y003403D01*
X013592Y003298D01*
X014514Y003298D01*
X014765Y003403D01*
X014958Y003595D01*
X014972Y003628D01*
X015008Y003665D01*
X015037Y003595D01*
X015230Y003403D01*
X015481Y003298D01*
X016404Y003298D01*
X016655Y003403D01*
X016756Y003503D01*
X016849Y003503D01*
X017189Y003163D01*
X013453Y003163D01*
X013276Y003090D01*
X013141Y002955D01*
X012725Y002539D01*
X012624Y002581D01*
X011702Y002581D01*
X011450Y002477D01*
X011258Y002285D01*
X011153Y002033D01*
X011153Y001760D01*
X011258Y001509D01*
X011450Y001316D01*
X011702Y001212D01*
X012624Y001212D01*
X012876Y001316D01*
X013068Y001509D01*
X013080Y001536D01*
X013120Y001576D01*
X013147Y001509D01*
X013340Y001316D01*
X013592Y001212D01*
X014141Y001212D01*
X014309Y001043D01*
X010169Y001043D01*
X010326Y001201D01*
X010417Y001420D01*
X010417Y001658D01*
X010326Y001878D01*
X010158Y002046D01*
X009939Y002137D01*
X009701Y002137D01*
X009481Y002046D01*
X009348Y001913D01*
X009348Y004165D01*
X009481Y004032D01*
X009701Y003941D01*
X009939Y003941D01*
X010158Y004032D01*
X010326Y004201D01*
X010417Y004420D01*
X010417Y004658D01*
X010413Y004669D01*
X010520Y004776D01*
X010655Y004911D01*
X010728Y005088D01*
X010728Y007184D01*
X010728Y007185D01*
X010947Y007403D01*
X014890Y007403D01*
X015158Y007514D01*
X015261Y007617D01*
X015327Y007683D01*
X015520Y007876D01*
X015655Y008011D01*
X015728Y008188D01*
X015728Y008825D01*
X015617Y009093D01*
X015514Y009196D01*
X015448Y009262D01*
X015428Y009282D01*
X015428Y012364D01*
X015317Y012632D01*
X015214Y012734D01*
X015148Y012801D01*
X015103Y012845D01*
X015103Y013153D01*
X015048Y013285D01*
X014947Y013386D01*
X014815Y013441D01*
X014117Y013441D01*
X013985Y013386D01*
X013885Y013286D01*
X013827Y013344D01*
X013593Y013441D01*
X013339Y013441D01*
X013105Y013344D01*
X012926Y013165D01*
X012829Y012930D01*
X012829Y012881D01*
X012746Y012964D01*
X012746Y013031D01*
X012396Y013381D01*
X011900Y013381D01*
X011648Y013129D01*
X011396Y013381D01*
X010900Y013381D01*
X010648Y013129D01*
X010396Y013381D01*
X009900Y013381D01*
X009550Y013031D01*
X009550Y012536D01*
X009900Y012185D01*
X010396Y012185D01*
X010648Y012438D01*
X010900Y012185D01*
X011067Y012185D01*
X011268Y011984D01*
X011268Y011864D01*
X011109Y012023D01*
X010875Y012120D01*
X010621Y012120D01*
X010387Y012023D01*
X010220Y011857D01*
X010087Y011990D01*
X009867Y012081D01*
X009629Y012081D01*
X009409Y011990D01*
X009348Y011929D01*
X009348Y013683D01*
X019473Y013683D01*
X019473Y013249D01*
X019314Y013408D01*
X018664Y013408D01*
X018449Y013193D01*
X018375Y013370D01*
X018207Y013538D01*
X017987Y013629D01*
X017750Y013629D01*
X017530Y013538D01*
X017362Y013370D01*
X017271Y013150D01*
X017271Y012912D01*
X017362Y012693D01*
X017530Y012525D01*
X017750Y012434D01*
X017987Y012434D01*
X018042Y012456D01*
X017976Y012390D01*
X017841Y012255D01*
X017768Y012079D01*
X017768Y011893D02*
X015428Y011893D01*
X015428Y011654D02*
X017768Y011654D01*
X017768Y011416D02*
X015428Y011416D01*
X015428Y011177D02*
X017119Y011177D01*
X016843Y010939D02*
X016432Y010939D01*
X016428Y010954D02*
X016399Y011004D01*
X016358Y011045D01*
X016308Y011074D01*
X016252Y011089D01*
X015985Y011089D01*
X015718Y011089D01*
X015662Y011074D01*
X015612Y011045D01*
X015571Y011004D01*
X015542Y010954D01*
X015527Y010898D01*
X015527Y010631D01*
X015527Y010365D01*
X015542Y010309D01*
X015571Y010258D01*
X015612Y010217D01*
X015662Y010188D01*
X015718Y010174D01*
X015985Y010174D01*
X016252Y010174D01*
X016308Y010188D01*
X016358Y010217D01*
X016399Y010258D01*
X016428Y010309D01*
X016443Y010365D01*
X016443Y010631D01*
X015985Y010631D01*
X015985Y010174D01*
X015985Y010631D01*
X015985Y010631D01*
X015985Y010631D01*
X015527Y010631D01*
X015985Y010631D01*
X015985Y010631D01*
X016443Y010631D01*
X016443Y010898D01*
X016428Y010954D01*
X016443Y010700D02*
X016765Y010700D01*
X016786Y010462D02*
X016443Y010462D01*
X016364Y010223D02*
X016926Y010223D01*
X017800Y010223D02*
X018277Y010223D01*
X018440Y009985D02*
X015428Y009985D01*
X015428Y010223D02*
X015606Y010223D01*
X015527Y010462D02*
X015428Y010462D01*
X015428Y010700D02*
X015527Y010700D01*
X015538Y010939D02*
X015428Y010939D01*
X015985Y010939D02*
X015985Y010939D01*
X015985Y011089D02*
X015985Y010631D01*
X015985Y010631D01*
X015985Y011089D01*
X015985Y010700D02*
X015985Y010700D01*
X015985Y010462D02*
X015985Y010462D01*
X015985Y010223D02*
X015985Y010223D01*
X015428Y009746D02*
X018346Y009746D01*
X018346Y009508D02*
X015428Y009508D01*
X015441Y009269D02*
X018432Y009269D01*
X018287Y009031D02*
X015643Y009031D01*
X015617Y009093D02*
X015617Y009093D01*
X015728Y008792D02*
X017276Y008792D01*
X017188Y008554D02*
X015728Y008554D01*
X015728Y008315D02*
X017238Y008315D01*
X017537Y008077D02*
X015682Y008077D01*
X015482Y007838D02*
X017407Y007838D01*
X017350Y007600D02*
X015243Y007600D01*
X015158Y007514D02*
X015158Y007514D01*
X014921Y007956D02*
X014900Y007938D01*
X014877Y007921D01*
X014852Y007908D01*
X014827Y007897D01*
X014800Y007889D01*
X014772Y007885D01*
X014744Y007883D01*
X014646Y008523D02*
X014448Y009120D01*
X014448Y011883D01*
X014148Y012183D01*
X013948Y012183D01*
X013466Y012665D01*
X013466Y012804D01*
X012893Y013085D02*
X012691Y013085D01*
X012453Y013324D02*
X013085Y013324D01*
X013847Y013324D02*
X013923Y013324D01*
X015010Y013324D02*
X015515Y013324D01*
X015519Y013330D02*
X015477Y013271D01*
X015444Y013207D01*
X015422Y013138D01*
X015411Y013067D01*
X015411Y013031D01*
X015411Y012995D01*
X015422Y012924D01*
X015444Y012856D01*
X015477Y012791D01*
X015519Y012733D01*
X015570Y012682D01*
X015629Y012640D01*
X015693Y012607D01*
X015761Y012585D01*
X015832Y012574D01*
X015868Y012574D01*
X015868Y013031D01*
X015411Y013031D01*
X015868Y013031D01*
X015868Y013031D01*
X015868Y013031D01*
X015868Y012574D01*
X015905Y012574D01*
X015976Y012585D01*
X016044Y012607D01*
X016108Y012640D01*
X016167Y012682D01*
X016218Y012733D01*
X016260Y012791D01*
X016293Y012856D01*
X016315Y012924D01*
X016326Y012995D01*
X016326Y013031D01*
X015868Y013031D01*
X015868Y013489D01*
X015832Y013489D01*
X015761Y013478D01*
X015693Y013456D01*
X015629Y013423D01*
X015570Y013380D01*
X015519Y013330D01*
X015868Y013324D02*
X015868Y013324D01*
X015868Y013489D02*
X015905Y013489D01*
X015976Y013478D01*
X016044Y013456D01*
X016108Y013423D01*
X016167Y013380D01*
X016218Y013330D01*
X016260Y013271D01*
X016293Y013207D01*
X016315Y013138D01*
X016326Y013067D01*
X016326Y013031D01*
X015868Y013031D01*
X015868Y013031D01*
X015868Y013031D01*
X015868Y013489D01*
X016222Y013324D02*
X017343Y013324D01*
X017588Y013562D02*
X009348Y013562D01*
X009348Y013324D02*
X009843Y013324D01*
X009605Y013085D02*
X009348Y013085D01*
X009348Y012847D02*
X009550Y012847D01*
X009550Y012608D02*
X009348Y012608D01*
X009348Y012370D02*
X009716Y012370D01*
X009348Y012131D02*
X011121Y012131D01*
X011240Y011893D02*
X011268Y011893D01*
X010716Y012370D02*
X010580Y012370D01*
X010256Y011893D02*
X010184Y011893D01*
X011148Y012783D02*
X011748Y012183D01*
X011748Y011483D01*
X012448Y010783D01*
X013344Y010783D01*
X013521Y010710D02*
X013748Y010483D01*
X013748Y008483D01*
X015175Y008857D02*
X015193Y008836D01*
X015210Y008813D01*
X015223Y008788D01*
X015234Y008763D01*
X015242Y008736D01*
X015246Y008708D01*
X015248Y008680D01*
X015481Y006755D02*
X015230Y006650D01*
X015037Y006458D01*
X014998Y006362D01*
X014958Y006458D01*
X014765Y006650D01*
X014514Y006755D01*
X013592Y006755D01*
X013340Y006650D01*
X013147Y006458D01*
X013043Y006206D01*
X013043Y005934D01*
X013147Y005682D01*
X013340Y005489D01*
X013592Y005385D01*
X014514Y005385D01*
X014765Y005489D01*
X014958Y005682D01*
X014998Y005777D01*
X015037Y005682D01*
X015230Y005489D01*
X015481Y005385D01*
X016404Y005385D01*
X016655Y005489D01*
X016848Y005682D01*
X016952Y005934D01*
X016952Y006206D01*
X016848Y006458D01*
X016655Y006650D01*
X016404Y006755D01*
X015481Y006755D01*
X015225Y006646D02*
X014770Y006646D01*
X014979Y006407D02*
X015016Y006407D01*
X015033Y005692D02*
X014962Y005692D01*
X014678Y005453D02*
X015317Y005453D01*
X014962Y004976D02*
X010682Y004976D01*
X010728Y005215D02*
X016901Y005215D01*
X016968Y005453D02*
X016568Y005453D01*
X016852Y005692D02*
X016968Y005692D01*
X016951Y005930D02*
X016989Y005930D01*
X016952Y006169D02*
X017155Y006169D01*
X017393Y006407D02*
X016869Y006407D01*
X016660Y006646D02*
X017468Y006646D01*
X017468Y006884D02*
X010728Y006884D01*
X010728Y006646D02*
X011580Y006646D01*
X011533Y006599D02*
X011478Y006466D01*
X011478Y005673D01*
X011533Y005541D01*
X011634Y005440D01*
X011767Y005385D01*
X012559Y005385D01*
X012692Y005440D01*
X012793Y005541D01*
X012848Y005673D01*
X012848Y006466D01*
X012793Y006599D01*
X012692Y006700D01*
X012559Y006755D01*
X011767Y006755D01*
X011634Y006700D01*
X011533Y006599D01*
X011478Y006407D02*
X010728Y006407D01*
X010728Y006169D02*
X011478Y006169D01*
X011478Y005930D02*
X010728Y005930D01*
X010728Y005692D02*
X011478Y005692D01*
X011621Y005453D02*
X010728Y005453D01*
X010248Y005183D02*
X009893Y004828D01*
X009820Y004651D02*
X009820Y004539D01*
X009820Y004651D02*
X009822Y004679D01*
X009826Y004707D01*
X009834Y004734D01*
X009845Y004759D01*
X009858Y004784D01*
X009875Y004807D01*
X009893Y004828D01*
X010417Y004499D02*
X011386Y004499D01*
X011212Y004261D02*
X010351Y004261D01*
X010134Y004022D02*
X011153Y004022D01*
X011180Y003784D02*
X009348Y003784D01*
X009348Y004022D02*
X009505Y004022D01*
X009348Y003545D02*
X011308Y003545D01*
X011682Y003307D02*
X009348Y003307D01*
X009348Y003068D02*
X013254Y003068D01*
X013016Y002830D02*
X009348Y002830D01*
X009348Y002591D02*
X012777Y002591D01*
X012761Y001897D02*
X012163Y001897D01*
X012761Y001897D02*
X013548Y002683D01*
X018051Y002683D01*
X018200Y002832D01*
X017048Y003983D01*
X015942Y003983D01*
X015461Y003307D02*
X014534Y003307D01*
X014908Y003545D02*
X015087Y003545D01*
X014648Y003983D02*
X015348Y004683D01*
X017048Y004683D01*
X017448Y005083D01*
X017448Y005783D01*
X017948Y006283D01*
X017948Y007583D01*
X018893Y007583D01*
X018893Y007584D02*
X018914Y007586D01*
X018935Y007591D01*
X018955Y007599D01*
X018974Y007610D01*
X018990Y007624D01*
X018334Y008077D02*
X018300Y008077D01*
X018205Y008315D02*
X018054Y008315D01*
X018104Y008554D02*
X018205Y008554D01*
X018205Y008792D02*
X018016Y008792D01*
X017646Y008792D02*
X017646Y008792D01*
X017646Y008554D02*
X017646Y008554D01*
X017393Y007361D02*
X010905Y007361D01*
X010728Y007185D02*
X010728Y007185D01*
X010728Y007123D02*
X017468Y007123D01*
X018989Y005622D02*
X018021Y004654D01*
X017948Y004477D02*
X017948Y003983D01*
X017948Y004477D02*
X017950Y004505D01*
X017954Y004533D01*
X017962Y004560D01*
X017973Y004585D01*
X017986Y004610D01*
X018003Y004633D01*
X018021Y004654D01*
X018989Y003621D02*
X018200Y002832D01*
X017046Y003307D02*
X016424Y003307D01*
X014724Y004738D02*
X010481Y004738D01*
X008548Y004738D02*
X007211Y004738D01*
X007211Y004976D02*
X008548Y004976D01*
X008548Y005215D02*
X007211Y005215D01*
X007211Y005453D02*
X007410Y005453D01*
X007390Y005462D02*
X007568Y005388D01*
X007806Y005388D01*
X008026Y005479D01*
X008194Y005647D01*
X008285Y005867D01*
X008285Y006105D01*
X008194Y006324D01*
X008026Y006492D01*
X007806Y006583D01*
X007568Y006583D01*
X007349Y006492D01*
X007278Y006422D01*
X007097Y006422D01*
X007026Y006493D01*
X006806Y006584D01*
X006568Y006584D01*
X006349Y006493D01*
X006181Y006325D01*
X006148Y006246D01*
X006148Y008726D01*
X006181Y008647D01*
X006349Y008479D01*
X006568Y008388D01*
X006806Y008388D01*
X007026Y008479D01*
X007194Y008647D01*
X007262Y008812D01*
X007263Y008810D01*
X007296Y008746D01*
X007338Y008687D01*
X007389Y008636D01*
X007447Y008594D01*
X007512Y008561D01*
X007580Y008539D01*
X007651Y008528D01*
X007687Y008528D01*
X007687Y008986D01*
X007687Y009443D01*
X007651Y009443D01*
X007580Y009432D01*
X007512Y009410D01*
X007447Y009377D01*
X007389Y009335D01*
X007338Y009284D01*
X007296Y009226D01*
X007263Y009161D01*
X007263Y009160D01*
X007194Y009325D01*
X007026Y009493D01*
X006806Y009584D01*
X006568Y009584D01*
X006349Y009493D01*
X006181Y009325D01*
X006148Y009246D01*
X006148Y009783D01*
X008548Y009783D01*
X008548Y004218D01*
X008448Y004318D01*
X008228Y004409D01*
X007991Y004409D01*
X007771Y004318D01*
X007603Y004150D01*
X007512Y003931D01*
X007512Y003693D01*
X007603Y003473D01*
X007771Y003305D01*
X007991Y003214D01*
X008228Y003214D01*
X008448Y003305D01*
X008548Y003405D01*
X008548Y001988D01*
X008310Y002226D01*
X007660Y002226D01*
X007387Y001954D01*
X007211Y002130D01*
X007211Y003307D01*
X007274Y003370D01*
X007329Y003502D01*
X007329Y004121D01*
X007274Y004253D01*
X007211Y004316D01*
X007211Y005462D01*
X007390Y005462D01*
X007644Y005942D02*
X006731Y005942D01*
X006687Y005986D01*
X006731Y005942D02*
X006731Y003812D01*
X006731Y001499D01*
X006790Y001441D01*
X007227Y002114D02*
X007547Y002114D01*
X007211Y002353D02*
X008548Y002353D01*
X008548Y002591D02*
X007211Y002591D01*
X007211Y002830D02*
X008548Y002830D01*
X008548Y003068D02*
X007211Y003068D01*
X007211Y003307D02*
X007769Y003307D01*
X007573Y003545D02*
X007329Y003545D01*
X007329Y003784D02*
X007512Y003784D01*
X007550Y004022D02*
X007329Y004022D01*
X007267Y004261D02*
X007713Y004261D01*
X007211Y004499D02*
X008548Y004499D01*
X008548Y004261D02*
X008506Y004261D01*
X008548Y003307D02*
X008450Y003307D01*
X009348Y002353D02*
X011326Y002353D01*
X011187Y002114D02*
X009993Y002114D01*
X009646Y002114D02*
X009348Y002114D01*
X008548Y002114D02*
X008422Y002114D01*
X010327Y001876D02*
X011153Y001876D01*
X011204Y001637D02*
X010417Y001637D01*
X010409Y001399D02*
X011368Y001399D01*
X010286Y001160D02*
X014192Y001160D01*
X014748Y001283D02*
X018650Y001283D01*
X018990Y001624D01*
X014748Y001283D02*
X014135Y001897D01*
X014053Y001897D01*
X013257Y001399D02*
X012958Y001399D01*
X012644Y003307D02*
X013572Y003307D01*
X013197Y003545D02*
X013018Y003545D01*
X012940Y004499D02*
X013275Y004499D01*
X014053Y003983D02*
X014648Y003983D01*
X013427Y005453D02*
X012705Y005453D01*
X012848Y005692D02*
X013143Y005692D01*
X013045Y005930D02*
X012848Y005930D01*
X012848Y006169D02*
X013043Y006169D01*
X013126Y006407D02*
X012848Y006407D01*
X012746Y006646D02*
X013335Y006646D01*
X010321Y007457D02*
X010303Y007436D01*
X010286Y007413D01*
X010273Y007388D01*
X010262Y007363D01*
X010254Y007336D01*
X010250Y007308D01*
X010248Y007280D01*
X008548Y007361D02*
X006148Y007361D01*
X006148Y007123D02*
X008548Y007123D01*
X008548Y006884D02*
X006148Y006884D01*
X006148Y006646D02*
X008548Y006646D01*
X008548Y006407D02*
X008111Y006407D01*
X008259Y006169D02*
X008548Y006169D01*
X008548Y005930D02*
X008285Y005930D01*
X008213Y005692D02*
X008548Y005692D01*
X008548Y005453D02*
X007964Y005453D01*
X007644Y005942D02*
X007687Y005986D01*
X006263Y006407D02*
X006148Y006407D01*
X005248Y006407D02*
X005022Y006407D01*
X005046Y006464D02*
X004955Y006245D01*
X004787Y006076D01*
X004567Y005985D01*
X004329Y005985D01*
X004109Y006076D01*
X003948Y006238D01*
X003787Y006076D01*
X003567Y005985D01*
X003329Y005985D01*
X003109Y006076D01*
X002948Y006238D01*
X002787Y006076D01*
X002567Y005985D01*
X002428Y005985D01*
X002428Y004181D01*
X002567Y004181D01*
X002787Y004090D01*
X002948Y003929D01*
X003109Y004090D01*
X003329Y004181D01*
X003567Y004181D01*
X003787Y004090D01*
X003948Y003929D01*
X004109Y004090D01*
X004329Y004181D01*
X004567Y004181D01*
X004787Y004090D01*
X004955Y003922D01*
X005046Y003702D01*
X005046Y003464D01*
X004955Y003245D01*
X004787Y003076D01*
X004567Y002985D01*
X004329Y002985D01*
X004109Y003076D01*
X003948Y003238D01*
X003787Y003076D01*
X003567Y002985D01*
X003329Y002985D01*
X003109Y003076D01*
X002948Y003238D01*
X002787Y003076D01*
X002567Y002985D01*
X002428Y002985D01*
X002428Y002528D01*
X002571Y002528D01*
X002791Y002437D01*
X002891Y002337D01*
X002904Y002369D01*
X003005Y002470D01*
X003138Y002525D01*
X003756Y002525D01*
X003889Y002470D01*
X003990Y002369D01*
X004006Y002331D01*
X004108Y002434D01*
X004328Y002525D01*
X004566Y002525D01*
X004786Y002434D01*
X004954Y002266D01*
X005045Y002046D01*
X005045Y001808D01*
X004954Y001589D01*
X004786Y001420D01*
X004566Y001329D01*
X004328Y001329D01*
X004108Y001420D01*
X004006Y001523D01*
X003990Y001486D01*
X003889Y001384D01*
X003756Y001329D01*
X003138Y001329D01*
X003005Y001384D01*
X002904Y001486D01*
X002889Y001521D01*
X002791Y001423D01*
X002571Y001332D01*
X002334Y001332D01*
X002114Y001423D01*
X002011Y001526D01*
X001995Y001488D01*
X001894Y001387D01*
X001762Y001332D01*
X001143Y001332D01*
X001011Y001387D01*
X000909Y001488D01*
X000855Y001621D01*
X000855Y002239D01*
X000909Y002372D01*
X001011Y002473D01*
X001143Y002528D01*
X001371Y002528D01*
X001468Y002624D01*
X001468Y003125D01*
X001448Y003125D01*
X001448Y003583D01*
X001448Y003583D01*
X001448Y003125D01*
X001181Y003125D01*
X001125Y003140D01*
X001075Y003169D01*
X001034Y003210D01*
X001005Y003261D01*
X000990Y003317D01*
X000990Y003583D01*
X001448Y003583D01*
X001448Y003583D01*
X000990Y003583D01*
X000990Y003850D01*
X001005Y003906D01*
X001034Y003956D01*
X001075Y003997D01*
X001125Y004026D01*
X001181Y004041D01*
X001448Y004041D01*
X001448Y003583D01*
X001448Y004041D01*
X001468Y004041D01*
X001468Y006125D01*
X001448Y006125D01*
X001448Y006583D01*
X001448Y006583D01*
X001448Y006125D01*
X001412Y006125D01*
X001341Y006137D01*
X001272Y006159D01*
X001208Y006192D01*
X001150Y006234D01*
X001099Y006285D01*
X001056Y006343D01*
X001024Y006408D01*
X001001Y006476D01*
X000990Y006547D01*
X000990Y006583D01*
X001448Y006583D01*
X001448Y006583D01*
X000990Y006583D01*
X000990Y006619D01*
X001001Y006690D01*
X001024Y006759D01*
X001056Y006823D01*
X001099Y006882D01*
X001150Y006932D01*
X001208Y006975D01*
X001272Y007008D01*
X001341Y007030D01*
X001412Y007041D01*
X001448Y007041D01*
X001448Y006583D01*
X001448Y007041D01*
X001468Y007041D01*
X001468Y007612D01*
X001155Y007612D01*
X001022Y007667D01*
X000921Y007768D01*
X000866Y007900D01*
X000866Y008519D01*
X000921Y008651D01*
X001022Y008753D01*
X001155Y008807D01*
X001593Y008807D01*
X001676Y008890D01*
X002076Y009290D01*
X002253Y009363D01*
X003549Y009363D01*
X003710Y009524D01*
X003710Y010131D01*
X003764Y010263D01*
X003866Y010364D01*
X003867Y010365D01*
X003867Y010564D01*
X003808Y010622D01*
X003711Y010857D01*
X003711Y011110D01*
X003808Y011344D01*
X003987Y011523D01*
X004221Y011620D01*
X004475Y011620D01*
X004709Y011523D01*
X004888Y011344D01*
X004985Y011110D01*
X004985Y010857D01*
X004888Y010622D01*
X004827Y010561D01*
X004827Y010365D01*
X004828Y010364D01*
X004929Y010263D01*
X004984Y010131D01*
X004984Y009433D01*
X004929Y009301D01*
X004828Y009199D01*
X004695Y009145D01*
X004688Y009145D01*
X004341Y008797D01*
X004579Y008797D01*
X004798Y008706D01*
X004967Y008538D01*
X005058Y008319D01*
X005058Y008081D01*
X004967Y007861D01*
X004798Y007693D01*
X004579Y007602D01*
X004341Y007602D01*
X004121Y007693D01*
X004018Y007796D01*
X004003Y007758D01*
X003901Y007657D01*
X003769Y007602D01*
X003150Y007602D01*
X003018Y007657D01*
X002917Y007758D01*
X002899Y007800D01*
X002803Y007703D01*
X002583Y007612D01*
X002428Y007612D01*
X002428Y007181D01*
X002567Y007181D01*
X002787Y007090D01*
X002948Y006929D01*
X003109Y007090D01*
X003329Y007181D01*
X003567Y007181D01*
X003787Y007090D01*
X003948Y006929D01*
X004109Y007090D01*
X004329Y007181D01*
X004567Y007181D01*
X004787Y007090D01*
X004955Y006922D01*
X005046Y006702D01*
X005046Y006464D01*
X005046Y006646D02*
X005248Y006646D01*
X005248Y006884D02*
X004970Y006884D01*
X004708Y007123D02*
X005248Y007123D01*
X005248Y007361D02*
X002428Y007361D01*
X002708Y007123D02*
X003188Y007123D01*
X003708Y007123D02*
X004188Y007123D01*
X004017Y006169D02*
X003879Y006169D01*
X003017Y006169D02*
X002879Y006169D01*
X002428Y005930D02*
X005248Y005930D01*
X005248Y005692D02*
X002428Y005692D01*
X002428Y005453D02*
X005248Y005453D01*
X005248Y005215D02*
X002428Y005215D01*
X002428Y004976D02*
X005248Y004976D01*
X005248Y004738D02*
X002428Y004738D01*
X002428Y004499D02*
X005248Y004499D01*
X005248Y004261D02*
X002428Y004261D01*
X002854Y004022D02*
X003042Y004022D01*
X003854Y004022D02*
X004042Y004022D01*
X004854Y004022D02*
X005248Y004022D01*
X005248Y003784D02*
X005012Y003784D01*
X005046Y003545D02*
X005248Y003545D01*
X005248Y003307D02*
X004981Y003307D01*
X004767Y003068D02*
X005248Y003068D01*
X005248Y002830D02*
X002428Y002830D01*
X002428Y002591D02*
X005248Y002591D01*
X005248Y002353D02*
X004867Y002353D01*
X005017Y002114D02*
X005248Y002114D01*
X005248Y001876D02*
X005045Y001876D01*
X004974Y001637D02*
X005248Y001637D01*
X005248Y001399D02*
X004733Y001399D01*
X005248Y001160D02*
X000648Y001160D01*
X000648Y001083D02*
X000648Y011660D01*
X000805Y011503D01*
X000766Y011464D01*
X000711Y011332D01*
X000711Y010634D01*
X000766Y010502D01*
X000867Y010401D01*
X000999Y010346D01*
X001697Y010346D01*
X001829Y010401D01*
X001930Y010502D01*
X001985Y010634D01*
X001985Y011327D01*
X001994Y011318D01*
X002644Y011318D01*
X003104Y011777D01*
X003104Y012428D01*
X002931Y012601D01*
X003106Y012776D01*
X003106Y013426D01*
X002830Y013702D01*
X002963Y013835D01*
X002963Y014103D01*
X002963Y014370D01*
X002749Y014583D01*
X005248Y014583D01*
X005248Y001083D01*
X000648Y001083D01*
X000648Y001399D02*
X000999Y001399D01*
X000855Y001637D02*
X000648Y001637D01*
X000648Y001876D02*
X000855Y001876D01*
X000855Y002114D02*
X000648Y002114D01*
X000648Y002353D02*
X000902Y002353D01*
X000648Y002591D02*
X001435Y002591D01*
X001468Y002830D02*
X000648Y002830D01*
X000648Y003068D02*
X001468Y003068D01*
X001448Y003307D02*
X001448Y003307D01*
X001448Y003545D02*
X001448Y003545D01*
X001448Y003583D02*
X001448Y003583D01*
X001448Y003784D02*
X001448Y003784D01*
X001448Y004022D02*
X001448Y004022D01*
X001468Y004261D02*
X000648Y004261D01*
X000648Y004499D02*
X001468Y004499D01*
X001468Y004738D02*
X000648Y004738D01*
X000648Y004976D02*
X001468Y004976D01*
X001468Y005215D02*
X000648Y005215D01*
X000648Y005453D02*
X001468Y005453D01*
X001468Y005692D02*
X000648Y005692D01*
X000648Y005930D02*
X001468Y005930D01*
X001448Y006169D02*
X001448Y006169D01*
X001253Y006169D02*
X000648Y006169D01*
X000648Y006407D02*
X001024Y006407D01*
X000994Y006646D02*
X000648Y006646D01*
X000648Y006884D02*
X001102Y006884D01*
X001448Y006884D02*
X001448Y006884D01*
X001448Y006646D02*
X001448Y006646D01*
X001448Y006583D02*
X001448Y006583D01*
X001448Y006407D02*
X001448Y006407D01*
X001468Y007123D02*
X000648Y007123D01*
X000648Y007361D02*
X001468Y007361D01*
X001468Y007600D02*
X000648Y007600D01*
X000648Y007838D02*
X000892Y007838D01*
X000866Y008077D02*
X000648Y008077D01*
X000648Y008315D02*
X000866Y008315D01*
X000881Y008554D02*
X000648Y008554D01*
X000648Y008792D02*
X001118Y008792D01*
X000648Y009031D02*
X001817Y009031D01*
X002055Y009269D02*
X000648Y009269D01*
X000648Y009508D02*
X000931Y009508D01*
X000921Y009521D02*
X000967Y009458D01*
X001023Y009403D01*
X001086Y009357D01*
X001156Y009321D01*
X001230Y009297D01*
X001308Y009285D01*
X001347Y009285D01*
X001386Y009285D01*
X001463Y009297D01*
X001538Y009321D01*
X001607Y009357D01*
X001671Y009403D01*
X001726Y009458D01*
X001772Y009521D01*
X001807Y009591D01*
X001832Y009665D01*
X001844Y009743D01*
X001844Y009782D01*
X001844Y009821D01*
X001832Y009898D01*
X001807Y009973D01*
X001772Y010042D01*
X001726Y010106D01*
X001671Y010161D01*
X001607Y010207D01*
X001538Y010243D01*
X001463Y010267D01*
X001386Y010279D01*
X001347Y010279D01*
X001347Y009782D01*
X001844Y009782D01*
X001347Y009782D01*
X001347Y009782D01*
X001347Y009782D01*
X001347Y010279D01*
X001308Y010279D01*
X001230Y010267D01*
X001156Y010243D01*
X001086Y010207D01*
X001023Y010161D01*
X000967Y010106D01*
X000921Y010042D01*
X000886Y009973D01*
X000862Y009898D01*
X000850Y009821D01*
X000850Y009782D01*
X001347Y009782D01*
X001347Y009285D01*
X001347Y009782D01*
X001347Y009782D01*
X001347Y009782D01*
X000850Y009782D01*
X000850Y009743D01*
X000862Y009665D01*
X000886Y009591D01*
X000921Y009521D01*
X000850Y009746D02*
X000648Y009746D01*
X000648Y009985D02*
X000892Y009985D01*
X001118Y010223D02*
X000648Y010223D01*
X000648Y010462D02*
X000806Y010462D01*
X000711Y010700D02*
X000648Y010700D01*
X000648Y010939D02*
X000711Y010939D01*
X000711Y011177D02*
X000648Y011177D01*
X000648Y011416D02*
X000746Y011416D01*
X000654Y011654D02*
X000648Y011654D01*
X001985Y011177D02*
X003739Y011177D01*
X003711Y010939D02*
X001985Y010939D01*
X001985Y010700D02*
X003776Y010700D01*
X003867Y010462D02*
X001890Y010462D01*
X001575Y010223D02*
X003748Y010223D01*
X003710Y009985D02*
X001801Y009985D01*
X001844Y009746D02*
X003710Y009746D01*
X003694Y009508D02*
X001762Y009508D01*
X001347Y009508D02*
X001347Y009508D01*
X001347Y009746D02*
X001347Y009746D01*
X001347Y009985D02*
X001347Y009985D01*
X001347Y010223D02*
X001347Y010223D01*
X002348Y008883D02*
X001948Y008483D01*
X001948Y002426D01*
X001452Y001930D01*
X001906Y001399D02*
X002173Y001399D01*
X002732Y001399D02*
X002991Y001399D01*
X003903Y001399D02*
X004161Y001399D01*
X004027Y002353D02*
X003997Y002353D01*
X004129Y003068D02*
X003767Y003068D01*
X003129Y003068D02*
X002767Y003068D01*
X002875Y002353D02*
X002897Y002353D01*
X001119Y004022D02*
X000648Y004022D01*
X000648Y003784D02*
X000990Y003784D01*
X000990Y003545D02*
X000648Y003545D01*
X000648Y003307D02*
X000993Y003307D01*
X004879Y006169D02*
X005248Y006169D01*
X005248Y007600D02*
X002428Y007600D01*
X002348Y008883D02*
X003748Y008883D01*
X004347Y009482D01*
X004347Y009782D01*
X004347Y010982D01*
X004348Y010983D01*
X003879Y011416D02*
X002743Y011416D01*
X002981Y011654D02*
X005248Y011654D01*
X005248Y011416D02*
X004817Y011416D01*
X004957Y011177D02*
X005248Y011177D01*
X005248Y010939D02*
X004985Y010939D01*
X004920Y010700D02*
X005248Y010700D01*
X005248Y010462D02*
X004827Y010462D01*
X004945Y010223D02*
X005248Y010223D01*
X005248Y009985D02*
X004984Y009985D01*
X004984Y009746D02*
X005248Y009746D01*
X005248Y009508D02*
X004984Y009508D01*
X004898Y009269D02*
X005248Y009269D01*
X005248Y009031D02*
X004574Y009031D01*
X004591Y008792D02*
X005248Y008792D01*
X005248Y008554D02*
X004951Y008554D01*
X005058Y008315D02*
X005248Y008315D01*
X005248Y008077D02*
X005056Y008077D01*
X005148Y007883D02*
X006648Y007883D01*
X007687Y008923D01*
X007687Y008986D01*
X007687Y008986D01*
X007687Y009443D01*
X007723Y009443D01*
X007795Y009432D01*
X007863Y009410D01*
X007927Y009377D01*
X007986Y009335D01*
X008037Y009284D01*
X008079Y009226D01*
X008112Y009161D01*
X008134Y009093D01*
X008145Y009022D01*
X008145Y008986D01*
X007687Y008986D01*
X007687Y008986D01*
X007687Y008986D01*
X007687Y008528D01*
X007723Y008528D01*
X007795Y008539D01*
X007863Y008561D01*
X007927Y008594D01*
X007986Y008636D01*
X008037Y008687D01*
X008079Y008746D01*
X008112Y008810D01*
X008134Y008878D01*
X008145Y008950D01*
X008145Y008986D01*
X007687Y008986D01*
X007687Y009031D02*
X007687Y009031D01*
X007687Y009269D02*
X007687Y009269D01*
X008047Y009269D02*
X008548Y009269D01*
X008548Y009031D02*
X008144Y009031D01*
X008103Y008792D02*
X008548Y008792D01*
X008548Y008554D02*
X007840Y008554D01*
X007687Y008554D02*
X007687Y008554D01*
X007535Y008554D02*
X007101Y008554D01*
X007254Y008792D02*
X007272Y008792D01*
X007687Y008792D02*
X007687Y008792D01*
X007328Y009269D02*
X007217Y009269D01*
X006990Y009508D02*
X008548Y009508D01*
X008548Y009746D02*
X006148Y009746D01*
X006148Y009508D02*
X006385Y009508D01*
X006158Y009269D02*
X006148Y009269D01*
X006148Y008554D02*
X006274Y008554D01*
X006148Y008315D02*
X008548Y008315D01*
X008548Y008077D02*
X006148Y008077D01*
X006148Y007838D02*
X008548Y007838D01*
X008548Y007600D02*
X006148Y007600D01*
X005248Y007838D02*
X004944Y007838D01*
X005248Y011893D02*
X003104Y011893D01*
X003104Y012131D02*
X004287Y012131D01*
X004291Y012130D02*
X004529Y012130D01*
X004749Y012221D01*
X004917Y012389D01*
X005008Y012609D01*
X005008Y012846D01*
X004917Y013066D01*
X004749Y013234D01*
X004529Y013325D01*
X004291Y013325D01*
X004071Y013234D01*
X003903Y013066D01*
X003812Y012846D01*
X003812Y012609D01*
X003903Y012389D01*
X004071Y012221D01*
X004291Y012130D01*
X004533Y012131D02*
X005248Y012131D01*
X005248Y012370D02*
X004898Y012370D01*
X005008Y012608D02*
X005248Y012608D01*
X005248Y012847D02*
X005008Y012847D01*
X004898Y013085D02*
X005248Y013085D01*
X005248Y013324D02*
X004533Y013324D01*
X004287Y013324D02*
X003106Y013324D01*
X002970Y013562D02*
X005248Y013562D01*
X005248Y013801D02*
X004858Y013801D01*
X004853Y013783D02*
X004868Y013839D01*
X004868Y014105D01*
X004410Y014105D01*
X004410Y013648D01*
X004677Y013648D01*
X004733Y013663D01*
X004783Y013692D01*
X004824Y013733D01*
X004853Y013783D01*
X004868Y014039D02*
X005248Y014039D01*
X005248Y014278D02*
X004868Y014278D01*
X004868Y014372D02*
X004868Y014105D01*
X004410Y014105D01*
X004410Y014105D01*
X004410Y013648D01*
X004143Y013648D01*
X004087Y013663D01*
X004037Y013692D01*
X003996Y013733D01*
X003967Y013783D01*
X003952Y013839D01*
X003952Y014105D01*
X004410Y014105D01*
X004410Y014105D01*
X004410Y014105D01*
X003952Y014105D01*
X003952Y014372D01*
X003967Y014428D01*
X003996Y014478D01*
X004037Y014519D01*
X004087Y014548D01*
X004143Y014563D01*
X004410Y014563D01*
X004410Y014105D01*
X004410Y014563D01*
X004677Y014563D01*
X004733Y014548D01*
X004783Y014519D01*
X004824Y014478D01*
X004853Y014428D01*
X004868Y014372D01*
X004786Y014516D02*
X005248Y014516D01*
X004410Y014516D02*
X004410Y014516D01*
X004410Y014278D02*
X004410Y014278D01*
X004410Y014105D02*
X004410Y014105D01*
X004410Y014039D02*
X004410Y014039D01*
X004410Y013801D02*
X004410Y013801D01*
X003962Y013801D02*
X002928Y013801D01*
X002963Y014039D02*
X003952Y014039D01*
X003952Y014278D02*
X002963Y014278D01*
X002963Y014103D02*
X002318Y014103D01*
X002318Y014103D01*
X002316Y014101D01*
X001319Y014101D01*
X001319Y014101D01*
X000674Y014101D01*
X000674Y014368D01*
X000890Y014583D01*
X000648Y014583D01*
X000648Y013540D01*
X000808Y013700D01*
X000674Y013833D01*
X000674Y014101D01*
X001319Y014101D01*
X000823Y014516D02*
X000648Y014516D01*
X000648Y014278D02*
X000674Y014278D01*
X000674Y014039D02*
X000648Y014039D01*
X000648Y013801D02*
X000707Y013801D01*
X000670Y013562D02*
X000648Y013562D01*
X002318Y014103D02*
X002963Y014103D01*
X002816Y014516D02*
X004034Y014516D01*
X003922Y013085D02*
X003106Y013085D01*
X003106Y012847D02*
X003812Y012847D01*
X003812Y012608D02*
X002938Y012608D01*
X003104Y012370D02*
X003922Y012370D01*
X010453Y013324D02*
X010843Y013324D01*
X011453Y013324D02*
X011843Y013324D01*
X012319Y012713D02*
X012748Y012283D01*
X012748Y011483D01*
X013748Y011483D01*
X013521Y010710D02*
X013500Y010728D01*
X013477Y010745D01*
X013452Y010758D01*
X013427Y010769D01*
X013400Y010777D01*
X013372Y010781D01*
X013344Y010783D01*
X012318Y012712D02*
X012298Y012730D01*
X012276Y012746D01*
X012253Y012759D01*
X012228Y012769D01*
X012202Y012777D01*
X012175Y012781D01*
X012148Y012783D01*
X015103Y012847D02*
X015449Y012847D01*
X015414Y013085D02*
X015103Y013085D01*
X015317Y012632D02*
X015317Y012632D01*
X015327Y012608D02*
X015690Y012608D01*
X015868Y012608D02*
X015868Y012608D01*
X016047Y012608D02*
X017446Y012608D01*
X017298Y012847D02*
X016288Y012847D01*
X016323Y013085D02*
X017271Y013085D01*
X017956Y012370D02*
X015425Y012370D01*
X015868Y012847D02*
X015868Y012847D01*
X015868Y013085D02*
X015868Y013085D01*
X017607Y011177D02*
X017768Y011177D01*
X018248Y011183D02*
X018648Y010783D01*
X018828Y010783D01*
X018989Y010622D01*
X018204Y010462D02*
X017940Y010462D01*
X017961Y010700D02*
X018052Y010700D01*
X018248Y011183D02*
X018248Y011983D01*
X018887Y012623D01*
X018989Y012623D01*
X019398Y013324D02*
X019473Y013324D01*
X019473Y013562D02*
X018149Y013562D01*
X018148Y013683D02*
X018148Y014683D01*
X018394Y013324D02*
X018580Y013324D01*
D20*
X018148Y014683D03*
X017148Y014683D03*
X016148Y014683D03*
X015148Y014683D03*
X014148Y014683D03*
X013148Y014683D03*
X012148Y014683D03*
X011148Y014683D03*
X010148Y014683D03*
X009148Y014683D03*
X008148Y014683D03*
X008148Y013683D03*
X008148Y012683D03*
X008148Y011683D03*
X008148Y010683D03*
X007148Y010683D03*
X006148Y010683D03*
X006148Y011683D03*
X006148Y012683D03*
X007148Y012683D03*
X007148Y011683D03*
X007148Y013683D03*
X006148Y013683D03*
X006148Y014683D03*
X007148Y014683D03*
X007148Y015683D03*
X006148Y015683D03*
X005148Y015683D03*
X004148Y015683D03*
X003148Y015683D03*
X002148Y015683D03*
X001148Y015683D03*
X001148Y016683D03*
X002148Y016683D03*
X003148Y016683D03*
X004148Y016683D03*
X005148Y016683D03*
X006148Y016683D03*
X007148Y016683D03*
X008148Y016683D03*
X008148Y015683D03*
X009148Y015683D03*
X010148Y015683D03*
X011148Y015683D03*
X012148Y015683D03*
X013148Y015683D03*
X014148Y015683D03*
X015148Y015683D03*
X016148Y015683D03*
X017148Y015683D03*
X018148Y015683D03*
X019148Y015683D03*
X019148Y014683D03*
X019148Y016683D03*
X018148Y016683D03*
X017148Y016683D03*
X016148Y016683D03*
X015148Y016683D03*
X014148Y016683D03*
X013148Y016683D03*
X012148Y016683D03*
X011148Y016683D03*
X010148Y016683D03*
X009148Y016683D03*
X009148Y017683D03*
X008148Y017683D03*
X007148Y017683D03*
X006148Y017683D03*
X005148Y017683D03*
X004148Y017683D03*
X003148Y017683D03*
X002148Y017683D03*
X001148Y017683D03*
X001148Y018683D03*
X002148Y018683D03*
X003148Y018683D03*
X004148Y018683D03*
X005148Y018683D03*
X006148Y018683D03*
X007148Y018683D03*
X008148Y018683D03*
X009148Y018683D03*
X010148Y018683D03*
X010148Y017683D03*
X011148Y017683D03*
X012148Y017683D03*
X013148Y017683D03*
X014148Y017683D03*
X015148Y017683D03*
X016148Y017683D03*
X017148Y017683D03*
X018148Y017683D03*
X019148Y017683D03*
X019148Y018683D03*
X018148Y018683D03*
X017148Y018683D03*
X016148Y018683D03*
X015148Y018683D03*
X014148Y018683D03*
X013148Y018683D03*
X012148Y018683D03*
X011148Y018683D03*
X011148Y019683D03*
X010148Y019683D03*
X009148Y019683D03*
X008148Y019683D03*
X007148Y019683D03*
X006148Y019683D03*
X005148Y019683D03*
X004148Y019683D03*
X003148Y019683D03*
X002148Y019683D03*
X001148Y019683D03*
X012148Y019683D03*
X013148Y019683D03*
X014148Y019683D03*
X015148Y019683D03*
X016148Y019683D03*
X017148Y019683D03*
X018148Y019683D03*
X019148Y019683D03*
M02*
