G75*
G70*
%OFA0B0*%
%FSLAX24Y24*%
%IPPOS*%
%LPD*%
%AMOC8*
5,1,8,0,0,1.08239X$1,22.5*
%
%ADD10C,0.0000*%
%ADD11C,0.0030*%
%ADD12C,0.0040*%
%ADD13C,0.0050*%
%ADD14C,0.0060*%
%ADD15C,0.0080*%
%ADD16C,0.0010*%
%ADD17R,0.0200X0.1000*%
%ADD18R,0.0150X0.0300*%
%ADD19C,0.0200*%
%ADD20R,0.0800X0.0200*%
%ADD21R,0.0200X0.0250*%
D10*
X000148Y000683D02*
X000148Y020368D01*
X019833Y020368D01*
X019833Y000683D01*
X000148Y000683D01*
X007183Y001312D02*
X007193Y001312D01*
X007190Y001316D01*
X007193Y001319D01*
X007183Y001319D01*
X007183Y001322D02*
X007183Y001325D01*
X007183Y001323D02*
X007193Y001323D01*
X007193Y001322D02*
X007193Y001325D01*
X007193Y001328D02*
X007183Y001328D01*
X007183Y001333D01*
X007185Y001334D01*
X007188Y001334D01*
X007190Y001333D01*
X007190Y001328D01*
X007190Y001331D02*
X007193Y001334D01*
X007193Y001337D02*
X007193Y001344D01*
X007193Y001346D02*
X007183Y001346D01*
X007183Y001351D01*
X007185Y001353D01*
X007188Y001353D01*
X007190Y001351D01*
X007190Y001346D01*
X007188Y001340D02*
X007188Y001337D01*
X007183Y001337D02*
X007193Y001337D01*
X007183Y001337D02*
X007183Y001344D01*
X007187Y001355D02*
X007183Y001359D01*
X007187Y001362D01*
X007193Y001362D01*
X007193Y001365D02*
X007193Y001370D01*
X007192Y001371D01*
X007185Y001371D01*
X007183Y001370D01*
X007183Y001365D01*
X007193Y001365D01*
X007188Y001362D02*
X007188Y001355D01*
X007187Y001355D02*
X007193Y001355D01*
X007193Y001374D02*
X007187Y001380D01*
X007185Y001380D01*
X007183Y001379D01*
X007183Y001375D01*
X007185Y001374D01*
X007193Y001374D02*
X007193Y001380D01*
X007193Y001385D02*
X007193Y001386D01*
X007192Y001386D01*
X007192Y001385D01*
X007193Y001385D01*
X007193Y001386D02*
X007197Y001383D01*
X007193Y001389D02*
X007193Y001396D01*
X007192Y001398D02*
X007193Y001400D01*
X007193Y001403D01*
X007192Y001405D01*
X007188Y001405D01*
X007187Y001403D01*
X007187Y001402D01*
X007188Y001398D01*
X007183Y001398D01*
X007183Y001405D01*
X007183Y001414D02*
X007193Y001407D01*
X007193Y001417D02*
X007193Y001423D01*
X007193Y001420D02*
X007183Y001420D01*
X007187Y001417D01*
X007192Y001428D02*
X007193Y001428D01*
X007193Y001429D01*
X007192Y001429D01*
X007192Y001428D01*
X007193Y001429D02*
X007197Y001426D01*
X007192Y001432D02*
X007185Y001439D01*
X007192Y001439D01*
X007193Y001437D01*
X007193Y001434D01*
X007192Y001432D01*
X007185Y001432D01*
X007183Y001434D01*
X007183Y001437D01*
X007185Y001439D01*
X007183Y001392D02*
X007193Y001392D01*
X007187Y001389D02*
X007183Y001392D01*
X007985Y001835D02*
X007988Y001838D01*
X007991Y001835D01*
X007991Y001845D01*
X007994Y001845D02*
X007997Y001845D01*
X007996Y001845D02*
X007996Y001835D01*
X007997Y001835D02*
X007994Y001835D01*
X008000Y001835D02*
X008000Y001845D01*
X008005Y001845D01*
X008007Y001843D01*
X008007Y001840D01*
X008005Y001838D01*
X008000Y001838D01*
X008003Y001838D02*
X008007Y001835D01*
X008009Y001835D02*
X008016Y001835D01*
X008018Y001835D02*
X008018Y001845D01*
X008023Y001845D01*
X008025Y001843D01*
X008025Y001840D01*
X008023Y001838D01*
X008018Y001838D01*
X008013Y001840D02*
X008009Y001840D01*
X008009Y001845D02*
X008009Y001835D01*
X008009Y001845D02*
X008016Y001845D01*
X008028Y001842D02*
X008031Y001845D01*
X008034Y001842D01*
X008034Y001835D01*
X008037Y001835D02*
X008042Y001835D01*
X008044Y001837D01*
X008044Y001843D01*
X008042Y001845D01*
X008037Y001845D01*
X008037Y001835D01*
X008034Y001840D02*
X008028Y001840D01*
X008028Y001842D02*
X008028Y001835D01*
X008046Y001835D02*
X008053Y001842D01*
X008053Y001843D01*
X008051Y001845D01*
X008048Y001845D01*
X008046Y001843D01*
X008046Y001835D02*
X008053Y001835D01*
X008055Y001832D02*
X008059Y001835D01*
X008057Y001835D01*
X008057Y001837D01*
X008059Y001837D01*
X008059Y001835D01*
X008061Y001835D02*
X008068Y001835D01*
X008071Y001837D02*
X008072Y001835D01*
X008076Y001835D01*
X008077Y001837D01*
X008077Y001840D01*
X008076Y001842D01*
X008074Y001842D01*
X008071Y001840D01*
X008071Y001845D01*
X008077Y001845D01*
X008080Y001835D02*
X008087Y001845D01*
X008089Y001842D02*
X008092Y001845D01*
X008092Y001835D01*
X008089Y001835D02*
X008096Y001835D01*
X008098Y001832D02*
X008102Y001835D01*
X008100Y001835D01*
X008100Y001837D01*
X008102Y001837D01*
X008102Y001835D01*
X008104Y001837D02*
X008111Y001843D01*
X008111Y001837D01*
X008109Y001835D01*
X008106Y001835D01*
X008104Y001837D01*
X008104Y001843D01*
X008106Y001845D01*
X008109Y001845D01*
X008111Y001843D01*
X008065Y001845D02*
X008065Y001835D01*
X008061Y001842D02*
X008065Y001845D01*
X007985Y001845D02*
X007985Y001835D01*
X001926Y012103D02*
X001922Y012106D01*
X001926Y012109D01*
X001916Y012109D01*
X001916Y012112D02*
X001916Y012115D01*
X001916Y012113D02*
X001926Y012113D01*
X001926Y012112D02*
X001926Y012115D01*
X001926Y012118D02*
X001916Y012118D01*
X001916Y012123D01*
X001917Y012125D01*
X001921Y012125D01*
X001922Y012123D01*
X001922Y012118D01*
X001922Y012121D02*
X001926Y012125D01*
X001926Y012127D02*
X001926Y012134D01*
X001926Y012136D02*
X001916Y012136D01*
X001916Y012141D01*
X001917Y012143D01*
X001921Y012143D01*
X001922Y012141D01*
X001922Y012136D01*
X001921Y012130D02*
X001921Y012127D01*
X001916Y012127D02*
X001926Y012127D01*
X001916Y012127D02*
X001916Y012134D01*
X001919Y012146D02*
X001916Y012149D01*
X001919Y012152D01*
X001926Y012152D01*
X001926Y012155D02*
X001926Y012160D01*
X001924Y012161D01*
X001917Y012161D01*
X001916Y012160D01*
X001916Y012155D01*
X001926Y012155D01*
X001921Y012152D02*
X001921Y012146D01*
X001919Y012146D02*
X001926Y012146D01*
X001926Y012164D02*
X001919Y012171D01*
X001917Y012171D01*
X001916Y012169D01*
X001916Y012166D01*
X001917Y012164D01*
X001926Y012164D02*
X001926Y012171D01*
X001929Y012173D02*
X001926Y012176D01*
X001926Y012175D01*
X001924Y012175D01*
X001924Y012176D01*
X001926Y012176D01*
X001926Y012179D02*
X001926Y012186D01*
X001924Y012188D02*
X001926Y012190D01*
X001926Y012193D01*
X001924Y012195D01*
X001921Y012195D01*
X001919Y012193D01*
X001919Y012192D01*
X001921Y012188D01*
X001916Y012188D01*
X001916Y012195D01*
X001916Y012204D02*
X001926Y012198D01*
X001926Y012207D02*
X001926Y012214D01*
X001929Y012216D02*
X001926Y012219D01*
X001926Y012218D01*
X001924Y012218D01*
X001924Y012219D01*
X001926Y012219D01*
X001924Y012222D02*
X001917Y012229D01*
X001924Y012229D01*
X001926Y012227D01*
X001926Y012224D01*
X001924Y012222D01*
X001917Y012222D01*
X001916Y012224D01*
X001916Y012227D01*
X001917Y012229D01*
X001916Y012210D02*
X001926Y012210D01*
X001919Y012207D02*
X001916Y012210D01*
X001916Y012183D02*
X001926Y012183D01*
X001919Y012179D02*
X001916Y012183D01*
X001916Y012103D02*
X001926Y012103D01*
X001446Y012933D02*
X001443Y012933D01*
X001441Y012935D01*
X001448Y012941D01*
X001448Y012935D01*
X001446Y012933D01*
X001441Y012935D02*
X001441Y012941D01*
X001443Y012943D01*
X001446Y012943D01*
X001448Y012941D01*
X001438Y012935D02*
X001437Y012935D01*
X001437Y012933D01*
X001438Y012933D01*
X001438Y012935D01*
X001438Y012933D02*
X001435Y012930D01*
X001432Y012933D02*
X001426Y012933D01*
X001429Y012933D02*
X001429Y012943D01*
X001426Y012940D01*
X001423Y012943D02*
X001416Y012933D01*
X001414Y012935D02*
X001412Y012933D01*
X001409Y012933D01*
X001407Y012935D01*
X001407Y012938D02*
X001411Y012940D01*
X001412Y012940D01*
X001414Y012938D01*
X001414Y012935D01*
X001407Y012938D02*
X001407Y012943D01*
X001414Y012943D01*
X001401Y012943D02*
X001401Y012933D01*
X001398Y012933D02*
X001405Y012933D01*
X001398Y012940D02*
X001401Y012943D01*
X001395Y012935D02*
X001394Y012935D01*
X001394Y012933D01*
X001395Y012933D01*
X001395Y012935D01*
X001395Y012933D02*
X001392Y012930D01*
X001389Y012933D02*
X001383Y012933D01*
X001389Y012940D01*
X001389Y012941D01*
X001388Y012943D01*
X001384Y012943D01*
X001383Y012941D01*
X001380Y012941D02*
X001379Y012943D01*
X001374Y012943D01*
X001374Y012933D01*
X001379Y012933D01*
X001380Y012935D01*
X001380Y012941D01*
X001371Y012940D02*
X001371Y012933D01*
X001371Y012938D02*
X001364Y012938D01*
X001364Y012940D02*
X001368Y012943D01*
X001371Y012940D01*
X001364Y012940D02*
X001364Y012933D01*
X001360Y012936D02*
X001355Y012936D01*
X001355Y012933D02*
X001355Y012943D01*
X001360Y012943D01*
X001362Y012941D01*
X001362Y012938D01*
X001360Y012936D01*
X001353Y012933D02*
X001346Y012933D01*
X001346Y012943D01*
X001353Y012943D01*
X001349Y012938D02*
X001346Y012938D01*
X001343Y012938D02*
X001342Y012936D01*
X001337Y012936D01*
X001340Y012936D02*
X001343Y012933D01*
X001343Y012938D02*
X001343Y012941D01*
X001342Y012943D01*
X001337Y012943D01*
X001337Y012933D01*
X001334Y012933D02*
X001331Y012933D01*
X001332Y012933D02*
X001332Y012943D01*
X001331Y012943D02*
X001334Y012943D01*
X001328Y012943D02*
X001328Y012933D01*
X001325Y012936D01*
X001321Y012933D01*
X001321Y012943D01*
X000923Y013099D02*
X000920Y013102D01*
X000923Y013105D01*
X000913Y013105D01*
X000913Y013108D02*
X000913Y013111D01*
X000913Y013110D02*
X000923Y013110D01*
X000923Y013111D02*
X000923Y013108D01*
X000923Y013114D02*
X000913Y013114D01*
X000913Y013119D01*
X000915Y013121D01*
X000918Y013121D01*
X000920Y013119D01*
X000920Y013114D01*
X000920Y013117D02*
X000923Y013121D01*
X000923Y013123D02*
X000923Y013130D01*
X000923Y013132D02*
X000913Y013132D01*
X000913Y013137D01*
X000915Y013139D01*
X000918Y013139D01*
X000920Y013137D01*
X000920Y013132D01*
X000918Y013127D02*
X000918Y013123D01*
X000913Y013123D02*
X000923Y013123D01*
X000913Y013123D02*
X000913Y013130D01*
X000916Y013142D02*
X000913Y013145D01*
X000916Y013148D01*
X000923Y013148D01*
X000923Y013151D02*
X000923Y013156D01*
X000921Y013158D01*
X000915Y013158D01*
X000913Y013156D01*
X000913Y013151D01*
X000923Y013151D01*
X000918Y013148D02*
X000918Y013142D01*
X000916Y013142D02*
X000923Y013142D01*
X000923Y013160D02*
X000916Y013167D01*
X000915Y013167D01*
X000913Y013165D01*
X000913Y013162D01*
X000915Y013160D01*
X000923Y013160D02*
X000923Y013167D01*
X000923Y013171D02*
X000923Y013173D01*
X000921Y013173D01*
X000921Y013171D01*
X000923Y013171D01*
X000923Y013173D02*
X000926Y013169D01*
X000923Y013175D02*
X000923Y013182D01*
X000921Y013185D02*
X000923Y013186D01*
X000923Y013190D01*
X000921Y013191D01*
X000918Y013191D01*
X000916Y013190D01*
X000916Y013188D01*
X000918Y013185D01*
X000913Y013185D01*
X000913Y013191D01*
X000923Y013194D02*
X000913Y013201D01*
X000916Y013203D02*
X000913Y013206D01*
X000923Y013206D01*
X000923Y013203D02*
X000923Y013210D01*
X000923Y013214D02*
X000923Y013216D01*
X000921Y013216D01*
X000921Y013214D01*
X000923Y013214D01*
X000923Y013216D02*
X000926Y013212D01*
X000921Y013218D02*
X000915Y013225D01*
X000921Y013225D01*
X000923Y013223D01*
X000923Y013220D01*
X000921Y013218D01*
X000915Y013218D01*
X000913Y013220D01*
X000913Y013223D01*
X000915Y013225D01*
X000913Y013179D02*
X000923Y013179D01*
X000916Y013175D02*
X000913Y013179D01*
X000913Y013099D02*
X000923Y013099D01*
X000925Y014101D02*
X000922Y014104D01*
X000925Y014107D01*
X000915Y014107D01*
X000915Y014110D02*
X000915Y014113D01*
X000915Y014111D02*
X000925Y014111D01*
X000925Y014110D02*
X000925Y014113D01*
X000925Y014116D02*
X000915Y014116D01*
X000915Y014121D01*
X000917Y014123D01*
X000920Y014123D01*
X000922Y014121D01*
X000922Y014116D01*
X000922Y014119D02*
X000925Y014123D01*
X000925Y014125D02*
X000925Y014132D01*
X000925Y014134D02*
X000915Y014134D01*
X000915Y014139D01*
X000917Y014141D01*
X000920Y014141D01*
X000922Y014139D01*
X000922Y014134D01*
X000920Y014128D02*
X000920Y014125D01*
X000915Y014125D02*
X000925Y014125D01*
X000915Y014125D02*
X000915Y014132D01*
X000919Y014144D02*
X000915Y014147D01*
X000919Y014150D01*
X000925Y014150D01*
X000925Y014153D02*
X000925Y014158D01*
X000924Y014159D01*
X000917Y014159D01*
X000915Y014158D01*
X000915Y014153D01*
X000925Y014153D01*
X000920Y014150D02*
X000920Y014144D01*
X000919Y014144D02*
X000925Y014144D01*
X000925Y014162D02*
X000919Y014169D01*
X000917Y014169D01*
X000915Y014167D01*
X000915Y014164D01*
X000917Y014162D01*
X000925Y014162D02*
X000925Y014169D01*
X000925Y014173D02*
X000925Y014174D01*
X000924Y014174D01*
X000924Y014173D01*
X000925Y014173D01*
X000925Y014174D02*
X000929Y014171D01*
X000925Y014177D02*
X000925Y014184D01*
X000924Y014186D02*
X000925Y014188D01*
X000925Y014191D01*
X000924Y014193D01*
X000920Y014193D01*
X000919Y014191D01*
X000919Y014190D01*
X000920Y014186D01*
X000915Y014186D01*
X000915Y014193D01*
X000915Y014202D02*
X000925Y014196D01*
X000925Y014205D02*
X000925Y014212D01*
X000925Y014208D02*
X000915Y014208D01*
X000919Y014205D01*
X000924Y014216D02*
X000925Y014216D01*
X000925Y014217D01*
X000924Y014217D01*
X000924Y014216D01*
X000925Y014217D02*
X000929Y014214D01*
X000924Y014220D02*
X000917Y014227D01*
X000924Y014227D01*
X000925Y014225D01*
X000925Y014222D01*
X000924Y014220D01*
X000917Y014220D01*
X000915Y014222D01*
X000915Y014225D01*
X000917Y014227D01*
X000915Y014181D02*
X000925Y014181D01*
X000919Y014177D02*
X000915Y014181D01*
X000915Y014101D02*
X000925Y014101D01*
X001989Y014066D02*
X001989Y014056D01*
X001992Y014060D01*
X001996Y014056D01*
X001996Y014066D01*
X001998Y014066D02*
X002001Y014066D01*
X002000Y014066D02*
X002000Y014056D01*
X002001Y014056D02*
X001998Y014056D01*
X002004Y014056D02*
X002004Y014066D01*
X002009Y014066D01*
X002011Y014065D01*
X002011Y014061D01*
X002009Y014060D01*
X002004Y014060D01*
X002008Y014060D02*
X002011Y014056D01*
X002013Y014056D02*
X002020Y014056D01*
X002023Y014056D02*
X002023Y014066D01*
X002028Y014066D01*
X002029Y014065D01*
X002029Y014061D01*
X002028Y014060D01*
X002023Y014060D01*
X002017Y014061D02*
X002013Y014061D01*
X002013Y014066D02*
X002013Y014056D01*
X002013Y014066D02*
X002020Y014066D01*
X002032Y014063D02*
X002035Y014066D01*
X002038Y014063D01*
X002038Y014056D01*
X002041Y014056D02*
X002046Y014056D01*
X002048Y014058D01*
X002048Y014065D01*
X002046Y014066D01*
X002041Y014066D01*
X002041Y014056D01*
X002038Y014061D02*
X002032Y014061D01*
X002032Y014063D02*
X002032Y014056D01*
X002050Y014056D02*
X002057Y014063D01*
X002057Y014065D01*
X002055Y014066D01*
X002052Y014066D01*
X002050Y014065D01*
X002050Y014056D02*
X002057Y014056D01*
X002059Y014053D02*
X002063Y014056D01*
X002061Y014056D01*
X002061Y014058D01*
X002063Y014058D01*
X002063Y014056D01*
X002066Y014056D02*
X002072Y014056D01*
X002069Y014056D02*
X002069Y014066D01*
X002066Y014063D01*
X002075Y014061D02*
X002078Y014063D01*
X002080Y014063D01*
X002081Y014061D01*
X002081Y014058D01*
X002080Y014056D01*
X002076Y014056D01*
X002075Y014058D01*
X002075Y014061D02*
X002075Y014066D01*
X002081Y014066D01*
X002084Y014056D02*
X002091Y014066D01*
X002093Y014063D02*
X002097Y014066D01*
X002097Y014056D01*
X002100Y014056D02*
X002093Y014056D01*
X002102Y014053D02*
X002106Y014056D01*
X002104Y014056D01*
X002104Y014058D01*
X002106Y014058D01*
X002106Y014056D01*
X002109Y014058D02*
X002115Y014065D01*
X002115Y014058D01*
X002114Y014056D01*
X002110Y014056D01*
X002109Y014058D01*
X002109Y014065D01*
X002110Y014066D01*
X002114Y014066D01*
X002115Y014065D01*
X002192Y013865D02*
X002192Y013855D01*
X002195Y013858D01*
X002199Y013855D01*
X002199Y013865D01*
X002201Y013865D02*
X002205Y013865D01*
X002203Y013865D02*
X002203Y013855D01*
X002201Y013855D02*
X002205Y013855D01*
X002207Y013855D02*
X002207Y013865D01*
X002212Y013865D01*
X002214Y013863D01*
X002214Y013860D01*
X002212Y013858D01*
X002207Y013858D01*
X002211Y013858D02*
X002214Y013855D01*
X002217Y013855D02*
X002223Y013855D01*
X002226Y013855D02*
X002226Y013865D01*
X002231Y013865D01*
X002233Y013863D01*
X002233Y013860D01*
X002231Y013858D01*
X002226Y013858D01*
X002220Y013860D02*
X002217Y013860D01*
X002217Y013865D02*
X002217Y013855D01*
X002217Y013865D02*
X002223Y013865D01*
X002235Y013862D02*
X002238Y013865D01*
X002242Y013862D01*
X002242Y013855D01*
X002244Y013855D02*
X002249Y013855D01*
X002251Y013857D01*
X002251Y013863D01*
X002249Y013865D01*
X002244Y013865D01*
X002244Y013855D01*
X002242Y013860D02*
X002235Y013860D01*
X002235Y013862D02*
X002235Y013855D01*
X002253Y013855D02*
X002260Y013862D01*
X002260Y013863D01*
X002258Y013865D01*
X002255Y013865D01*
X002253Y013863D01*
X002253Y013855D02*
X002260Y013855D01*
X002264Y013855D02*
X002266Y013855D01*
X002266Y013857D01*
X002264Y013857D01*
X002264Y013855D01*
X002266Y013855D02*
X002263Y013852D01*
X002269Y013855D02*
X002275Y013855D01*
X002272Y013855D02*
X002272Y013865D01*
X002269Y013862D01*
X002278Y013860D02*
X002281Y013862D01*
X002283Y013862D01*
X002285Y013860D01*
X002285Y013857D01*
X002283Y013855D01*
X002280Y013855D01*
X002278Y013857D01*
X002278Y013860D02*
X002278Y013865D01*
X002285Y013865D01*
X002294Y013865D02*
X002287Y013855D01*
X002296Y013855D02*
X002303Y013855D01*
X002300Y013855D02*
X002300Y013865D01*
X002296Y013862D01*
X002307Y013857D02*
X002307Y013855D01*
X002309Y013855D01*
X002309Y013857D01*
X002307Y013857D01*
X002309Y013855D02*
X002306Y013852D01*
X002312Y013857D02*
X002318Y013863D01*
X002318Y013857D01*
X002317Y013855D01*
X002313Y013855D01*
X002312Y013857D01*
X002312Y013863D01*
X002313Y013865D01*
X002317Y013865D01*
X002318Y013863D01*
X018989Y012869D02*
X018989Y012859D01*
X018992Y012862D01*
X018996Y012859D01*
X018996Y012869D01*
X018998Y012869D02*
X019001Y012869D01*
X019000Y012869D02*
X019000Y012859D01*
X019001Y012859D02*
X018998Y012859D01*
X019004Y012859D02*
X019004Y012869D01*
X019009Y012869D01*
X019011Y012867D01*
X019011Y012864D01*
X019009Y012862D01*
X019004Y012862D01*
X019008Y012862D02*
X019011Y012859D01*
X019013Y012859D02*
X019020Y012859D01*
X019023Y012859D02*
X019023Y012869D01*
X019028Y012869D01*
X019029Y012867D01*
X019029Y012864D01*
X019028Y012862D01*
X019023Y012862D01*
X019017Y012864D02*
X019013Y012864D01*
X019013Y012869D02*
X019013Y012859D01*
X019013Y012869D02*
X019020Y012869D01*
X019032Y012866D02*
X019035Y012869D01*
X019039Y012866D01*
X019039Y012859D01*
X019041Y012859D02*
X019046Y012859D01*
X019048Y012861D01*
X019048Y012867D01*
X019046Y012869D01*
X019041Y012869D01*
X019041Y012859D01*
X019039Y012864D02*
X019032Y012864D01*
X019032Y012866D02*
X019032Y012859D01*
X019050Y012859D02*
X019057Y012866D01*
X019057Y012867D01*
X019055Y012869D01*
X019052Y012869D01*
X019050Y012867D01*
X019050Y012859D02*
X019057Y012859D01*
X019061Y012859D02*
X019063Y012859D01*
X019063Y012861D01*
X019061Y012861D01*
X019061Y012859D01*
X019063Y012859D02*
X019060Y012856D01*
X019066Y012859D02*
X019072Y012859D01*
X019069Y012859D02*
X019069Y012869D01*
X019066Y012866D01*
X019075Y012864D02*
X019078Y012866D01*
X019080Y012866D01*
X019082Y012864D01*
X019082Y012861D01*
X019080Y012859D01*
X019077Y012859D01*
X019075Y012861D01*
X019075Y012864D02*
X019075Y012869D01*
X019082Y012869D01*
X019091Y012869D02*
X019084Y012859D01*
X019093Y012859D02*
X019100Y012859D01*
X019097Y012859D02*
X019097Y012869D01*
X019093Y012866D01*
X019104Y012861D02*
X019104Y012859D01*
X019106Y012859D01*
X019106Y012861D01*
X019104Y012861D01*
X019106Y012859D02*
X019103Y012856D01*
X019109Y012861D02*
X019115Y012867D01*
X019115Y012861D01*
X019114Y012859D01*
X019110Y012859D01*
X019109Y012861D01*
X019109Y012867D01*
X019110Y012869D01*
X019114Y012869D01*
X019115Y012867D01*
X019114Y012025D02*
X019116Y012023D01*
X019109Y012016D01*
X019111Y012015D01*
X019114Y012015D01*
X019116Y012016D01*
X019116Y012023D01*
X019114Y012025D02*
X019111Y012025D01*
X019109Y012023D01*
X019109Y012016D01*
X019106Y012016D02*
X019105Y012016D01*
X019105Y012015D01*
X019106Y012015D01*
X019106Y012016D01*
X019106Y012015D02*
X019103Y012011D01*
X019100Y012015D02*
X019094Y012015D01*
X019097Y012015D02*
X019097Y012025D01*
X019094Y012021D01*
X019091Y012025D02*
X019084Y012015D01*
X019082Y012016D02*
X019080Y012015D01*
X019077Y012015D01*
X019075Y012016D01*
X019073Y012015D02*
X019066Y012015D01*
X019063Y012015D02*
X019062Y012015D01*
X019062Y012016D01*
X019063Y012016D01*
X019063Y012015D01*
X019060Y012011D01*
X019057Y012015D02*
X019051Y012015D01*
X019057Y012021D01*
X019057Y012023D01*
X019056Y012025D01*
X019052Y012025D01*
X019051Y012023D01*
X019048Y012023D02*
X019047Y012025D01*
X019042Y012025D01*
X019042Y012015D01*
X019047Y012015D01*
X019048Y012016D01*
X019048Y012023D01*
X019039Y012021D02*
X019039Y012015D01*
X019039Y012020D02*
X019032Y012020D01*
X019032Y012021D02*
X019036Y012025D01*
X019039Y012021D01*
X019032Y012021D02*
X019032Y012015D01*
X019028Y012018D02*
X019023Y012018D01*
X019023Y012015D02*
X019023Y012025D01*
X019028Y012025D01*
X019030Y012023D01*
X019030Y012020D01*
X019028Y012018D01*
X019021Y012015D02*
X019014Y012015D01*
X019014Y012025D01*
X019021Y012025D01*
X019017Y012020D02*
X019014Y012020D01*
X019011Y012020D02*
X019010Y012018D01*
X019005Y012018D01*
X019008Y012018D02*
X019011Y012015D01*
X019011Y012020D02*
X019011Y012023D01*
X019010Y012025D01*
X019005Y012025D01*
X019005Y012015D01*
X019002Y012015D02*
X018999Y012015D01*
X019000Y012015D02*
X019000Y012025D01*
X018999Y012025D02*
X019002Y012025D01*
X018996Y012025D02*
X018996Y012015D01*
X018993Y012018D01*
X018989Y012015D01*
X018989Y012025D01*
X019066Y012021D02*
X019069Y012025D01*
X019069Y012015D01*
X019075Y012020D02*
X019079Y012021D01*
X019080Y012021D01*
X019082Y012020D01*
X019082Y012016D01*
X019075Y012020D02*
X019075Y012025D01*
X019082Y012025D01*
X019082Y011025D02*
X019075Y011025D01*
X019075Y011020D01*
X019078Y011022D01*
X019080Y011022D01*
X019082Y011020D01*
X019082Y011017D01*
X019080Y011015D01*
X019077Y011015D01*
X019075Y011017D01*
X019073Y011015D02*
X019066Y011015D01*
X019063Y011015D02*
X019061Y011015D01*
X019061Y011017D01*
X019063Y011017D01*
X019063Y011015D01*
X019060Y011012D01*
X019057Y011015D02*
X019051Y011015D01*
X019057Y011022D01*
X019057Y011024D01*
X019056Y011025D01*
X019052Y011025D01*
X019051Y011024D01*
X019048Y011024D02*
X019046Y011025D01*
X019041Y011025D01*
X019041Y011015D01*
X019046Y011015D01*
X019048Y011017D01*
X019048Y011024D01*
X019039Y011022D02*
X019039Y011015D01*
X019039Y011020D02*
X019032Y011020D01*
X019032Y011022D02*
X019035Y011025D01*
X019039Y011022D01*
X019032Y011022D02*
X019032Y011015D01*
X019028Y011019D02*
X019023Y011019D01*
X019023Y011015D02*
X019023Y011025D01*
X019028Y011025D01*
X019030Y011024D01*
X019030Y011020D01*
X019028Y011019D01*
X019020Y011015D02*
X019014Y011015D01*
X019014Y011025D01*
X019020Y011025D01*
X019017Y011020D02*
X019014Y011020D01*
X019011Y011020D02*
X019009Y011019D01*
X019004Y011019D01*
X019004Y011015D02*
X019004Y011025D01*
X019009Y011025D01*
X019011Y011024D01*
X019011Y011020D01*
X019008Y011019D02*
X019011Y011015D01*
X019002Y011015D02*
X018998Y011015D01*
X019000Y011015D02*
X019000Y011025D01*
X018998Y011025D02*
X019002Y011025D01*
X018996Y011025D02*
X018996Y011015D01*
X018992Y011019D01*
X018989Y011015D01*
X018989Y011025D01*
X019066Y011022D02*
X019069Y011025D01*
X019069Y011015D01*
X019084Y011015D02*
X019091Y011025D01*
X019093Y011022D02*
X019097Y011025D01*
X019097Y011015D01*
X019100Y011015D02*
X019093Y011015D01*
X019103Y011012D02*
X019106Y011015D01*
X019104Y011015D01*
X019104Y011017D01*
X019106Y011017D01*
X019106Y011015D01*
X019109Y011017D02*
X019116Y011024D01*
X019116Y011017D01*
X019114Y011015D01*
X019110Y011015D01*
X019109Y011017D01*
X019109Y011024D01*
X019110Y011025D01*
X019114Y011025D01*
X019116Y011024D01*
X019114Y009026D02*
X019116Y009025D01*
X019109Y009018D01*
X019111Y009016D01*
X019114Y009016D01*
X019116Y009018D01*
X019116Y009025D01*
X019114Y009026D02*
X019111Y009026D01*
X019109Y009025D01*
X019109Y009018D01*
X019106Y009018D02*
X019105Y009018D01*
X019105Y009016D01*
X019106Y009016D01*
X019106Y009018D01*
X019106Y009016D02*
X019103Y009013D01*
X019101Y009016D02*
X019094Y009016D01*
X019097Y009016D02*
X019097Y009026D01*
X019094Y009023D01*
X019091Y009026D02*
X019085Y009016D01*
X019082Y009018D02*
X019080Y009016D01*
X019077Y009016D01*
X019075Y009018D01*
X019073Y009016D02*
X019066Y009016D01*
X019063Y009016D02*
X019062Y009016D01*
X019062Y009018D01*
X019063Y009018D01*
X019063Y009016D01*
X019060Y009013D01*
X019058Y009016D02*
X019051Y009016D01*
X019058Y009023D01*
X019058Y009025D01*
X019056Y009026D01*
X019053Y009026D01*
X019051Y009025D01*
X019048Y009025D02*
X019047Y009026D01*
X019042Y009026D01*
X019042Y009016D01*
X019047Y009016D01*
X019048Y009018D01*
X019048Y009025D01*
X019039Y009023D02*
X019039Y009016D01*
X019039Y009021D02*
X019032Y009021D01*
X019030Y009021D02*
X019028Y009020D01*
X019023Y009020D01*
X019023Y009016D02*
X019023Y009026D01*
X019028Y009026D01*
X019030Y009025D01*
X019030Y009021D01*
X019032Y009023D02*
X019036Y009026D01*
X019039Y009023D01*
X019032Y009023D02*
X019032Y009016D01*
X019021Y009016D02*
X019014Y009016D01*
X019014Y009026D01*
X019021Y009026D01*
X019017Y009021D02*
X019014Y009021D01*
X019012Y009021D02*
X019010Y009020D01*
X019005Y009020D01*
X019008Y009020D02*
X019012Y009016D01*
X019012Y009021D02*
X019012Y009025D01*
X019010Y009026D01*
X019005Y009026D01*
X019005Y009016D01*
X019002Y009016D02*
X018999Y009016D01*
X019000Y009016D02*
X019000Y009026D01*
X018999Y009026D02*
X019002Y009026D01*
X018996Y009026D02*
X018996Y009016D01*
X018993Y009020D01*
X018990Y009016D01*
X018990Y009026D01*
X019066Y009023D02*
X019070Y009026D01*
X019070Y009016D01*
X019075Y009021D02*
X019079Y009023D01*
X019080Y009023D01*
X019082Y009021D01*
X019082Y009018D01*
X019075Y009021D02*
X019075Y009026D01*
X019082Y009026D01*
X019083Y008869D02*
X019077Y008869D01*
X019077Y008864D01*
X019080Y008866D01*
X019082Y008866D01*
X019083Y008864D01*
X019083Y008861D01*
X019082Y008859D01*
X019078Y008859D01*
X019077Y008861D01*
X019074Y008859D02*
X019067Y008859D01*
X019065Y008859D02*
X019063Y008859D01*
X019063Y008861D01*
X019065Y008861D01*
X019065Y008859D01*
X019061Y008856D01*
X019059Y008859D02*
X019052Y008859D01*
X019059Y008866D01*
X019059Y008867D01*
X019057Y008869D01*
X019054Y008869D01*
X019052Y008867D01*
X019050Y008867D02*
X019048Y008869D01*
X019043Y008869D01*
X019043Y008859D01*
X019048Y008859D01*
X019050Y008861D01*
X019050Y008867D01*
X019040Y008866D02*
X019040Y008859D01*
X019040Y008864D02*
X019034Y008864D01*
X019034Y008866D02*
X019037Y008869D01*
X019040Y008866D01*
X019034Y008866D02*
X019034Y008859D01*
X019029Y008862D02*
X019024Y008862D01*
X019024Y008859D02*
X019024Y008869D01*
X019029Y008869D01*
X019031Y008867D01*
X019031Y008864D01*
X019029Y008862D01*
X019022Y008859D02*
X019015Y008859D01*
X019015Y008869D01*
X019022Y008869D01*
X019019Y008864D02*
X019015Y008864D01*
X019013Y008864D02*
X019011Y008862D01*
X019006Y008862D01*
X019006Y008859D02*
X019006Y008869D01*
X019011Y008869D01*
X019013Y008867D01*
X019013Y008864D01*
X019009Y008862D02*
X019013Y008859D01*
X019003Y008859D02*
X019000Y008859D01*
X019002Y008859D02*
X019002Y008869D01*
X019003Y008869D02*
X019000Y008869D01*
X018997Y008869D02*
X018997Y008859D01*
X018994Y008862D01*
X018991Y008859D01*
X018991Y008869D01*
X019067Y008866D02*
X019071Y008869D01*
X019071Y008859D01*
X019086Y008859D02*
X019093Y008869D01*
X019095Y008866D02*
X019098Y008869D01*
X019098Y008859D01*
X019095Y008859D02*
X019102Y008859D01*
X019106Y008859D02*
X019108Y008859D01*
X019108Y008861D01*
X019106Y008861D01*
X019106Y008859D01*
X019108Y008859D02*
X019104Y008856D01*
X019110Y008861D02*
X019117Y008867D01*
X019117Y008861D01*
X019115Y008859D01*
X019112Y008859D01*
X019110Y008861D01*
X019110Y008867D01*
X019112Y008869D01*
X019115Y008869D01*
X019117Y008867D01*
X019191Y008070D02*
X019191Y008060D01*
X019194Y008063D01*
X019197Y008060D01*
X019197Y008070D01*
X019200Y008070D02*
X019203Y008070D01*
X019201Y008070D02*
X019201Y008060D01*
X019200Y008060D02*
X019203Y008060D01*
X019206Y008060D02*
X019206Y008070D01*
X019211Y008070D01*
X019213Y008068D01*
X019213Y008065D01*
X019211Y008063D01*
X019206Y008063D01*
X019209Y008063D02*
X019213Y008060D01*
X019215Y008060D02*
X019222Y008060D01*
X019224Y008060D02*
X019224Y008070D01*
X019229Y008070D01*
X019231Y008068D01*
X019231Y008065D01*
X019229Y008063D01*
X019224Y008063D01*
X019218Y008065D02*
X019215Y008065D01*
X019215Y008070D02*
X019215Y008060D01*
X019215Y008070D02*
X019222Y008070D01*
X019234Y008066D02*
X019237Y008070D01*
X019240Y008066D01*
X019240Y008060D01*
X019243Y008060D02*
X019248Y008060D01*
X019249Y008061D01*
X019249Y008068D01*
X019248Y008070D01*
X019243Y008070D01*
X019243Y008060D01*
X019240Y008065D02*
X019234Y008065D01*
X019234Y008066D02*
X019234Y008060D01*
X019252Y008060D02*
X019259Y008066D01*
X019259Y008068D01*
X019257Y008070D01*
X019254Y008070D01*
X019252Y008068D01*
X019252Y008060D02*
X019259Y008060D01*
X019263Y008060D02*
X019264Y008060D01*
X019264Y008061D01*
X019263Y008061D01*
X019263Y008060D01*
X019264Y008060D02*
X019261Y008056D01*
X019267Y008060D02*
X019274Y008060D01*
X019276Y008061D02*
X019278Y008060D01*
X019281Y008060D01*
X019283Y008061D01*
X019283Y008065D01*
X019281Y008066D01*
X019280Y008066D01*
X019276Y008065D01*
X019276Y008070D01*
X019283Y008070D01*
X019292Y008070D02*
X019286Y008060D01*
X019295Y008060D02*
X019302Y008060D01*
X019306Y008060D02*
X019307Y008060D01*
X019307Y008061D01*
X019306Y008061D01*
X019306Y008060D01*
X019307Y008060D02*
X019304Y008056D01*
X019298Y008060D02*
X019298Y008070D01*
X019295Y008066D01*
X019310Y008068D02*
X019312Y008070D01*
X019315Y008070D01*
X019317Y008068D01*
X019310Y008061D01*
X019312Y008060D01*
X019315Y008060D01*
X019317Y008061D01*
X019317Y008068D01*
X019310Y008068D02*
X019310Y008061D01*
X019271Y008060D02*
X019271Y008070D01*
X019267Y008066D01*
X019116Y006871D02*
X019117Y006869D01*
X019111Y006863D01*
X019112Y006861D01*
X019116Y006861D01*
X019117Y006863D01*
X019117Y006869D01*
X019116Y006871D02*
X019112Y006871D01*
X019111Y006869D01*
X019111Y006863D01*
X019108Y006863D02*
X019106Y006863D01*
X019106Y006861D01*
X019108Y006861D01*
X019108Y006863D01*
X019108Y006861D02*
X019105Y006858D01*
X019102Y006861D02*
X019095Y006861D01*
X019099Y006861D02*
X019099Y006871D01*
X019095Y006868D01*
X019093Y006871D02*
X019086Y006861D01*
X019084Y006863D02*
X019082Y006861D01*
X019079Y006861D01*
X019077Y006863D01*
X019077Y006866D02*
X019080Y006868D01*
X019082Y006868D01*
X019084Y006866D01*
X019084Y006863D01*
X019077Y006866D02*
X019077Y006871D01*
X019084Y006871D01*
X019071Y006871D02*
X019071Y006861D01*
X019068Y006861D02*
X019074Y006861D01*
X019065Y006861D02*
X019063Y006861D01*
X019063Y006863D01*
X019065Y006863D01*
X019065Y006861D01*
X019062Y006858D01*
X019059Y006861D02*
X019052Y006861D01*
X019059Y006868D01*
X019059Y006869D01*
X019057Y006871D01*
X019054Y006871D01*
X019052Y006869D01*
X019050Y006869D02*
X019048Y006871D01*
X019043Y006871D01*
X019043Y006861D01*
X019048Y006861D01*
X019050Y006863D01*
X019050Y006869D01*
X019041Y006868D02*
X019041Y006861D01*
X019041Y006866D02*
X019034Y006866D01*
X019034Y006868D02*
X019037Y006871D01*
X019041Y006868D01*
X019034Y006868D02*
X019034Y006861D01*
X019030Y006864D02*
X019025Y006864D01*
X019025Y006861D02*
X019025Y006871D01*
X019030Y006871D01*
X019031Y006869D01*
X019031Y006866D01*
X019030Y006864D01*
X019022Y006861D02*
X019016Y006861D01*
X019016Y006871D01*
X019022Y006871D01*
X019019Y006866D02*
X019016Y006866D01*
X019013Y006866D02*
X019011Y006864D01*
X019006Y006864D01*
X019006Y006861D02*
X019006Y006871D01*
X019011Y006871D01*
X019013Y006869D01*
X019013Y006866D01*
X019010Y006864D02*
X019013Y006861D01*
X019003Y006861D02*
X019000Y006861D01*
X019002Y006861D02*
X019002Y006871D01*
X019003Y006871D02*
X019000Y006871D01*
X018998Y006871D02*
X018998Y006861D01*
X018994Y006864D01*
X018991Y006861D01*
X018991Y006871D01*
X019068Y006868D02*
X019071Y006871D01*
X019069Y005868D02*
X019069Y005858D01*
X019066Y005858D02*
X019073Y005858D01*
X019075Y005860D02*
X019077Y005858D01*
X019080Y005858D01*
X019082Y005860D01*
X019082Y005863D01*
X019080Y005865D01*
X019078Y005865D01*
X019075Y005863D01*
X019075Y005868D01*
X019082Y005868D01*
X019091Y005868D02*
X019084Y005858D01*
X019094Y005858D02*
X019100Y005858D01*
X019097Y005858D02*
X019097Y005868D01*
X019094Y005865D01*
X019104Y005860D02*
X019104Y005858D01*
X019106Y005858D01*
X019106Y005860D01*
X019104Y005860D01*
X019106Y005858D02*
X019103Y005855D01*
X019109Y005860D02*
X019116Y005867D01*
X019116Y005860D01*
X019114Y005858D01*
X019111Y005858D01*
X019109Y005860D01*
X019109Y005867D01*
X019111Y005868D01*
X019114Y005868D01*
X019116Y005867D01*
X019069Y005868D02*
X019066Y005865D01*
X019063Y005860D02*
X019061Y005860D01*
X019061Y005858D01*
X019063Y005858D01*
X019063Y005860D01*
X019063Y005858D02*
X019060Y005855D01*
X019057Y005858D02*
X019051Y005858D01*
X019057Y005865D01*
X019057Y005867D01*
X019056Y005868D01*
X019052Y005868D01*
X019051Y005867D01*
X019048Y005867D02*
X019046Y005868D01*
X019041Y005868D01*
X019041Y005858D01*
X019046Y005858D01*
X019048Y005860D01*
X019048Y005867D01*
X019039Y005865D02*
X019039Y005858D01*
X019039Y005863D02*
X019032Y005863D01*
X019032Y005865D02*
X019036Y005868D01*
X019039Y005865D01*
X019032Y005865D02*
X019032Y005858D01*
X019028Y005862D02*
X019023Y005862D01*
X019023Y005858D02*
X019023Y005868D01*
X019028Y005868D01*
X019030Y005867D01*
X019030Y005863D01*
X019028Y005862D01*
X019020Y005858D02*
X019014Y005858D01*
X019014Y005868D01*
X019020Y005868D01*
X019017Y005863D02*
X019014Y005863D01*
X019011Y005863D02*
X019010Y005862D01*
X019005Y005862D01*
X019008Y005862D02*
X019011Y005858D01*
X019011Y005863D02*
X019011Y005867D01*
X019010Y005868D01*
X019005Y005868D01*
X019005Y005858D01*
X019002Y005858D02*
X018998Y005858D01*
X019000Y005858D02*
X019000Y005868D01*
X018998Y005868D02*
X019002Y005868D01*
X018996Y005868D02*
X018996Y005858D01*
X018993Y005862D01*
X018989Y005858D01*
X018989Y005868D01*
X018991Y004869D02*
X018991Y004859D01*
X018995Y004863D01*
X018998Y004859D01*
X018998Y004869D01*
X019001Y004869D02*
X019004Y004869D01*
X019002Y004869D02*
X019002Y004859D01*
X019001Y004859D02*
X019004Y004859D01*
X019007Y004859D02*
X019007Y004869D01*
X019012Y004869D01*
X019013Y004868D01*
X019013Y004864D01*
X019012Y004863D01*
X019007Y004863D01*
X019010Y004863D02*
X019013Y004859D01*
X019016Y004859D02*
X019023Y004859D01*
X019025Y004859D02*
X019025Y004869D01*
X019030Y004869D01*
X019032Y004868D01*
X019032Y004864D01*
X019030Y004863D01*
X019025Y004863D01*
X019019Y004864D02*
X019016Y004864D01*
X019016Y004869D02*
X019016Y004859D01*
X019016Y004869D02*
X019023Y004869D01*
X019034Y004866D02*
X019038Y004869D01*
X019041Y004866D01*
X019041Y004859D01*
X019044Y004859D02*
X019049Y004859D01*
X019050Y004861D01*
X019050Y004868D01*
X019049Y004869D01*
X019044Y004869D01*
X019044Y004859D01*
X019041Y004864D02*
X019034Y004864D01*
X019034Y004866D02*
X019034Y004859D01*
X019053Y004859D02*
X019059Y004866D01*
X019059Y004868D01*
X019058Y004869D01*
X019054Y004869D01*
X019053Y004868D01*
X019053Y004859D02*
X019059Y004859D01*
X019062Y004856D02*
X019065Y004859D01*
X019064Y004859D01*
X019064Y004861D01*
X019065Y004861D01*
X019065Y004859D01*
X019068Y004859D02*
X019075Y004859D01*
X019077Y004861D02*
X019079Y004859D01*
X019082Y004859D01*
X019084Y004861D01*
X019084Y004864D01*
X019082Y004866D01*
X019081Y004866D01*
X019077Y004864D01*
X019077Y004869D01*
X019084Y004869D01*
X019093Y004869D02*
X019087Y004859D01*
X019096Y004859D02*
X019102Y004859D01*
X019099Y004859D02*
X019099Y004869D01*
X019096Y004866D01*
X019107Y004861D02*
X019107Y004859D01*
X019108Y004859D01*
X019108Y004861D01*
X019107Y004861D01*
X019108Y004859D02*
X019105Y004856D01*
X019111Y004861D02*
X019118Y004868D01*
X019118Y004861D01*
X019116Y004859D01*
X019113Y004859D01*
X019111Y004861D01*
X019111Y004868D01*
X019113Y004869D01*
X019116Y004869D01*
X019118Y004868D01*
X019072Y004869D02*
X019072Y004859D01*
X019068Y004866D02*
X019072Y004869D01*
X019070Y004068D02*
X019070Y004058D01*
X019073Y004058D02*
X019066Y004058D01*
X019063Y004058D02*
X019062Y004058D01*
X019062Y004059D01*
X019063Y004059D01*
X019063Y004058D01*
X019060Y004054D01*
X019058Y004058D02*
X019051Y004058D01*
X019058Y004064D01*
X019058Y004066D01*
X019056Y004068D01*
X019053Y004068D01*
X019051Y004066D01*
X019048Y004066D02*
X019047Y004068D01*
X019042Y004068D01*
X019042Y004058D01*
X019047Y004058D01*
X019048Y004059D01*
X019048Y004066D01*
X019039Y004064D02*
X019039Y004058D01*
X019039Y004063D02*
X019032Y004063D01*
X019032Y004064D02*
X019036Y004068D01*
X019039Y004064D01*
X019032Y004064D02*
X019032Y004058D01*
X019028Y004061D02*
X019023Y004061D01*
X019023Y004058D02*
X019023Y004068D01*
X019028Y004068D01*
X019030Y004066D01*
X019030Y004063D01*
X019028Y004061D01*
X019021Y004058D02*
X019014Y004058D01*
X019014Y004068D01*
X019021Y004068D01*
X019017Y004063D02*
X019014Y004063D01*
X019012Y004063D02*
X019010Y004061D01*
X019005Y004061D01*
X019008Y004061D02*
X019012Y004058D01*
X019012Y004063D02*
X019012Y004066D01*
X019010Y004068D01*
X019005Y004068D01*
X019005Y004058D01*
X019002Y004058D02*
X018999Y004058D01*
X019000Y004058D02*
X019000Y004068D01*
X018999Y004068D02*
X019002Y004068D01*
X018996Y004068D02*
X018996Y004058D01*
X018993Y004061D01*
X018989Y004058D01*
X018989Y004068D01*
X019066Y004064D02*
X019070Y004068D01*
X019075Y004068D02*
X019075Y004063D01*
X019079Y004064D01*
X019080Y004064D01*
X019082Y004063D01*
X019082Y004059D01*
X019080Y004058D01*
X019077Y004058D01*
X019075Y004059D01*
X019075Y004068D02*
X019082Y004068D01*
X019091Y004068D02*
X019085Y004058D01*
X019094Y004058D02*
X019101Y004058D01*
X019105Y004058D02*
X019106Y004058D01*
X019106Y004059D01*
X019105Y004059D01*
X019105Y004058D01*
X019106Y004058D02*
X019103Y004054D01*
X019097Y004058D02*
X019097Y004068D01*
X019094Y004064D01*
X019109Y004066D02*
X019111Y004068D01*
X019114Y004068D01*
X019116Y004066D01*
X019109Y004059D01*
X019111Y004058D01*
X019114Y004058D01*
X019116Y004059D01*
X019116Y004066D01*
X019109Y004066D02*
X019109Y004059D01*
X019112Y002870D02*
X019115Y002870D01*
X019117Y002868D01*
X019110Y002862D01*
X019112Y002860D01*
X019115Y002860D01*
X019117Y002862D01*
X019117Y002868D01*
X019112Y002870D02*
X019110Y002868D01*
X019110Y002862D01*
X019107Y002862D02*
X019106Y002862D01*
X019106Y002860D01*
X019107Y002860D01*
X019107Y002862D01*
X019107Y002860D02*
X019104Y002857D01*
X019101Y002860D02*
X019095Y002860D01*
X019098Y002860D02*
X019098Y002870D01*
X019095Y002867D01*
X019092Y002870D02*
X019086Y002860D01*
X019083Y002862D02*
X019081Y002860D01*
X019078Y002860D01*
X019076Y002862D01*
X019076Y002865D02*
X019080Y002867D01*
X019081Y002867D01*
X019083Y002865D01*
X019083Y002862D01*
X019076Y002865D02*
X019076Y002870D01*
X019083Y002870D01*
X019070Y002870D02*
X019070Y002860D01*
X019067Y002860D02*
X019074Y002860D01*
X019067Y002867D02*
X019070Y002870D01*
X019064Y002862D02*
X019063Y002862D01*
X019063Y002860D01*
X019064Y002860D01*
X019064Y002862D01*
X019064Y002860D02*
X019061Y002857D01*
X019058Y002860D02*
X019052Y002860D01*
X019058Y002867D01*
X019058Y002868D01*
X019057Y002870D01*
X019053Y002870D01*
X019052Y002868D01*
X019049Y002868D02*
X019048Y002870D01*
X019043Y002870D01*
X019043Y002860D01*
X019048Y002860D01*
X019049Y002862D01*
X019049Y002868D01*
X019040Y002867D02*
X019040Y002860D01*
X019040Y002865D02*
X019033Y002865D01*
X019033Y002867D02*
X019033Y002860D01*
X019029Y002863D02*
X019024Y002863D01*
X019024Y002860D02*
X019024Y002870D01*
X019029Y002870D01*
X019031Y002868D01*
X019031Y002865D01*
X019029Y002863D01*
X019033Y002867D02*
X019037Y002870D01*
X019040Y002867D01*
X019022Y002870D02*
X019015Y002870D01*
X019015Y002860D01*
X019022Y002860D01*
X019018Y002865D02*
X019015Y002865D01*
X019012Y002865D02*
X019011Y002863D01*
X019006Y002863D01*
X019006Y002860D02*
X019006Y002870D01*
X019011Y002870D01*
X019012Y002868D01*
X019012Y002865D01*
X019009Y002863D02*
X019012Y002860D01*
X019003Y002860D02*
X019000Y002860D01*
X019001Y002860D02*
X019001Y002870D01*
X019000Y002870D02*
X019003Y002870D01*
X018997Y002870D02*
X018997Y002860D01*
X018994Y002863D01*
X018990Y002860D01*
X018990Y002870D01*
X018990Y001870D02*
X018990Y001860D01*
X018994Y001863D01*
X018997Y001860D01*
X018997Y001870D01*
X019000Y001870D02*
X019003Y001870D01*
X019001Y001870D02*
X019001Y001860D01*
X019000Y001860D02*
X019003Y001860D01*
X019006Y001860D02*
X019006Y001870D01*
X019011Y001870D01*
X019012Y001868D01*
X019012Y001865D01*
X019011Y001863D01*
X019006Y001863D01*
X019009Y001863D02*
X019012Y001860D01*
X019015Y001860D02*
X019022Y001860D01*
X019024Y001860D02*
X019024Y001870D01*
X019029Y001870D01*
X019031Y001868D01*
X019031Y001865D01*
X019029Y001863D01*
X019024Y001863D01*
X019018Y001865D02*
X019015Y001865D01*
X019015Y001870D02*
X019015Y001860D01*
X019015Y001870D02*
X019022Y001870D01*
X019033Y001866D02*
X019037Y001870D01*
X019040Y001866D01*
X019040Y001860D01*
X019043Y001860D02*
X019048Y001860D01*
X019049Y001861D01*
X019049Y001868D01*
X019048Y001870D01*
X019043Y001870D01*
X019043Y001860D01*
X019040Y001865D02*
X019033Y001865D01*
X019033Y001866D02*
X019033Y001860D01*
X019052Y001860D02*
X019059Y001866D01*
X019059Y001868D01*
X019057Y001870D01*
X019054Y001870D01*
X019052Y001868D01*
X019052Y001860D02*
X019059Y001860D01*
X019063Y001860D02*
X019064Y001860D01*
X019064Y001861D01*
X019063Y001861D01*
X019063Y001860D01*
X019064Y001860D02*
X019061Y001856D01*
X019067Y001860D02*
X019074Y001860D01*
X019076Y001861D02*
X019078Y001860D01*
X019081Y001860D01*
X019083Y001861D01*
X019083Y001865D01*
X019081Y001866D01*
X019080Y001866D01*
X019076Y001865D01*
X019076Y001870D01*
X019083Y001870D01*
X019092Y001870D02*
X019086Y001860D01*
X019095Y001860D02*
X019101Y001860D01*
X019098Y001860D02*
X019098Y001870D01*
X019095Y001866D01*
X019106Y001861D02*
X019106Y001860D01*
X019107Y001860D01*
X019107Y001861D01*
X019106Y001861D01*
X019107Y001860D02*
X019104Y001856D01*
X019110Y001861D02*
X019117Y001868D01*
X019117Y001861D01*
X019115Y001860D01*
X019112Y001860D01*
X019110Y001861D01*
X019110Y001868D01*
X019112Y001870D01*
X019115Y001870D01*
X019117Y001868D01*
X019071Y001870D02*
X019071Y001860D01*
X019067Y001866D02*
X019071Y001870D01*
D11*
X019178Y013898D02*
X019178Y014269D01*
X019300Y014269D02*
X019485Y014269D01*
X019547Y014207D01*
X019547Y013960D01*
X019485Y013898D01*
X019300Y013898D01*
X019300Y014269D01*
X018931Y014269D02*
X019178Y013898D01*
X018931Y013898D02*
X018931Y014269D01*
X018810Y014207D02*
X018748Y014269D01*
X018625Y014269D01*
X018563Y014207D01*
X018563Y013960D01*
X018625Y013898D01*
X018748Y013898D01*
X018810Y013960D01*
X018810Y014083D01*
X018686Y014083D01*
X018378Y014083D02*
X018193Y014083D01*
X018131Y014145D01*
X018131Y014207D01*
X018193Y014269D01*
X018316Y014269D01*
X018378Y014207D01*
X018378Y013960D01*
X018316Y013898D01*
X018193Y013898D01*
X018131Y013960D01*
X018010Y014083D02*
X017763Y014083D01*
X017886Y013960D02*
X017886Y014207D01*
D12*
X015996Y007377D02*
X015842Y007377D01*
X015766Y007300D01*
X015919Y007147D02*
X015996Y007147D01*
X016073Y007070D01*
X016073Y006993D01*
X015996Y006917D01*
X015842Y006917D01*
X015766Y006993D01*
X015996Y007147D02*
X016073Y007224D01*
X016073Y007300D01*
X015996Y007377D01*
X017061Y006235D02*
X017214Y006082D01*
X017214Y005775D01*
X017214Y006005D02*
X016907Y006005D01*
X016907Y006082D02*
X017061Y006235D01*
X016907Y006082D02*
X016907Y005775D01*
X016907Y004149D02*
X017138Y004149D01*
X017214Y004072D01*
X017214Y003995D01*
X017138Y003919D01*
X016907Y003919D01*
X016907Y004149D02*
X016907Y003688D01*
X017138Y003688D01*
X017214Y003765D01*
X017214Y003842D01*
X017138Y003919D01*
X017019Y003086D02*
X016865Y003086D01*
X016788Y003009D01*
X016635Y003009D02*
X016635Y002702D01*
X016558Y002625D01*
X016405Y002625D01*
X016328Y002702D01*
X016635Y003009D01*
X016558Y003086D01*
X016405Y003086D01*
X016328Y003009D01*
X016328Y002702D01*
X016175Y002702D02*
X016098Y002625D01*
X015944Y002625D01*
X015868Y002702D01*
X015714Y002702D02*
X015637Y002625D01*
X015484Y002625D01*
X015407Y002702D01*
X015714Y003009D01*
X015714Y002702D01*
X015714Y003009D02*
X015637Y003086D01*
X015484Y003086D01*
X015407Y003009D01*
X015407Y002702D01*
X015254Y002856D02*
X014947Y002856D01*
X014793Y003086D02*
X014486Y003086D01*
X014486Y002625D01*
X014333Y002702D02*
X014256Y002625D01*
X014103Y002625D01*
X014026Y002702D01*
X014333Y003009D01*
X014333Y002702D01*
X014486Y002856D02*
X014640Y002856D01*
X014333Y003009D02*
X014256Y003086D01*
X014103Y003086D01*
X014026Y003009D01*
X014026Y002702D01*
X013873Y002625D02*
X013566Y002625D01*
X013719Y002625D02*
X013719Y003086D01*
X013566Y002932D01*
X013412Y003009D02*
X013412Y002702D01*
X013335Y002625D01*
X013182Y002625D01*
X013105Y002702D01*
X013412Y003009D01*
X013335Y003086D01*
X013182Y003086D01*
X013105Y003009D01*
X013105Y002702D01*
X012952Y003009D02*
X012645Y002702D01*
X012645Y002625D01*
X012491Y002625D02*
X012184Y002625D01*
X012338Y002625D02*
X012338Y003086D01*
X012184Y002932D01*
X012031Y003086D02*
X011724Y003086D01*
X011724Y002625D01*
X011571Y002702D02*
X011494Y002625D01*
X011340Y002625D01*
X011264Y002702D01*
X011340Y002856D02*
X011264Y002932D01*
X011264Y003009D01*
X011340Y003086D01*
X011494Y003086D01*
X011571Y003009D01*
X011494Y002856D02*
X011340Y002856D01*
X011494Y002856D02*
X011571Y002779D01*
X011571Y002702D01*
X011724Y002856D02*
X011878Y002856D01*
X012645Y003086D02*
X012952Y003086D01*
X012952Y003009D01*
X012892Y004791D02*
X012892Y005098D01*
X013045Y005251D01*
X013199Y005098D01*
X013199Y004791D01*
X013352Y004791D02*
X013659Y004791D01*
X013812Y004791D02*
X013812Y005251D01*
X014043Y005251D01*
X014119Y005174D01*
X014119Y005021D01*
X014043Y004944D01*
X013812Y004944D01*
X014273Y005021D02*
X014580Y005021D01*
X014733Y005021D02*
X015040Y005021D01*
X015040Y005098D02*
X015040Y004791D01*
X015040Y005098D02*
X014887Y005251D01*
X014733Y005098D01*
X014733Y004791D01*
X014580Y004791D02*
X014580Y005251D01*
X014273Y005251D02*
X014273Y004791D01*
X013352Y004791D02*
X013352Y005251D01*
X013199Y005021D02*
X012892Y005021D01*
X012293Y006917D02*
X011986Y006917D01*
X012140Y006917D02*
X012140Y007377D01*
X011986Y007224D01*
X013876Y007300D02*
X013953Y007377D01*
X014106Y007377D01*
X014183Y007300D01*
X014183Y007224D01*
X013876Y006917D01*
X014183Y006917D01*
X010778Y009303D02*
X010778Y009490D01*
X010778Y009397D02*
X010498Y009397D01*
X010591Y009303D01*
X010498Y009598D02*
X010778Y009785D01*
X010498Y009785D01*
X010638Y009893D02*
X010638Y010079D01*
X010591Y010187D02*
X010498Y010281D01*
X010778Y010281D01*
X010778Y010374D02*
X010778Y010187D01*
X010778Y010033D02*
X010498Y010033D01*
X010638Y009893D01*
X010778Y009598D02*
X010498Y009598D01*
X010638Y010482D02*
X010638Y010669D01*
X010685Y010777D02*
X010638Y010823D01*
X010638Y010917D01*
X010685Y010963D01*
X010731Y010963D01*
X010778Y010917D01*
X010778Y010823D01*
X010731Y010777D01*
X010685Y010777D01*
X010638Y010823D02*
X010591Y010777D01*
X010544Y010777D01*
X010498Y010823D01*
X010498Y010917D01*
X010544Y010963D01*
X010591Y010963D01*
X010638Y010917D01*
X010638Y011071D02*
X010638Y011258D01*
X010731Y011366D02*
X010778Y011413D01*
X010778Y011506D01*
X010731Y011553D01*
X010685Y011553D01*
X010638Y011506D01*
X010638Y011459D01*
X010638Y011506D02*
X010591Y011553D01*
X010544Y011553D01*
X010498Y011506D01*
X010498Y011413D01*
X010544Y011366D01*
X010498Y010622D02*
X010638Y010482D01*
X010778Y010622D02*
X010498Y010622D01*
X015944Y003086D02*
X016098Y003086D01*
X016175Y003009D01*
X016175Y002932D01*
X016098Y002856D01*
X016175Y002779D01*
X016175Y002702D01*
X016098Y002856D02*
X016021Y002856D01*
X015868Y003009D02*
X015944Y003086D01*
X016788Y002625D02*
X017095Y002932D01*
X017095Y003009D01*
X017019Y003086D01*
X017095Y002625D02*
X016788Y002625D01*
X016984Y002062D02*
X016907Y001985D01*
X016907Y001678D01*
X016984Y001602D01*
X017138Y001602D01*
X017214Y001678D01*
X017214Y001985D02*
X017138Y002062D01*
X016984Y002062D01*
D13*
X017399Y000125D02*
X017399Y007842D01*
X010706Y007842D01*
X010706Y000125D01*
X017399Y000125D01*
X010573Y005558D02*
X010339Y005792D01*
X010281Y005792D01*
X010223Y005733D01*
X010223Y005617D01*
X010281Y005558D01*
X010573Y005558D02*
X010573Y005792D01*
X010573Y005927D02*
X010223Y005927D01*
X010573Y006160D01*
X010223Y006160D01*
X010281Y006295D02*
X010223Y006353D01*
X010223Y006470D01*
X010281Y006528D01*
X010339Y006528D01*
X010398Y006470D01*
X010456Y006528D01*
X010515Y006528D01*
X010573Y006470D01*
X010573Y006353D01*
X010515Y006295D01*
X010398Y006412D02*
X010398Y006470D01*
X010339Y006663D02*
X010398Y006722D01*
X010398Y006897D01*
X010515Y006897D02*
X010281Y006897D01*
X010223Y006838D01*
X010223Y006722D01*
X010281Y006663D01*
X010339Y006663D01*
X010515Y006663D02*
X010573Y006722D01*
X010573Y006838D01*
X010515Y006897D01*
X010515Y007032D02*
X010281Y007032D01*
X010223Y007090D01*
X010223Y007207D01*
X010281Y007265D01*
X010515Y007032D01*
X010573Y007090D01*
X010573Y007207D01*
X010515Y007265D01*
X010281Y007265D01*
X010398Y007400D02*
X010398Y007633D01*
X010573Y007575D02*
X010223Y007575D01*
X010398Y007400D01*
X009323Y007197D02*
X009323Y006963D01*
X009323Y007080D02*
X008973Y007080D01*
X009089Y006963D01*
X008973Y006828D02*
X009323Y006828D01*
X008973Y006595D01*
X009323Y006595D01*
X009148Y006460D02*
X009206Y006402D01*
X009206Y006227D01*
X009323Y006227D02*
X008973Y006227D01*
X008973Y006402D01*
X009031Y006460D01*
X009148Y006460D01*
X009323Y006092D02*
X008973Y006092D01*
X008973Y005858D02*
X009323Y006092D01*
X009323Y005858D02*
X008973Y005858D01*
X007912Y006611D02*
X007562Y006611D01*
X007562Y006786D01*
X007620Y006844D01*
X007737Y006844D01*
X007796Y006786D01*
X007796Y006611D01*
X007796Y006727D02*
X007912Y006844D01*
X007796Y006979D02*
X007912Y007096D01*
X007796Y007212D01*
X007562Y007212D01*
X007562Y006979D02*
X007796Y006979D01*
X007912Y007347D02*
X007562Y007581D01*
X007620Y007716D02*
X007562Y007774D01*
X007562Y007891D01*
X007620Y007949D01*
X007679Y007949D01*
X007912Y007716D01*
X007912Y007949D01*
X007912Y008084D02*
X007679Y008084D01*
X007562Y008201D01*
X007679Y008317D01*
X007912Y008317D01*
X007737Y008317D02*
X007737Y008084D01*
X006812Y008043D02*
X006812Y008218D01*
X006754Y008276D01*
X006696Y008276D01*
X006637Y008218D01*
X006637Y008043D01*
X006579Y007908D02*
X006520Y007908D01*
X006462Y007849D01*
X006462Y007733D01*
X006520Y007674D01*
X006462Y007540D02*
X006812Y007306D01*
X006696Y007171D02*
X006462Y007171D01*
X006696Y007171D02*
X006812Y007054D01*
X006696Y006938D01*
X006462Y006938D01*
X006520Y006803D02*
X006637Y006803D01*
X006696Y006745D01*
X006696Y006569D01*
X006812Y006569D02*
X006462Y006569D01*
X006462Y006745D01*
X006520Y006803D01*
X006696Y006686D02*
X006812Y006803D01*
X006812Y007674D02*
X006579Y007908D01*
X006462Y008043D02*
X006462Y008218D01*
X006520Y008276D01*
X006579Y008276D01*
X006637Y008218D01*
X006812Y008043D02*
X006462Y008043D01*
X006812Y007908D02*
X006812Y007674D01*
X004885Y007658D02*
X004885Y007717D01*
X004826Y007775D01*
X004710Y007775D01*
X004651Y007717D01*
X004517Y007775D02*
X004517Y007541D01*
X004400Y007425D01*
X004283Y007541D01*
X004283Y007775D01*
X004148Y007775D02*
X004148Y007425D01*
X003915Y007775D01*
X003915Y007425D01*
X003786Y007425D02*
X003669Y007425D01*
X003728Y007425D02*
X003728Y007775D01*
X003786Y007775D02*
X003669Y007775D01*
X003534Y007717D02*
X003476Y007775D01*
X003359Y007775D01*
X003301Y007717D01*
X003301Y007483D01*
X003359Y007425D01*
X003476Y007425D01*
X003534Y007483D01*
X002754Y007598D02*
X002754Y007656D01*
X002696Y007715D01*
X002579Y007715D01*
X002520Y007656D01*
X002386Y007656D02*
X002386Y007598D01*
X002327Y007540D01*
X002152Y007540D01*
X002152Y007715D02*
X002152Y007364D01*
X002327Y007364D01*
X002386Y007423D01*
X002386Y007481D01*
X002327Y007540D01*
X002386Y007656D02*
X002327Y007715D01*
X002152Y007715D01*
X002017Y007715D02*
X002017Y007423D01*
X001959Y007364D01*
X001842Y007364D01*
X001784Y007423D01*
X001784Y007715D01*
X001649Y007656D02*
X001591Y007715D01*
X001415Y007715D01*
X001415Y007364D01*
X001591Y007364D01*
X001649Y007423D01*
X001649Y007656D01*
X001281Y007656D02*
X001222Y007715D01*
X001106Y007715D01*
X001047Y007656D01*
X001047Y007423D01*
X001106Y007364D01*
X001222Y007364D01*
X001281Y007423D01*
X002520Y007364D02*
X002754Y007598D01*
X002754Y007364D02*
X002520Y007364D01*
X002656Y005309D02*
X002581Y005234D01*
X002581Y004933D01*
X002882Y005234D01*
X002882Y004933D01*
X002807Y004858D01*
X002656Y004858D01*
X002581Y004933D01*
X002421Y004858D02*
X002121Y004858D01*
X002271Y004858D02*
X002271Y005309D01*
X002121Y005159D01*
X001961Y005234D02*
X001886Y005309D01*
X001736Y005309D01*
X001661Y005234D01*
X001661Y004933D01*
X001736Y004858D01*
X001886Y004858D01*
X001961Y004933D01*
X001501Y005309D02*
X001200Y005309D01*
X001350Y005309D02*
X001350Y004858D01*
X002656Y005309D02*
X002807Y005309D01*
X002882Y005234D01*
X003042Y005083D02*
X003342Y005083D01*
X003502Y005083D02*
X003802Y005083D01*
X003963Y005159D02*
X004038Y005083D01*
X004188Y005083D01*
X004263Y005008D01*
X004263Y004933D01*
X004188Y004858D01*
X004038Y004858D01*
X003963Y004933D01*
X003963Y005159D02*
X003963Y005234D01*
X004038Y005309D01*
X004188Y005309D01*
X004263Y005234D01*
X003727Y005309D02*
X003727Y004858D01*
X003502Y005083D02*
X003727Y005309D01*
X003267Y005309D02*
X003267Y004858D01*
X003042Y005083D02*
X003267Y005309D01*
X004651Y007425D02*
X004885Y007658D01*
X004885Y007425D02*
X004651Y007425D01*
X003822Y009587D02*
X003588Y009587D01*
X003705Y009587D02*
X003705Y009937D01*
X003588Y009820D01*
X003454Y009820D02*
X003395Y009762D01*
X003220Y009762D01*
X003220Y009587D02*
X003220Y009937D01*
X003395Y009937D01*
X003454Y009878D01*
X003454Y009820D01*
X003395Y009762D02*
X003454Y009703D01*
X003454Y009645D01*
X003395Y009587D01*
X003220Y009587D01*
X003085Y009645D02*
X003027Y009587D01*
X002910Y009587D01*
X002852Y009645D01*
X002852Y009937D01*
X002717Y009878D02*
X002717Y009645D01*
X002659Y009587D01*
X002483Y009587D01*
X002483Y009937D01*
X002659Y009937D01*
X002717Y009878D01*
X002349Y009878D02*
X002349Y009645D01*
X002290Y009587D01*
X002115Y009587D01*
X002115Y009937D01*
X002290Y009937D01*
X002349Y009878D01*
X003085Y009937D02*
X003085Y009645D01*
X003092Y010829D02*
X002916Y010829D01*
X002916Y011179D01*
X003092Y011179D01*
X003150Y011120D01*
X003150Y011062D01*
X003092Y011004D01*
X002916Y011004D01*
X003092Y011004D02*
X003150Y010945D01*
X003150Y010887D01*
X003092Y010829D01*
X003285Y010829D02*
X003518Y011062D01*
X003518Y011120D01*
X003460Y011179D01*
X003343Y011179D01*
X003285Y011120D01*
X003285Y010829D02*
X003518Y010829D01*
X002782Y010887D02*
X002723Y010829D01*
X002606Y010829D01*
X002548Y010887D01*
X002548Y011179D01*
X002413Y011120D02*
X002413Y010887D01*
X002355Y010829D01*
X002180Y010829D01*
X002180Y011179D01*
X002355Y011179D01*
X002413Y011120D01*
X002045Y011120D02*
X002045Y010887D01*
X001987Y010829D01*
X001811Y010829D01*
X001811Y011179D01*
X001987Y011179D01*
X002045Y011120D01*
X002782Y011179D02*
X002782Y010887D01*
X003119Y011678D02*
X003119Y011978D01*
X003044Y012138D02*
X002969Y012138D01*
X002894Y012213D01*
X002894Y012363D01*
X002969Y012438D01*
X003269Y012438D01*
X003344Y012363D01*
X003344Y012213D01*
X003269Y012138D01*
X003119Y012213D02*
X003119Y012438D01*
X003119Y012213D02*
X003044Y012138D01*
X003175Y012690D02*
X002875Y012690D01*
X002800Y012765D01*
X002800Y012916D01*
X002875Y012991D01*
X003025Y012991D02*
X003025Y012841D01*
X003025Y012991D02*
X003175Y012991D01*
X003250Y012916D01*
X003250Y012765D01*
X003175Y012690D01*
X003175Y013151D02*
X003100Y013151D01*
X003025Y013226D01*
X003025Y013376D01*
X003100Y013451D01*
X003175Y013451D01*
X003250Y013376D01*
X003250Y013226D01*
X003175Y013151D01*
X003025Y013226D02*
X002950Y013151D01*
X002875Y013151D01*
X002800Y013226D01*
X002800Y013376D01*
X002875Y013451D01*
X002950Y013451D01*
X003025Y013376D01*
X002953Y013689D02*
X003028Y013764D01*
X003028Y013989D01*
X003178Y013989D02*
X002878Y013989D01*
X002803Y013914D01*
X002803Y013764D01*
X002878Y013689D01*
X002953Y013689D01*
X003178Y013689D02*
X003253Y013764D01*
X003253Y013914D01*
X003178Y013989D01*
X003253Y014149D02*
X003253Y014300D01*
X003253Y014224D02*
X002803Y014224D01*
X002803Y014149D02*
X002803Y014300D01*
X002803Y014456D02*
X003253Y014757D01*
X002803Y014757D01*
X002878Y014917D02*
X002803Y014992D01*
X002803Y015142D01*
X002878Y015217D01*
X002953Y015217D01*
X003253Y014917D01*
X003253Y015217D01*
X003253Y014456D02*
X002803Y014456D01*
X000744Y014443D02*
X000294Y014443D01*
X000744Y014743D01*
X000294Y014743D01*
X000369Y014903D02*
X000294Y014978D01*
X000294Y015128D01*
X000369Y015204D01*
X000444Y015204D01*
X000519Y015128D01*
X000594Y015204D01*
X000669Y015204D01*
X000744Y015128D01*
X000744Y014978D01*
X000669Y014903D01*
X000519Y015053D02*
X000519Y015128D01*
X000744Y014286D02*
X000744Y014136D01*
X000744Y014211D02*
X000294Y014211D01*
X000294Y014136D02*
X000294Y014286D01*
X000369Y013976D02*
X000294Y013901D01*
X000294Y013751D01*
X000369Y013676D01*
X000444Y013676D01*
X000519Y013751D01*
X000519Y013976D01*
X000669Y013976D02*
X000744Y013901D01*
X000744Y013751D01*
X000669Y013676D01*
X000667Y013434D02*
X000366Y013434D01*
X000291Y013359D01*
X000291Y013209D01*
X000366Y013134D01*
X000441Y013134D01*
X000516Y013209D01*
X000516Y013434D01*
X000667Y013434D02*
X000742Y013359D01*
X000742Y013209D01*
X000667Y013134D01*
X000667Y012974D02*
X000516Y012974D01*
X000516Y012824D01*
X000366Y012974D02*
X000291Y012899D01*
X000291Y012749D01*
X000366Y012674D01*
X000667Y012674D01*
X000742Y012749D01*
X000742Y012899D01*
X000667Y012974D01*
X000646Y012482D02*
X000571Y012407D01*
X000571Y012257D01*
X000496Y012182D01*
X000421Y012182D01*
X000346Y012257D01*
X000346Y012407D01*
X000421Y012482D01*
X000496Y012482D01*
X000571Y012407D01*
X000646Y012482D02*
X000721Y012482D01*
X000796Y012407D01*
X000796Y012257D01*
X000721Y012182D01*
X000646Y012182D01*
X000571Y012257D01*
X000796Y012022D02*
X000796Y011722D01*
X000796Y011872D02*
X000346Y011872D01*
X000496Y011722D01*
X000369Y013976D02*
X000669Y013976D01*
X010045Y013550D02*
X010103Y013609D01*
X010220Y013609D01*
X010278Y013550D01*
X010278Y013492D01*
X010045Y013258D01*
X010278Y013258D01*
X010413Y013258D02*
X010413Y013609D01*
X010647Y013258D01*
X010647Y013609D01*
X010781Y013550D02*
X010840Y013609D01*
X010957Y013609D01*
X011015Y013550D01*
X011015Y013492D01*
X010957Y013433D01*
X011015Y013375D01*
X011015Y013317D01*
X010957Y013258D01*
X010840Y013258D01*
X010781Y013317D01*
X010898Y013433D02*
X010957Y013433D01*
X011150Y013492D02*
X011150Y013550D01*
X011208Y013609D01*
X011325Y013609D01*
X011383Y013550D01*
X011383Y013317D01*
X011325Y013258D01*
X011208Y013258D01*
X011150Y013317D01*
X011208Y013433D02*
X011383Y013433D01*
X011208Y013433D02*
X011150Y013492D01*
X011518Y013550D02*
X011518Y013317D01*
X011752Y013550D01*
X011752Y013317D01*
X011693Y013258D01*
X011576Y013258D01*
X011518Y013317D01*
X011518Y013550D02*
X011576Y013609D01*
X011693Y013609D01*
X011752Y013550D01*
X011886Y013433D02*
X012062Y013433D01*
X012120Y013375D01*
X012120Y013317D01*
X012062Y013258D01*
X011945Y013258D01*
X011886Y013317D01*
X011886Y013433D01*
X012003Y013550D01*
X012120Y013609D01*
X012255Y013433D02*
X012488Y013433D01*
X011871Y012359D02*
X011871Y012008D01*
X011755Y012008D02*
X011988Y012008D01*
X011755Y012242D02*
X011871Y012359D01*
X011620Y012300D02*
X011620Y012183D01*
X011562Y012125D01*
X011386Y012125D01*
X011386Y012008D02*
X011386Y012359D01*
X011562Y012359D01*
X011620Y012300D01*
X011252Y012359D02*
X011252Y012008D01*
X011018Y012359D01*
X011018Y012008D01*
X010883Y012183D02*
X010825Y012125D01*
X010650Y012125D01*
X010650Y012008D02*
X010650Y012359D01*
X010825Y012359D01*
X010883Y012300D01*
X010883Y012183D01*
X016275Y013126D02*
X016333Y013068D01*
X016450Y013068D01*
X016509Y013126D01*
X016643Y013068D02*
X016760Y013068D01*
X016702Y013068D02*
X016702Y013418D01*
X016760Y013418D02*
X016643Y013418D01*
X016509Y013360D02*
X016450Y013418D01*
X016333Y013418D01*
X016275Y013360D01*
X016275Y013126D01*
X016889Y013068D02*
X016889Y013418D01*
X017122Y013068D01*
X017122Y013418D01*
X017257Y013360D02*
X017316Y013418D01*
X017432Y013418D01*
X017491Y013360D01*
X017491Y013301D01*
X017257Y013068D01*
X017491Y013068D01*
X008320Y002467D02*
X008170Y002392D01*
X008020Y002242D01*
X008245Y002242D01*
X008320Y002167D01*
X008320Y002091D01*
X008245Y002016D01*
X008095Y002016D01*
X008020Y002091D01*
X008020Y002242D01*
X007860Y002242D02*
X007710Y002242D01*
X007860Y002242D02*
X007860Y002091D01*
X007785Y002016D01*
X007635Y002016D01*
X007560Y002091D01*
X007560Y002392D01*
X007635Y002467D01*
X007785Y002467D01*
X007860Y002392D01*
X004825Y001199D02*
X004592Y001199D01*
X004709Y001199D02*
X004709Y001549D01*
X004592Y001433D01*
X004457Y001549D02*
X004457Y001316D01*
X004340Y001199D01*
X004223Y001316D01*
X004223Y001549D01*
X004089Y001549D02*
X004089Y001199D01*
X003855Y001549D01*
X003855Y001199D01*
X003726Y001199D02*
X003610Y001199D01*
X003668Y001199D02*
X003668Y001549D01*
X003610Y001549D02*
X003726Y001549D01*
X003475Y001491D02*
X003416Y001549D01*
X003300Y001549D01*
X003241Y001491D01*
X003241Y001257D01*
X003300Y001199D01*
X003416Y001199D01*
X003475Y001257D01*
X002766Y001132D02*
X002532Y001132D01*
X002649Y001132D02*
X002649Y001482D01*
X002532Y001365D01*
X002398Y001365D02*
X002339Y001307D01*
X002164Y001307D01*
X002164Y001132D02*
X002164Y001482D01*
X002339Y001482D01*
X002398Y001424D01*
X002398Y001365D01*
X002339Y001307D02*
X002398Y001248D01*
X002398Y001190D01*
X002339Y001132D01*
X002164Y001132D01*
X002029Y001190D02*
X002029Y001482D01*
X001796Y001482D02*
X001796Y001190D01*
X001854Y001132D01*
X001971Y001132D01*
X002029Y001190D01*
X001661Y001190D02*
X001661Y001424D01*
X001603Y001482D01*
X001427Y001482D01*
X001427Y001132D01*
X001603Y001132D01*
X001661Y001190D01*
X001293Y001190D02*
X001234Y001132D01*
X001117Y001132D01*
X001059Y001190D01*
X001059Y001424D01*
X001117Y001482D01*
X001234Y001482D01*
X001293Y001424D01*
X001418Y002335D02*
X001651Y002335D01*
X001535Y002335D02*
X001535Y002685D01*
X001418Y002568D01*
X001786Y002627D02*
X001786Y002393D01*
X002020Y002627D01*
X002020Y002393D01*
X001961Y002335D01*
X001845Y002335D01*
X001786Y002393D01*
X001786Y002627D02*
X001845Y002685D01*
X001961Y002685D01*
X002020Y002627D01*
X002155Y002568D02*
X002155Y002393D01*
X002213Y002335D01*
X002388Y002335D01*
X002388Y002568D01*
X003519Y002556D02*
X003635Y002673D01*
X003635Y002322D01*
X003519Y002322D02*
X003752Y002322D01*
X003887Y002381D02*
X003887Y002614D01*
X003945Y002673D01*
X004062Y002673D01*
X004121Y002614D01*
X003887Y002381D01*
X003945Y002322D01*
X004062Y002322D01*
X004121Y002381D01*
X004121Y002614D01*
X004255Y002556D02*
X004255Y002381D01*
X004314Y002322D01*
X004489Y002322D01*
X004489Y002556D01*
D14*
X002963Y001927D02*
X002965Y001989D01*
X002971Y002052D01*
X002981Y002113D01*
X002995Y002174D01*
X003012Y002234D01*
X003033Y002293D01*
X003059Y002350D01*
X003087Y002405D01*
X003119Y002459D01*
X003155Y002510D01*
X003193Y002560D01*
X003235Y002606D01*
X003279Y002650D01*
X003327Y002691D01*
X003376Y002729D01*
X003428Y002763D01*
X003482Y002794D01*
X003538Y002822D01*
X003596Y002846D01*
X003655Y002867D01*
X003715Y002883D01*
X003776Y002896D01*
X003838Y002905D01*
X003900Y002910D01*
X003963Y002911D01*
X004025Y002908D01*
X004087Y002901D01*
X004149Y002890D01*
X004209Y002875D01*
X004269Y002857D01*
X004327Y002835D01*
X004384Y002809D01*
X004439Y002779D01*
X004492Y002746D01*
X004543Y002710D01*
X004591Y002671D01*
X004637Y002628D01*
X004680Y002583D01*
X004720Y002535D01*
X004757Y002485D01*
X004791Y002432D01*
X004822Y002378D01*
X004848Y002322D01*
X004872Y002264D01*
X004891Y002204D01*
X004907Y002144D01*
X004919Y002082D01*
X004927Y002021D01*
X004931Y001958D01*
X004931Y001896D01*
X004927Y001833D01*
X004919Y001772D01*
X004907Y001710D01*
X004891Y001650D01*
X004872Y001590D01*
X004848Y001532D01*
X004822Y001476D01*
X004791Y001422D01*
X004757Y001369D01*
X004720Y001319D01*
X004680Y001271D01*
X004637Y001226D01*
X004591Y001183D01*
X004543Y001144D01*
X004492Y001108D01*
X004439Y001075D01*
X004384Y001045D01*
X004327Y001019D01*
X004269Y000997D01*
X004209Y000979D01*
X004149Y000964D01*
X004087Y000953D01*
X004025Y000946D01*
X003963Y000943D01*
X003900Y000944D01*
X003838Y000949D01*
X003776Y000958D01*
X003715Y000971D01*
X003655Y000987D01*
X003596Y001008D01*
X003538Y001032D01*
X003482Y001060D01*
X003428Y001091D01*
X003376Y001125D01*
X003327Y001163D01*
X003279Y001204D01*
X003235Y001248D01*
X003193Y001294D01*
X003155Y001344D01*
X003119Y001395D01*
X003087Y001449D01*
X003059Y001504D01*
X003033Y001561D01*
X003012Y001620D01*
X002995Y001680D01*
X002981Y001741D01*
X002971Y001802D01*
X002965Y001865D01*
X002963Y001927D01*
X003497Y002337D02*
X003497Y002587D01*
X003627Y002467D02*
X003367Y002467D01*
X000968Y001930D02*
X000970Y001992D01*
X000976Y002055D01*
X000986Y002116D01*
X001000Y002177D01*
X001017Y002237D01*
X001038Y002296D01*
X001064Y002353D01*
X001092Y002408D01*
X001124Y002462D01*
X001160Y002513D01*
X001198Y002563D01*
X001240Y002609D01*
X001284Y002653D01*
X001332Y002694D01*
X001381Y002732D01*
X001433Y002766D01*
X001487Y002797D01*
X001543Y002825D01*
X001601Y002849D01*
X001660Y002870D01*
X001720Y002886D01*
X001781Y002899D01*
X001843Y002908D01*
X001905Y002913D01*
X001968Y002914D01*
X002030Y002911D01*
X002092Y002904D01*
X002154Y002893D01*
X002214Y002878D01*
X002274Y002860D01*
X002332Y002838D01*
X002389Y002812D01*
X002444Y002782D01*
X002497Y002749D01*
X002548Y002713D01*
X002596Y002674D01*
X002642Y002631D01*
X002685Y002586D01*
X002725Y002538D01*
X002762Y002488D01*
X002796Y002435D01*
X002827Y002381D01*
X002853Y002325D01*
X002877Y002267D01*
X002896Y002207D01*
X002912Y002147D01*
X002924Y002085D01*
X002932Y002024D01*
X002936Y001961D01*
X002936Y001899D01*
X002932Y001836D01*
X002924Y001775D01*
X002912Y001713D01*
X002896Y001653D01*
X002877Y001593D01*
X002853Y001535D01*
X002827Y001479D01*
X002796Y001425D01*
X002762Y001372D01*
X002725Y001322D01*
X002685Y001274D01*
X002642Y001229D01*
X002596Y001186D01*
X002548Y001147D01*
X002497Y001111D01*
X002444Y001078D01*
X002389Y001048D01*
X002332Y001022D01*
X002274Y001000D01*
X002214Y000982D01*
X002154Y000967D01*
X002092Y000956D01*
X002030Y000949D01*
X001968Y000946D01*
X001905Y000947D01*
X001843Y000952D01*
X001781Y000961D01*
X001720Y000974D01*
X001660Y000990D01*
X001601Y001011D01*
X001543Y001035D01*
X001487Y001063D01*
X001433Y001094D01*
X001381Y001128D01*
X001332Y001166D01*
X001284Y001207D01*
X001240Y001251D01*
X001198Y001297D01*
X001160Y001347D01*
X001124Y001398D01*
X001092Y001452D01*
X001064Y001507D01*
X001038Y001564D01*
X001017Y001623D01*
X001000Y001683D01*
X000986Y001744D01*
X000976Y001805D01*
X000970Y001868D01*
X000968Y001930D01*
X001502Y002340D02*
X001502Y002590D01*
X001632Y002470D02*
X001372Y002470D01*
X000948Y003933D02*
X000948Y004683D01*
X000987Y004685D01*
X001026Y004691D01*
X001064Y004700D01*
X001101Y004713D01*
X001137Y004730D01*
X001170Y004750D01*
X001202Y004774D01*
X001231Y004800D01*
X001257Y004829D01*
X001281Y004861D01*
X001301Y004894D01*
X001318Y004930D01*
X001331Y004967D01*
X001340Y005005D01*
X001346Y005044D01*
X001348Y005083D01*
X001346Y005122D01*
X001340Y005161D01*
X001331Y005199D01*
X001318Y005236D01*
X001301Y005272D01*
X001281Y005305D01*
X001257Y005337D01*
X001231Y005366D01*
X001202Y005392D01*
X001170Y005416D01*
X001137Y005436D01*
X001101Y005453D01*
X001064Y005466D01*
X001026Y005475D01*
X000987Y005481D01*
X000948Y005483D01*
X000948Y006233D01*
X004948Y006233D01*
X004948Y003933D01*
X000948Y003933D01*
X000980Y008210D02*
X000982Y008272D01*
X000988Y008335D01*
X000998Y008396D01*
X001012Y008457D01*
X001029Y008517D01*
X001050Y008576D01*
X001076Y008633D01*
X001104Y008688D01*
X001136Y008742D01*
X001172Y008793D01*
X001210Y008843D01*
X001252Y008889D01*
X001296Y008933D01*
X001344Y008974D01*
X001393Y009012D01*
X001445Y009046D01*
X001499Y009077D01*
X001555Y009105D01*
X001613Y009129D01*
X001672Y009150D01*
X001732Y009166D01*
X001793Y009179D01*
X001855Y009188D01*
X001917Y009193D01*
X001980Y009194D01*
X002042Y009191D01*
X002104Y009184D01*
X002166Y009173D01*
X002226Y009158D01*
X002286Y009140D01*
X002344Y009118D01*
X002401Y009092D01*
X002456Y009062D01*
X002509Y009029D01*
X002560Y008993D01*
X002608Y008954D01*
X002654Y008911D01*
X002697Y008866D01*
X002737Y008818D01*
X002774Y008768D01*
X002808Y008715D01*
X002839Y008661D01*
X002865Y008605D01*
X002889Y008547D01*
X002908Y008487D01*
X002924Y008427D01*
X002936Y008365D01*
X002944Y008304D01*
X002948Y008241D01*
X002948Y008179D01*
X002944Y008116D01*
X002936Y008055D01*
X002924Y007993D01*
X002908Y007933D01*
X002889Y007873D01*
X002865Y007815D01*
X002839Y007759D01*
X002808Y007705D01*
X002774Y007652D01*
X002737Y007602D01*
X002697Y007554D01*
X002654Y007509D01*
X002608Y007466D01*
X002560Y007427D01*
X002509Y007391D01*
X002456Y007358D01*
X002401Y007328D01*
X002344Y007302D01*
X002286Y007280D01*
X002226Y007262D01*
X002166Y007247D01*
X002104Y007236D01*
X002042Y007229D01*
X001980Y007226D01*
X001917Y007227D01*
X001855Y007232D01*
X001793Y007241D01*
X001732Y007254D01*
X001672Y007270D01*
X001613Y007291D01*
X001555Y007315D01*
X001499Y007343D01*
X001445Y007374D01*
X001393Y007408D01*
X001344Y007446D01*
X001296Y007487D01*
X001252Y007531D01*
X001210Y007577D01*
X001172Y007627D01*
X001136Y007678D01*
X001104Y007732D01*
X001076Y007787D01*
X001050Y007844D01*
X001029Y007903D01*
X001012Y007963D01*
X000998Y008024D01*
X000988Y008085D01*
X000982Y008148D01*
X000980Y008210D01*
X001384Y008750D02*
X001644Y008750D01*
X001611Y008619D02*
X001905Y008619D01*
X001758Y008619D02*
X001758Y009060D01*
X001611Y008913D01*
X001514Y008870D02*
X001514Y008620D01*
X002071Y008693D02*
X002365Y008986D01*
X002365Y008693D01*
X002292Y008619D01*
X002145Y008619D01*
X002071Y008693D01*
X002071Y008986D01*
X002145Y009060D01*
X002292Y009060D01*
X002365Y008986D01*
X002532Y008913D02*
X002532Y008693D01*
X002605Y008619D01*
X002825Y008619D01*
X002825Y008913D01*
X003380Y008740D02*
X003640Y008740D01*
X003607Y008870D02*
X003754Y009017D01*
X003754Y008576D01*
X003900Y008576D02*
X003607Y008576D01*
X003510Y008610D02*
X003510Y008860D01*
X003647Y009282D02*
X003647Y010282D01*
X002047Y010282D01*
X002047Y009282D01*
X003647Y009282D01*
X004067Y008943D02*
X004141Y009017D01*
X004287Y009017D01*
X004361Y008943D01*
X004067Y008650D01*
X004141Y008576D01*
X004287Y008576D01*
X004361Y008650D01*
X004361Y008943D01*
X004528Y008870D02*
X004528Y008650D01*
X004601Y008576D01*
X004821Y008576D01*
X004821Y008870D01*
X004067Y008943D02*
X004067Y008650D01*
X002976Y008200D02*
X002978Y008262D01*
X002984Y008325D01*
X002994Y008386D01*
X003008Y008447D01*
X003025Y008507D01*
X003046Y008566D01*
X003072Y008623D01*
X003100Y008678D01*
X003132Y008732D01*
X003168Y008783D01*
X003206Y008833D01*
X003248Y008879D01*
X003292Y008923D01*
X003340Y008964D01*
X003389Y009002D01*
X003441Y009036D01*
X003495Y009067D01*
X003551Y009095D01*
X003609Y009119D01*
X003668Y009140D01*
X003728Y009156D01*
X003789Y009169D01*
X003851Y009178D01*
X003913Y009183D01*
X003976Y009184D01*
X004038Y009181D01*
X004100Y009174D01*
X004162Y009163D01*
X004222Y009148D01*
X004282Y009130D01*
X004340Y009108D01*
X004397Y009082D01*
X004452Y009052D01*
X004505Y009019D01*
X004556Y008983D01*
X004604Y008944D01*
X004650Y008901D01*
X004693Y008856D01*
X004733Y008808D01*
X004770Y008758D01*
X004804Y008705D01*
X004835Y008651D01*
X004861Y008595D01*
X004885Y008537D01*
X004904Y008477D01*
X004920Y008417D01*
X004932Y008355D01*
X004940Y008294D01*
X004944Y008231D01*
X004944Y008169D01*
X004940Y008106D01*
X004932Y008045D01*
X004920Y007983D01*
X004904Y007923D01*
X004885Y007863D01*
X004861Y007805D01*
X004835Y007749D01*
X004804Y007695D01*
X004770Y007642D01*
X004733Y007592D01*
X004693Y007544D01*
X004650Y007499D01*
X004604Y007456D01*
X004556Y007417D01*
X004505Y007381D01*
X004452Y007348D01*
X004397Y007318D01*
X004340Y007292D01*
X004282Y007270D01*
X004222Y007252D01*
X004162Y007237D01*
X004100Y007226D01*
X004038Y007219D01*
X003976Y007216D01*
X003913Y007217D01*
X003851Y007222D01*
X003789Y007231D01*
X003728Y007244D01*
X003668Y007260D01*
X003609Y007281D01*
X003551Y007305D01*
X003495Y007333D01*
X003441Y007364D01*
X003389Y007398D01*
X003340Y007436D01*
X003292Y007477D01*
X003248Y007521D01*
X003206Y007567D01*
X003168Y007617D01*
X003132Y007668D01*
X003100Y007722D01*
X003072Y007777D01*
X003046Y007834D01*
X003025Y007893D01*
X003008Y007953D01*
X002994Y008014D01*
X002984Y008075D01*
X002978Y008138D01*
X002976Y008200D01*
X003648Y010483D02*
X002048Y010483D01*
X002048Y011483D01*
X003648Y011483D01*
X003648Y010483D01*
X002769Y011653D02*
X002769Y011853D01*
X002769Y011653D02*
X002569Y011653D01*
X002069Y011653D02*
X001869Y011653D01*
X001869Y011853D01*
X001771Y011847D02*
X001771Y011647D01*
X001571Y011647D01*
X001071Y011647D02*
X000871Y011647D01*
X000871Y011847D01*
X000871Y012347D02*
X000871Y012547D01*
X001071Y012547D01*
X001067Y012649D02*
X000867Y012649D01*
X000867Y012849D01*
X000867Y013349D02*
X000867Y013549D01*
X001067Y013549D01*
X001069Y013651D02*
X000869Y013651D01*
X000869Y013851D01*
X000869Y014351D02*
X000869Y014551D01*
X001069Y014551D01*
X001569Y014551D02*
X001769Y014551D01*
X001769Y014351D01*
X001868Y014353D02*
X001868Y014553D01*
X002068Y014553D01*
X002568Y014553D02*
X002768Y014553D01*
X002768Y014353D01*
X002768Y013853D02*
X002768Y013653D01*
X002568Y013653D01*
X002571Y013551D02*
X002771Y013551D01*
X002771Y013351D01*
X002771Y012851D02*
X002771Y012651D01*
X002571Y012651D01*
X002569Y012553D02*
X002769Y012553D01*
X002769Y012353D01*
X002069Y012553D02*
X001869Y012553D01*
X001869Y012353D01*
X001771Y012347D02*
X001771Y012547D01*
X001571Y012547D01*
X001567Y012649D02*
X001767Y012649D01*
X001767Y012849D01*
X001871Y012851D02*
X001871Y012651D01*
X002071Y012651D01*
X001871Y013351D02*
X001871Y013551D01*
X002071Y013551D01*
X002068Y013653D02*
X001868Y013653D01*
X001868Y013853D01*
X001769Y013851D02*
X001769Y013651D01*
X001569Y013651D01*
X001567Y013549D02*
X001767Y013549D01*
X001767Y013349D01*
X003380Y013299D02*
X003453Y013372D01*
X003747Y013079D01*
X003820Y013152D01*
X003820Y013299D01*
X003747Y013372D01*
X003453Y013372D01*
X003380Y013299D02*
X003380Y013152D01*
X003453Y013079D01*
X003747Y013079D01*
X003820Y012912D02*
X003820Y012618D01*
X003820Y012765D02*
X003380Y012765D01*
X003526Y012618D01*
X002835Y013416D02*
X002837Y013495D01*
X002843Y013574D01*
X002853Y013653D01*
X002867Y013731D01*
X002884Y013808D01*
X002906Y013884D01*
X002931Y013959D01*
X002961Y014032D01*
X002993Y014104D01*
X003030Y014175D01*
X003070Y014243D01*
X003113Y014309D01*
X003159Y014373D01*
X003209Y014435D01*
X003262Y014494D01*
X003317Y014550D01*
X003376Y014604D01*
X003437Y014654D01*
X003500Y014702D01*
X003566Y014746D01*
X003634Y014787D01*
X003704Y014824D01*
X003775Y014858D01*
X003849Y014888D01*
X003923Y014914D01*
X003999Y014936D01*
X004076Y014955D01*
X004154Y014970D01*
X004232Y014981D01*
X004311Y014988D01*
X004390Y014991D01*
X004469Y014990D01*
X004548Y014985D01*
X004627Y014976D01*
X004705Y014963D01*
X004782Y014946D01*
X004859Y014926D01*
X004934Y014901D01*
X005008Y014873D01*
X005081Y014841D01*
X005151Y014806D01*
X005220Y014767D01*
X005287Y014724D01*
X005352Y014678D01*
X005414Y014630D01*
X005474Y014578D01*
X005531Y014523D01*
X005585Y014465D01*
X005636Y014405D01*
X005684Y014342D01*
X005729Y014277D01*
X005771Y014209D01*
X005809Y014140D01*
X005843Y014069D01*
X005874Y013996D01*
X005902Y013921D01*
X005925Y013846D01*
X005945Y013769D01*
X005961Y013692D01*
X005973Y013613D01*
X005981Y013535D01*
X005985Y013456D01*
X005985Y013376D01*
X005981Y013297D01*
X005973Y013219D01*
X005961Y013140D01*
X005945Y013063D01*
X005925Y012986D01*
X005902Y012911D01*
X005874Y012836D01*
X005843Y012763D01*
X005809Y012692D01*
X005771Y012623D01*
X005729Y012555D01*
X005684Y012490D01*
X005636Y012427D01*
X005585Y012367D01*
X005531Y012309D01*
X005474Y012254D01*
X005414Y012202D01*
X005352Y012154D01*
X005287Y012108D01*
X005220Y012065D01*
X005151Y012026D01*
X005081Y011991D01*
X005008Y011959D01*
X004934Y011931D01*
X004859Y011906D01*
X004782Y011886D01*
X004705Y011869D01*
X004627Y011856D01*
X004548Y011847D01*
X004469Y011842D01*
X004390Y011841D01*
X004311Y011844D01*
X004232Y011851D01*
X004154Y011862D01*
X004076Y011877D01*
X003999Y011896D01*
X003923Y011918D01*
X003849Y011944D01*
X003775Y011974D01*
X003704Y012008D01*
X003634Y012045D01*
X003566Y012086D01*
X003500Y012130D01*
X003437Y012178D01*
X003376Y012228D01*
X003317Y012282D01*
X003262Y012338D01*
X003209Y012397D01*
X003159Y012459D01*
X003113Y012523D01*
X003070Y012589D01*
X003030Y012657D01*
X002993Y012728D01*
X002961Y012800D01*
X002931Y012873D01*
X002906Y012948D01*
X002884Y013024D01*
X002867Y013101D01*
X002853Y013179D01*
X002843Y013258D01*
X002837Y013337D01*
X002835Y013416D01*
X003380Y013612D02*
X003380Y013759D01*
X003453Y013833D01*
X003747Y013539D01*
X003820Y013612D01*
X003820Y013759D01*
X003747Y013833D01*
X003453Y013833D01*
X003526Y013999D02*
X003747Y013999D01*
X003820Y014073D01*
X003820Y014293D01*
X003526Y014293D01*
X003380Y013612D02*
X003453Y013539D01*
X003747Y013539D01*
X004820Y013866D02*
X005070Y013866D01*
X005113Y013880D02*
X005407Y013586D01*
X005480Y013659D01*
X005480Y013806D01*
X005407Y013880D01*
X005113Y013880D01*
X005040Y013806D01*
X005040Y013659D01*
X005113Y013586D01*
X005407Y013586D01*
X005480Y013419D02*
X005480Y013126D01*
X005480Y013272D02*
X005040Y013272D01*
X005186Y013126D01*
X005113Y012959D02*
X005040Y012885D01*
X005040Y012739D01*
X005113Y012665D01*
X005407Y012665D01*
X005480Y012739D01*
X005480Y012885D01*
X005407Y012959D01*
X004950Y013736D02*
X004950Y013996D01*
X009348Y010990D02*
X009348Y010590D01*
X009398Y010540D01*
X009398Y009427D01*
X009348Y009377D01*
X009348Y008977D01*
X009350Y008960D01*
X009354Y008943D01*
X009361Y008927D01*
X009371Y008913D01*
X009384Y008900D01*
X009398Y008890D01*
X009414Y008883D01*
X009431Y008879D01*
X009448Y008877D01*
X010048Y008877D01*
X010065Y008879D01*
X010082Y008883D01*
X010098Y008890D01*
X010112Y008900D01*
X010125Y008913D01*
X010135Y008927D01*
X010142Y008943D01*
X010146Y008960D01*
X010148Y008977D01*
X010148Y009377D01*
X010098Y009427D01*
X010098Y010540D01*
X010148Y010590D01*
X010148Y010990D01*
X010146Y011007D01*
X010142Y011024D01*
X010135Y011040D01*
X010125Y011054D01*
X010112Y011067D01*
X010098Y011077D01*
X010082Y011084D01*
X010065Y011088D01*
X010048Y011090D01*
X009448Y011090D01*
X009431Y011088D01*
X009414Y011084D01*
X009398Y011077D01*
X009384Y011067D01*
X009371Y011054D01*
X009361Y011040D01*
X009354Y011024D01*
X009350Y011007D01*
X009348Y010990D01*
X009578Y010746D02*
X009871Y010453D01*
X009798Y010526D02*
X010018Y010746D01*
X010018Y010453D02*
X009578Y010453D01*
X009651Y010286D02*
X009945Y009992D01*
X010018Y010066D01*
X010018Y010213D01*
X009945Y010286D01*
X009651Y010286D01*
X009578Y010213D01*
X009578Y010066D01*
X009651Y009992D01*
X009945Y009992D01*
X009945Y009826D02*
X010018Y009752D01*
X010018Y009605D01*
X009945Y009532D01*
X009651Y009826D01*
X009945Y009826D01*
X009945Y009532D02*
X009651Y009532D01*
X009578Y009605D01*
X009578Y009752D01*
X009651Y009826D01*
X010018Y009365D02*
X010018Y009072D01*
X010018Y009218D02*
X009578Y009218D01*
X009724Y009072D01*
X010348Y009183D02*
X010348Y010783D01*
X010350Y010800D01*
X010354Y010817D01*
X010361Y010833D01*
X010371Y010847D01*
X010384Y010860D01*
X010398Y010870D01*
X010414Y010877D01*
X010431Y010881D01*
X010448Y010883D01*
X011048Y010883D01*
X011065Y010881D01*
X011082Y010877D01*
X011098Y010870D01*
X011112Y010860D01*
X011125Y010847D01*
X011135Y010833D01*
X011142Y010817D01*
X011146Y010800D01*
X011148Y010783D01*
X011148Y009183D01*
X011146Y009166D01*
X011142Y009149D01*
X011135Y009133D01*
X011125Y009119D01*
X011112Y009106D01*
X011098Y009096D01*
X011082Y009089D01*
X011065Y009085D01*
X011048Y009083D01*
X010448Y009083D01*
X010431Y009085D01*
X010414Y009089D01*
X010398Y009096D01*
X010384Y009106D01*
X010371Y009119D01*
X010361Y009133D01*
X010354Y009149D01*
X010350Y009166D01*
X010348Y009183D01*
X011348Y009377D02*
X011348Y008977D01*
X011350Y008960D01*
X011354Y008943D01*
X011361Y008927D01*
X011371Y008913D01*
X011384Y008900D01*
X011398Y008890D01*
X011414Y008883D01*
X011431Y008879D01*
X011448Y008877D01*
X012048Y008877D01*
X012065Y008879D01*
X012082Y008883D01*
X012098Y008890D01*
X012112Y008900D01*
X012125Y008913D01*
X012135Y008927D01*
X012142Y008943D01*
X012146Y008960D01*
X012148Y008977D01*
X012148Y009377D01*
X012098Y009427D01*
X012098Y010540D01*
X012148Y010590D01*
X012148Y010990D01*
X012146Y011007D01*
X012142Y011024D01*
X012135Y011040D01*
X012125Y011054D01*
X012112Y011067D01*
X012098Y011077D01*
X012082Y011084D01*
X012065Y011088D01*
X012048Y011090D01*
X011448Y011090D01*
X011431Y011088D01*
X011414Y011084D01*
X011398Y011077D01*
X011384Y011067D01*
X011371Y011054D01*
X011361Y011040D01*
X011354Y011024D01*
X011350Y011007D01*
X011348Y010990D01*
X011348Y010590D01*
X011398Y010540D01*
X011398Y009427D01*
X011348Y009377D01*
X011551Y009513D02*
X011478Y009587D01*
X011478Y009733D01*
X011551Y009807D01*
X011624Y009807D01*
X011698Y009733D01*
X011771Y009807D01*
X011845Y009807D01*
X011918Y009733D01*
X011918Y009587D01*
X011845Y009513D01*
X011698Y009660D02*
X011698Y009733D01*
X011771Y009974D02*
X011478Y010267D01*
X011551Y010434D02*
X011478Y010507D01*
X011478Y010654D01*
X011551Y010728D01*
X011624Y010728D01*
X011698Y010654D01*
X011771Y010728D01*
X011845Y010728D01*
X011918Y010654D01*
X011918Y010507D01*
X011845Y010434D01*
X011918Y010267D02*
X011698Y010047D01*
X011478Y009974D02*
X011918Y009974D01*
X012478Y009994D02*
X012551Y010067D01*
X012845Y009774D01*
X012918Y009847D01*
X012918Y009994D01*
X012845Y010067D01*
X012551Y010067D01*
X012478Y009994D02*
X012478Y009847D01*
X012551Y009774D01*
X012845Y009774D01*
X012918Y009607D02*
X012918Y009313D01*
X012918Y009460D02*
X012478Y009460D01*
X012624Y009313D01*
X012398Y009427D02*
X012398Y010540D01*
X012348Y010590D01*
X012348Y010990D01*
X012350Y011007D01*
X012354Y011024D01*
X012361Y011040D01*
X012371Y011054D01*
X012384Y011067D01*
X012398Y011077D01*
X012414Y011084D01*
X012431Y011088D01*
X012448Y011090D01*
X013048Y011090D01*
X013065Y011088D01*
X013082Y011084D01*
X013098Y011077D01*
X013112Y011067D01*
X013125Y011054D01*
X013135Y011040D01*
X013142Y011024D01*
X013146Y011007D01*
X013148Y010990D01*
X013148Y010590D01*
X013098Y010540D01*
X013098Y009427D01*
X013148Y009377D01*
X013148Y008977D01*
X013146Y008960D01*
X013142Y008943D01*
X013135Y008927D01*
X013125Y008913D01*
X013112Y008900D01*
X013098Y008890D01*
X013082Y008883D01*
X013065Y008879D01*
X013048Y008877D01*
X012448Y008877D01*
X012431Y008879D01*
X012414Y008883D01*
X012398Y008890D01*
X012384Y008900D01*
X012371Y008913D01*
X012361Y008927D01*
X012354Y008943D01*
X012350Y008960D01*
X012348Y008977D01*
X012348Y009377D01*
X012398Y009427D01*
X012478Y010234D02*
X012918Y010234D01*
X012771Y010234D02*
X012478Y010528D01*
X012698Y010307D02*
X012918Y010528D01*
X013348Y010590D02*
X013348Y010990D01*
X013350Y011007D01*
X013354Y011024D01*
X013361Y011040D01*
X013371Y011054D01*
X013384Y011067D01*
X013398Y011077D01*
X013414Y011084D01*
X013431Y011088D01*
X013448Y011090D01*
X014048Y011090D01*
X014065Y011088D01*
X014082Y011084D01*
X014098Y011077D01*
X014112Y011067D01*
X014125Y011054D01*
X014135Y011040D01*
X014142Y011024D01*
X014146Y011007D01*
X014148Y010990D01*
X014148Y010590D01*
X014098Y010540D01*
X014098Y009427D01*
X014148Y009377D01*
X014148Y008977D01*
X014146Y008960D01*
X014142Y008943D01*
X014135Y008927D01*
X014125Y008913D01*
X014112Y008900D01*
X014098Y008890D01*
X014082Y008883D01*
X014065Y008879D01*
X014048Y008877D01*
X013448Y008877D01*
X013431Y008879D01*
X013414Y008883D01*
X013398Y008890D01*
X013384Y008900D01*
X013371Y008913D01*
X013361Y008927D01*
X013354Y008943D01*
X013350Y008960D01*
X013348Y008977D01*
X013348Y009377D01*
X013398Y009427D01*
X013398Y010540D01*
X013348Y010590D01*
X013478Y010728D02*
X013478Y010434D01*
X013478Y010267D02*
X013918Y010267D01*
X013918Y010434D02*
X013845Y010434D01*
X013551Y010728D01*
X013478Y010728D01*
X013478Y010267D02*
X013624Y010120D01*
X013478Y009974D01*
X013918Y009974D01*
X013918Y009733D02*
X013478Y009733D01*
X013698Y009513D01*
X013698Y009807D01*
X015040Y008823D02*
X015040Y008223D01*
X015042Y008206D01*
X015046Y008189D01*
X015053Y008173D01*
X015063Y008159D01*
X015076Y008146D01*
X015090Y008136D01*
X015106Y008129D01*
X015123Y008125D01*
X015140Y008123D01*
X015540Y008123D01*
X015590Y008173D01*
X016702Y008173D01*
X016752Y008123D01*
X017152Y008123D01*
X017169Y008125D01*
X017186Y008129D01*
X017202Y008136D01*
X017216Y008146D01*
X017229Y008159D01*
X017239Y008173D01*
X017246Y008189D01*
X017250Y008206D01*
X017252Y008223D01*
X017252Y008823D01*
X017250Y008840D01*
X017246Y008857D01*
X017239Y008873D01*
X017229Y008887D01*
X017216Y008900D01*
X017202Y008910D01*
X017186Y008917D01*
X017169Y008921D01*
X017152Y008923D01*
X016752Y008923D01*
X016702Y008873D01*
X015590Y008873D01*
X015540Y008923D01*
X015140Y008923D01*
X015123Y008921D01*
X015106Y008917D01*
X015090Y008910D01*
X015076Y008900D01*
X015063Y008887D01*
X015053Y008873D01*
X015046Y008857D01*
X015042Y008840D01*
X015040Y008823D01*
X015366Y008743D02*
X015586Y008743D01*
X015660Y008670D01*
X015660Y008523D01*
X015586Y008449D01*
X015366Y008449D01*
X015366Y008303D02*
X015366Y008743D01*
X015513Y008449D02*
X015660Y008303D01*
X015827Y008449D02*
X015973Y008303D01*
X016120Y008449D01*
X016120Y008743D01*
X016287Y008743D02*
X016434Y008743D01*
X016360Y008743D02*
X016360Y008303D01*
X016287Y008303D02*
X016434Y008303D01*
X016594Y008303D02*
X016594Y008743D01*
X016887Y008303D01*
X016887Y008743D01*
X015827Y008743D02*
X015827Y008449D01*
X016177Y009861D02*
X016324Y009861D01*
X016398Y009935D01*
X016564Y009861D02*
X016711Y009861D01*
X016638Y009861D02*
X016638Y010302D01*
X016711Y010302D02*
X016564Y010302D01*
X016398Y010228D02*
X016324Y010302D01*
X016177Y010302D01*
X016104Y010228D01*
X016104Y009935D01*
X016177Y009861D01*
X016871Y009861D02*
X016871Y010302D01*
X017165Y009861D01*
X017165Y010302D01*
X017332Y010155D02*
X017478Y010302D01*
X017478Y009861D01*
X017332Y009861D02*
X017625Y009861D01*
X018541Y009873D02*
X018541Y010073D01*
X018741Y010073D01*
X018739Y010172D02*
X018539Y010172D01*
X018539Y010372D01*
X018539Y010872D02*
X018539Y011072D01*
X018739Y011072D01*
X018739Y011171D02*
X018539Y011171D01*
X018539Y011371D01*
X018539Y011871D02*
X018539Y012071D01*
X018739Y012071D01*
X018739Y012173D02*
X018539Y012173D01*
X018539Y012373D01*
X018286Y012342D02*
X015451Y012342D01*
X015451Y013720D01*
X018286Y013720D01*
X018286Y012342D01*
X017763Y012442D02*
X017763Y012662D01*
X017690Y012736D01*
X017469Y012736D01*
X017469Y012442D01*
X017303Y012516D02*
X017229Y012442D01*
X017082Y012442D01*
X017009Y012516D01*
X017303Y012809D01*
X017303Y012516D01*
X017303Y012809D02*
X017229Y012883D01*
X017082Y012883D01*
X017009Y012809D01*
X017009Y012516D01*
X016842Y012516D02*
X016769Y012442D01*
X016622Y012442D01*
X016549Y012516D01*
X016842Y012809D01*
X016842Y012516D01*
X016842Y012809D02*
X016769Y012883D01*
X016622Y012883D01*
X016549Y012809D01*
X016549Y012516D01*
X016382Y012442D02*
X016088Y012442D01*
X016235Y012442D02*
X016235Y012883D01*
X016088Y012736D01*
X016109Y011764D02*
X016109Y011324D01*
X016224Y011291D02*
X016224Y011041D01*
X016354Y011171D02*
X016094Y011171D01*
X015962Y011324D02*
X016256Y011324D01*
X016423Y011397D02*
X016716Y011691D01*
X016716Y011397D01*
X016643Y011324D01*
X016496Y011324D01*
X016423Y011397D01*
X016423Y011691D01*
X016496Y011764D01*
X016643Y011764D01*
X016716Y011691D01*
X016883Y011691D02*
X016956Y011764D01*
X017103Y011764D01*
X017177Y011691D01*
X016883Y011397D01*
X016956Y011324D01*
X017103Y011324D01*
X017177Y011397D01*
X017177Y011691D01*
X017343Y011617D02*
X017343Y011397D01*
X017417Y011324D01*
X017637Y011324D01*
X017637Y011617D01*
X016883Y011691D02*
X016883Y011397D01*
X016109Y011764D02*
X015962Y011617D01*
X015099Y010631D02*
X015101Y010710D01*
X015107Y010789D01*
X015117Y010868D01*
X015131Y010946D01*
X015148Y011023D01*
X015170Y011099D01*
X015195Y011174D01*
X015225Y011247D01*
X015257Y011319D01*
X015294Y011390D01*
X015334Y011458D01*
X015377Y011524D01*
X015423Y011588D01*
X015473Y011650D01*
X015526Y011709D01*
X015581Y011765D01*
X015640Y011819D01*
X015701Y011869D01*
X015764Y011917D01*
X015830Y011961D01*
X015898Y012002D01*
X015968Y012039D01*
X016039Y012073D01*
X016113Y012103D01*
X016187Y012129D01*
X016263Y012151D01*
X016340Y012170D01*
X016418Y012185D01*
X016496Y012196D01*
X016575Y012203D01*
X016654Y012206D01*
X016733Y012205D01*
X016812Y012200D01*
X016891Y012191D01*
X016969Y012178D01*
X017046Y012161D01*
X017123Y012141D01*
X017198Y012116D01*
X017272Y012088D01*
X017345Y012056D01*
X017415Y012021D01*
X017484Y011982D01*
X017551Y011939D01*
X017616Y011893D01*
X017678Y011845D01*
X017738Y011793D01*
X017795Y011738D01*
X017849Y011680D01*
X017900Y011620D01*
X017948Y011557D01*
X017993Y011492D01*
X018035Y011424D01*
X018073Y011355D01*
X018107Y011284D01*
X018138Y011211D01*
X018166Y011136D01*
X018189Y011061D01*
X018209Y010984D01*
X018225Y010907D01*
X018237Y010828D01*
X018245Y010750D01*
X018249Y010671D01*
X018249Y010591D01*
X018245Y010512D01*
X018237Y010434D01*
X018225Y010355D01*
X018209Y010278D01*
X018189Y010201D01*
X018166Y010126D01*
X018138Y010051D01*
X018107Y009978D01*
X018073Y009907D01*
X018035Y009838D01*
X017993Y009770D01*
X017948Y009705D01*
X017900Y009642D01*
X017849Y009582D01*
X017795Y009524D01*
X017738Y009469D01*
X017678Y009417D01*
X017616Y009369D01*
X017551Y009323D01*
X017484Y009280D01*
X017415Y009241D01*
X017345Y009206D01*
X017272Y009174D01*
X017198Y009146D01*
X017123Y009121D01*
X017046Y009101D01*
X016969Y009084D01*
X016891Y009071D01*
X016812Y009062D01*
X016733Y009057D01*
X016654Y009056D01*
X016575Y009059D01*
X016496Y009066D01*
X016418Y009077D01*
X016340Y009092D01*
X016263Y009111D01*
X016187Y009133D01*
X016113Y009159D01*
X016039Y009189D01*
X015968Y009223D01*
X015898Y009260D01*
X015830Y009301D01*
X015764Y009345D01*
X015701Y009393D01*
X015640Y009443D01*
X015581Y009497D01*
X015526Y009553D01*
X015473Y009612D01*
X015423Y009674D01*
X015377Y009738D01*
X015334Y009804D01*
X015294Y009872D01*
X015257Y009943D01*
X015225Y010015D01*
X015195Y010088D01*
X015170Y010163D01*
X015148Y010239D01*
X015131Y010316D01*
X015117Y010394D01*
X015107Y010473D01*
X015101Y010552D01*
X015099Y010631D01*
X012966Y012804D02*
X012968Y012867D01*
X012974Y012929D01*
X012984Y012991D01*
X012997Y013053D01*
X013015Y013113D01*
X013036Y013172D01*
X013061Y013230D01*
X013090Y013286D01*
X013122Y013340D01*
X013157Y013392D01*
X013195Y013441D01*
X013237Y013489D01*
X013281Y013533D01*
X013329Y013575D01*
X013378Y013613D01*
X013430Y013648D01*
X013484Y013680D01*
X013540Y013709D01*
X013598Y013734D01*
X013657Y013755D01*
X013717Y013773D01*
X013779Y013786D01*
X013841Y013796D01*
X013903Y013802D01*
X013966Y013804D01*
X014029Y013802D01*
X014091Y013796D01*
X014153Y013786D01*
X014215Y013773D01*
X014275Y013755D01*
X014334Y013734D01*
X014392Y013709D01*
X014448Y013680D01*
X014502Y013648D01*
X014554Y013613D01*
X014603Y013575D01*
X014651Y013533D01*
X014695Y013489D01*
X014737Y013441D01*
X014775Y013392D01*
X014810Y013340D01*
X014842Y013286D01*
X014871Y013230D01*
X014896Y013172D01*
X014917Y013113D01*
X014935Y013053D01*
X014948Y012991D01*
X014958Y012929D01*
X014964Y012867D01*
X014966Y012804D01*
X014964Y012741D01*
X014958Y012679D01*
X014948Y012617D01*
X014935Y012555D01*
X014917Y012495D01*
X014896Y012436D01*
X014871Y012378D01*
X014842Y012322D01*
X014810Y012268D01*
X014775Y012216D01*
X014737Y012167D01*
X014695Y012119D01*
X014651Y012075D01*
X014603Y012033D01*
X014554Y011995D01*
X014502Y011960D01*
X014448Y011928D01*
X014392Y011899D01*
X014334Y011874D01*
X014275Y011853D01*
X014215Y011835D01*
X014153Y011822D01*
X014091Y011812D01*
X014029Y011806D01*
X013966Y011804D01*
X013903Y011806D01*
X013841Y011812D01*
X013779Y011822D01*
X013717Y011835D01*
X013657Y011853D01*
X013598Y011874D01*
X013540Y011899D01*
X013484Y011928D01*
X013430Y011960D01*
X013378Y011995D01*
X013329Y012033D01*
X013281Y012075D01*
X013237Y012119D01*
X013195Y012167D01*
X013157Y012216D01*
X013122Y012268D01*
X013090Y012322D01*
X013061Y012378D01*
X013036Y012436D01*
X013015Y012495D01*
X012997Y012555D01*
X012984Y012617D01*
X012974Y012679D01*
X012968Y012741D01*
X012966Y012804D01*
X013422Y013169D02*
X013715Y013169D01*
X013882Y013169D02*
X014176Y013169D01*
X014342Y013169D02*
X014563Y013169D01*
X014636Y013243D01*
X014636Y013536D01*
X014563Y013610D01*
X014342Y013610D01*
X014342Y013169D01*
X014029Y013389D02*
X013882Y013389D01*
X013882Y013169D02*
X013882Y013610D01*
X014176Y013610D01*
X013422Y013610D02*
X013422Y013169D01*
X011790Y013483D02*
X010506Y013483D01*
X011698Y010654D02*
X011698Y010581D01*
X010448Y007225D02*
X010448Y005941D01*
X010120Y004145D02*
X009520Y004145D01*
X009503Y004143D01*
X009486Y004139D01*
X009470Y004132D01*
X009456Y004122D01*
X009443Y004109D01*
X009433Y004095D01*
X009426Y004079D01*
X009422Y004062D01*
X009420Y004045D01*
X009420Y003645D01*
X009470Y003595D01*
X009470Y002483D01*
X009420Y002433D01*
X009420Y002033D01*
X009422Y002016D01*
X009426Y001999D01*
X009433Y001983D01*
X009443Y001969D01*
X009456Y001956D01*
X009470Y001946D01*
X009486Y001939D01*
X009503Y001935D01*
X009520Y001933D01*
X010120Y001933D01*
X010137Y001935D01*
X010154Y001939D01*
X010170Y001946D01*
X010184Y001956D01*
X010197Y001969D01*
X010207Y001983D01*
X010214Y001999D01*
X010218Y002016D01*
X010220Y002033D01*
X010220Y002433D01*
X010170Y002483D01*
X010170Y003595D01*
X010220Y003645D01*
X010220Y004045D01*
X010218Y004062D01*
X010214Y004079D01*
X010207Y004095D01*
X010197Y004109D01*
X010184Y004122D01*
X010170Y004132D01*
X010154Y004139D01*
X010137Y004143D01*
X010120Y004145D01*
X009958Y003934D02*
X009664Y003934D01*
X009591Y003861D01*
X009591Y003641D01*
X010031Y003641D01*
X010031Y003861D01*
X009958Y003934D01*
X010031Y003474D02*
X010031Y003180D01*
X009591Y003180D01*
X009591Y003474D01*
X009811Y003327D02*
X009811Y003180D01*
X010031Y003013D02*
X010031Y002720D01*
X009591Y002720D01*
X009664Y002553D02*
X009591Y002480D01*
X009591Y002260D01*
X010031Y002260D01*
X009884Y002260D02*
X009884Y002480D01*
X009811Y002553D01*
X009664Y002553D01*
X009884Y002406D02*
X010031Y002553D01*
X008435Y001891D02*
X008435Y001691D01*
X008435Y001891D02*
X008235Y001891D01*
X007735Y001891D02*
X007535Y001891D01*
X007535Y001691D01*
X007240Y001691D02*
X007240Y001891D01*
X007040Y001891D01*
X006540Y001891D02*
X006340Y001891D01*
X006340Y001691D01*
X006340Y001191D02*
X006340Y000991D01*
X006540Y000991D01*
X007040Y000991D02*
X007240Y000991D01*
X007240Y001191D01*
X007535Y001191D02*
X007535Y000991D01*
X007735Y000991D01*
X008235Y000991D02*
X008435Y000991D01*
X008435Y001191D01*
X008325Y002842D02*
X008032Y002842D01*
X008325Y003135D01*
X008325Y003209D01*
X008252Y003282D01*
X008105Y003282D01*
X008032Y003209D01*
X007865Y003282D02*
X007571Y002842D01*
X007404Y002988D02*
X007404Y003282D01*
X007111Y003282D02*
X007111Y002988D01*
X007258Y002842D01*
X007404Y002988D01*
X006944Y002915D02*
X006871Y002842D01*
X006724Y002842D01*
X006650Y002915D01*
X006650Y003209D01*
X006724Y003282D01*
X006871Y003282D01*
X006944Y003209D01*
X005845Y003812D02*
X005847Y003891D01*
X005853Y003970D01*
X005863Y004049D01*
X005877Y004127D01*
X005894Y004204D01*
X005916Y004280D01*
X005941Y004355D01*
X005971Y004428D01*
X006003Y004500D01*
X006040Y004571D01*
X006080Y004639D01*
X006123Y004705D01*
X006169Y004769D01*
X006219Y004831D01*
X006272Y004890D01*
X006327Y004946D01*
X006386Y005000D01*
X006447Y005050D01*
X006510Y005098D01*
X006576Y005142D01*
X006644Y005183D01*
X006714Y005220D01*
X006785Y005254D01*
X006859Y005284D01*
X006933Y005310D01*
X007009Y005332D01*
X007086Y005351D01*
X007164Y005366D01*
X007242Y005377D01*
X007321Y005384D01*
X007400Y005387D01*
X007479Y005386D01*
X007558Y005381D01*
X007637Y005372D01*
X007715Y005359D01*
X007792Y005342D01*
X007869Y005322D01*
X007944Y005297D01*
X008018Y005269D01*
X008091Y005237D01*
X008161Y005202D01*
X008230Y005163D01*
X008297Y005120D01*
X008362Y005074D01*
X008424Y005026D01*
X008484Y004974D01*
X008541Y004919D01*
X008595Y004861D01*
X008646Y004801D01*
X008694Y004738D01*
X008739Y004673D01*
X008781Y004605D01*
X008819Y004536D01*
X008853Y004465D01*
X008884Y004392D01*
X008912Y004317D01*
X008935Y004242D01*
X008955Y004165D01*
X008971Y004088D01*
X008983Y004009D01*
X008991Y003931D01*
X008995Y003852D01*
X008995Y003772D01*
X008991Y003693D01*
X008983Y003615D01*
X008971Y003536D01*
X008955Y003459D01*
X008935Y003382D01*
X008912Y003307D01*
X008884Y003232D01*
X008853Y003159D01*
X008819Y003088D01*
X008781Y003019D01*
X008739Y002951D01*
X008694Y002886D01*
X008646Y002823D01*
X008595Y002763D01*
X008541Y002705D01*
X008484Y002650D01*
X008424Y002598D01*
X008362Y002550D01*
X008297Y002504D01*
X008230Y002461D01*
X008161Y002422D01*
X008091Y002387D01*
X008018Y002355D01*
X007944Y002327D01*
X007869Y002302D01*
X007792Y002282D01*
X007715Y002265D01*
X007637Y002252D01*
X007558Y002243D01*
X007479Y002238D01*
X007400Y002237D01*
X007321Y002240D01*
X007242Y002247D01*
X007164Y002258D01*
X007086Y002273D01*
X007009Y002292D01*
X006933Y002314D01*
X006859Y002340D01*
X006785Y002370D01*
X006714Y002404D01*
X006644Y002441D01*
X006576Y002482D01*
X006510Y002526D01*
X006447Y002574D01*
X006386Y002624D01*
X006327Y002678D01*
X006272Y002734D01*
X006219Y002793D01*
X006169Y002855D01*
X006123Y002919D01*
X006080Y002985D01*
X006040Y003053D01*
X006003Y003124D01*
X005971Y003196D01*
X005941Y003269D01*
X005916Y003344D01*
X005894Y003420D01*
X005877Y003497D01*
X005863Y003575D01*
X005853Y003654D01*
X005847Y003733D01*
X005845Y003812D01*
X006608Y004604D02*
X006902Y004604D01*
X006755Y004604D02*
X006755Y005045D01*
X006608Y004898D01*
X006970Y004472D02*
X006970Y004222D01*
X007100Y004352D02*
X006840Y004352D01*
X007142Y004604D02*
X007069Y004678D01*
X007362Y004971D01*
X007362Y004678D01*
X007289Y004604D01*
X007142Y004604D01*
X007069Y004678D02*
X007069Y004971D01*
X007142Y005045D01*
X007289Y005045D01*
X007362Y004971D01*
X007529Y004971D02*
X007602Y005045D01*
X007749Y005045D01*
X007823Y004971D01*
X007529Y004678D01*
X007602Y004604D01*
X007749Y004604D01*
X007823Y004678D01*
X007823Y004971D01*
X007989Y004898D02*
X007989Y004678D01*
X008063Y004604D01*
X008283Y004604D01*
X008283Y004898D01*
X007529Y004971D02*
X007529Y004678D01*
X007387Y006379D02*
X007987Y006379D01*
X008004Y006381D01*
X008021Y006385D01*
X008037Y006392D01*
X008051Y006402D01*
X008064Y006415D01*
X008074Y006429D01*
X008081Y006445D01*
X008085Y006462D01*
X008087Y006479D01*
X008087Y006879D01*
X008037Y006929D01*
X008037Y008042D01*
X008087Y008092D01*
X008087Y008492D01*
X008085Y008509D01*
X008081Y008526D01*
X008074Y008542D01*
X008064Y008556D01*
X008051Y008569D01*
X008037Y008579D01*
X008021Y008586D01*
X008004Y008590D01*
X007987Y008592D01*
X007387Y008592D01*
X007370Y008590D01*
X007353Y008586D01*
X007337Y008579D01*
X007323Y008569D01*
X007310Y008556D01*
X007300Y008542D01*
X007293Y008526D01*
X007289Y008509D01*
X007287Y008492D01*
X007287Y008092D01*
X007337Y008042D01*
X007337Y006929D01*
X007287Y006879D01*
X007287Y006479D01*
X007289Y006462D01*
X007293Y006445D01*
X007300Y006429D01*
X007310Y006415D01*
X007323Y006402D01*
X007337Y006392D01*
X007353Y006385D01*
X007370Y006381D01*
X007387Y006379D01*
X007087Y006480D02*
X007087Y006880D01*
X007037Y006930D01*
X007037Y008042D01*
X007087Y008092D01*
X007087Y008492D01*
X007085Y008509D01*
X007081Y008526D01*
X007074Y008542D01*
X007064Y008556D01*
X007051Y008569D01*
X007037Y008579D01*
X007021Y008586D01*
X007004Y008590D01*
X006987Y008592D01*
X006387Y008592D01*
X006370Y008590D01*
X006353Y008586D01*
X006337Y008579D01*
X006323Y008569D01*
X006310Y008556D01*
X006300Y008542D01*
X006293Y008526D01*
X006289Y008509D01*
X006287Y008492D01*
X006287Y008092D01*
X006337Y008042D01*
X006337Y006930D01*
X006287Y006880D01*
X006287Y006480D01*
X006289Y006463D01*
X006293Y006446D01*
X006300Y006430D01*
X006310Y006416D01*
X006323Y006403D01*
X006337Y006393D01*
X006353Y006386D01*
X006370Y006382D01*
X006387Y006380D01*
X006987Y006380D01*
X007004Y006382D01*
X007021Y006386D01*
X007037Y006393D01*
X007051Y006403D01*
X007064Y006416D01*
X007074Y006430D01*
X007081Y006446D01*
X007085Y006463D01*
X007087Y006480D01*
X017318Y006507D02*
X017758Y006507D01*
X017758Y006434D02*
X017758Y006580D01*
X017758Y006741D02*
X017318Y006741D01*
X017758Y007034D01*
X017318Y007034D01*
X017318Y006580D02*
X017318Y006434D01*
X017391Y006267D02*
X017538Y006267D01*
X017611Y006193D01*
X017611Y005973D01*
X017758Y005973D02*
X017318Y005973D01*
X017318Y006193D01*
X017391Y006267D01*
X017611Y006120D02*
X017758Y006267D01*
X018541Y006175D02*
X018741Y006175D01*
X018739Y006072D02*
X018539Y006072D01*
X018539Y005872D01*
X018541Y006175D02*
X018541Y006375D01*
X018541Y006875D02*
X018541Y007075D01*
X018741Y007075D01*
X018741Y007173D02*
X018541Y007173D01*
X018541Y007373D01*
X018541Y007873D02*
X018541Y008073D01*
X018741Y008073D01*
X018740Y008173D02*
X018540Y008173D01*
X018540Y008373D01*
X018540Y008873D02*
X018540Y009073D01*
X018740Y009073D01*
X018741Y009173D02*
X018541Y009173D01*
X018541Y009373D01*
X019241Y009173D02*
X019441Y009173D01*
X019441Y009373D01*
X019440Y009073D02*
X019240Y009073D01*
X019440Y009073D02*
X019440Y008873D01*
X019440Y008373D02*
X019440Y008173D01*
X019240Y008173D01*
X019241Y008073D02*
X019441Y008073D01*
X019441Y007873D01*
X019441Y007373D02*
X019441Y007173D01*
X019241Y007173D01*
X019241Y007075D02*
X019441Y007075D01*
X019441Y006875D01*
X019441Y006375D02*
X019441Y006175D01*
X019241Y006175D01*
X019239Y006072D02*
X019439Y006072D01*
X019439Y005872D01*
X019439Y005372D02*
X019439Y005172D01*
X019239Y005172D01*
X019241Y005073D02*
X019441Y005073D01*
X019441Y004873D01*
X019441Y004373D02*
X019441Y004173D01*
X019241Y004173D01*
X019239Y004071D02*
X019439Y004071D01*
X019439Y003871D01*
X019439Y003371D02*
X019439Y003171D01*
X019239Y003171D01*
X019240Y003074D02*
X019440Y003074D01*
X019440Y002874D01*
X019440Y002374D02*
X019440Y002174D01*
X019240Y002174D01*
X019240Y002074D02*
X019440Y002074D01*
X019440Y001874D01*
X019440Y001374D02*
X019440Y001174D01*
X019240Y001174D01*
X018740Y001174D02*
X018540Y001174D01*
X018540Y001374D01*
X018576Y001836D02*
X018136Y001836D01*
X018136Y002056D01*
X018209Y002130D01*
X018356Y002130D01*
X018430Y002056D01*
X018430Y001836D01*
X018540Y001874D02*
X018540Y002074D01*
X018740Y002074D01*
X018740Y002174D02*
X018540Y002174D01*
X018540Y002374D01*
X018576Y002370D02*
X018576Y002517D01*
X018503Y002590D01*
X018209Y002590D01*
X018136Y002517D01*
X018136Y002370D01*
X018209Y002297D01*
X018503Y002297D01*
X018576Y002370D01*
X018576Y002130D02*
X018430Y001983D01*
X018503Y002757D02*
X018136Y002757D01*
X018136Y003051D02*
X018503Y003051D01*
X018576Y002977D01*
X018576Y002830D01*
X018503Y002757D01*
X018540Y002874D02*
X018540Y003074D01*
X018740Y003074D01*
X018739Y003171D02*
X018539Y003171D01*
X018539Y003371D01*
X018576Y003364D02*
X018136Y003364D01*
X018136Y003217D02*
X018136Y003511D01*
X018539Y003871D02*
X018539Y004071D01*
X018739Y004071D01*
X018741Y004173D02*
X018541Y004173D01*
X018541Y004373D01*
X018541Y004873D02*
X018541Y005073D01*
X018741Y005073D01*
X018739Y005172D02*
X018539Y005172D01*
X018539Y005372D01*
X019441Y009873D02*
X019441Y010073D01*
X019241Y010073D01*
X019239Y010172D02*
X019439Y010172D01*
X019439Y010372D01*
X019439Y010872D02*
X019439Y011072D01*
X019239Y011072D01*
X019239Y011171D02*
X019439Y011171D01*
X019439Y011371D01*
X019439Y011871D02*
X019439Y012071D01*
X019239Y012071D01*
X019239Y012173D02*
X019439Y012173D01*
X019439Y012373D01*
X019439Y012873D02*
X019439Y013073D01*
X019239Y013073D01*
X018739Y013073D02*
X018539Y013073D01*
X018539Y012873D01*
D15*
X014966Y013554D02*
X014966Y012054D01*
D16*
X014998Y013584D02*
X014926Y013530D01*
X014927Y013531D02*
X014884Y013584D01*
X014839Y013635D01*
X014790Y013683D01*
X014739Y013728D01*
X014685Y013771D01*
X014629Y013810D01*
X014571Y013846D01*
X014511Y013879D01*
X014450Y013908D01*
X014386Y013933D01*
X014322Y013955D01*
X014256Y013974D01*
X014189Y013988D01*
X014122Y013999D01*
X014054Y014006D01*
X013986Y014009D01*
X013917Y014008D01*
X013849Y014003D01*
X013781Y013995D01*
X013714Y013982D01*
X013648Y013966D01*
X013583Y013946D01*
X013518Y013923D01*
X013456Y013896D01*
X013395Y013865D01*
X013336Y013831D01*
X013278Y013794D01*
X013223Y013753D01*
X013171Y013709D01*
X013121Y013663D01*
X013074Y013614D01*
X013029Y013562D01*
X012988Y013508D01*
X012949Y013451D01*
X012914Y013392D01*
X012883Y013332D01*
X012855Y013270D01*
X012830Y013206D01*
X012809Y013141D01*
X012792Y013075D01*
X012778Y013008D01*
X012769Y012940D01*
X012763Y012872D01*
X012761Y012804D01*
X012763Y012736D01*
X012769Y012668D01*
X012778Y012600D01*
X012792Y012533D01*
X012809Y012467D01*
X012830Y012402D01*
X012855Y012338D01*
X012883Y012276D01*
X012914Y012216D01*
X012949Y012157D01*
X012988Y012100D01*
X013029Y012046D01*
X013074Y011994D01*
X013121Y011945D01*
X013171Y011899D01*
X013223Y011855D01*
X013278Y011814D01*
X013336Y011777D01*
X013395Y011743D01*
X013456Y011712D01*
X013518Y011685D01*
X013583Y011662D01*
X013648Y011642D01*
X013714Y011626D01*
X013781Y011613D01*
X013849Y011605D01*
X013917Y011600D01*
X013986Y011599D01*
X014054Y011602D01*
X014122Y011609D01*
X014189Y011620D01*
X014256Y011634D01*
X014322Y011653D01*
X014386Y011675D01*
X014450Y011700D01*
X014511Y011729D01*
X014571Y011762D01*
X014629Y011798D01*
X014685Y011837D01*
X014739Y011880D01*
X014790Y011925D01*
X014839Y011973D01*
X014884Y012024D01*
X014927Y012077D01*
X014998Y012024D01*
X014999Y012023D01*
X014955Y011968D01*
X014907Y011915D01*
X014857Y011864D01*
X014804Y011817D01*
X014749Y011773D01*
X014691Y011731D01*
X014631Y011693D01*
X014570Y011658D01*
X014506Y011627D01*
X014441Y011599D01*
X014374Y011575D01*
X014306Y011554D01*
X014237Y011538D01*
X014167Y011525D01*
X014097Y011516D01*
X014026Y011510D01*
X013955Y011509D01*
X013884Y011512D01*
X013813Y011518D01*
X013743Y011528D01*
X013674Y011542D01*
X013605Y011560D01*
X013537Y011582D01*
X013471Y011607D01*
X013406Y011636D01*
X013343Y011669D01*
X013282Y011705D01*
X013223Y011744D01*
X013166Y011786D01*
X013111Y011831D01*
X013059Y011880D01*
X013010Y011931D01*
X012963Y011984D01*
X012920Y012041D01*
X012880Y012099D01*
X012843Y012160D01*
X012809Y012222D01*
X012779Y012286D01*
X012752Y012352D01*
X012729Y012419D01*
X012710Y012488D01*
X012695Y012557D01*
X012683Y012627D01*
X012675Y012698D01*
X012671Y012769D01*
X012671Y012839D01*
X012675Y012910D01*
X012683Y012981D01*
X012695Y013051D01*
X012710Y013120D01*
X012729Y013189D01*
X012752Y013256D01*
X012779Y013322D01*
X012809Y013386D01*
X012843Y013448D01*
X012880Y013509D01*
X012920Y013567D01*
X012963Y013624D01*
X013010Y013677D01*
X013059Y013728D01*
X013111Y013777D01*
X013166Y013822D01*
X013223Y013864D01*
X013282Y013903D01*
X013343Y013939D01*
X013406Y013972D01*
X013471Y014001D01*
X013537Y014026D01*
X013605Y014048D01*
X013674Y014066D01*
X013743Y014080D01*
X013813Y014090D01*
X013884Y014096D01*
X013955Y014099D01*
X014026Y014098D01*
X014097Y014092D01*
X014167Y014083D01*
X014237Y014070D01*
X014306Y014054D01*
X014374Y014033D01*
X014441Y014009D01*
X014506Y013981D01*
X014570Y013950D01*
X014631Y013915D01*
X014691Y013877D01*
X014749Y013835D01*
X014804Y013791D01*
X014857Y013744D01*
X014907Y013693D01*
X014955Y013640D01*
X014999Y013585D01*
X014992Y013580D01*
X014947Y013635D01*
X014900Y013688D01*
X014849Y013739D01*
X014796Y013786D01*
X014740Y013831D01*
X014682Y013872D01*
X014622Y013910D01*
X014560Y013945D01*
X014496Y013976D01*
X014430Y014003D01*
X014363Y014027D01*
X014294Y014047D01*
X014225Y014064D01*
X014155Y014076D01*
X014084Y014085D01*
X014013Y014089D01*
X013942Y014090D01*
X013871Y014086D01*
X013800Y014079D01*
X013729Y014068D01*
X013660Y014053D01*
X013591Y014034D01*
X013523Y014011D01*
X013457Y013985D01*
X013392Y013955D01*
X013330Y013921D01*
X013269Y013885D01*
X013210Y013844D01*
X013153Y013801D01*
X013099Y013754D01*
X013048Y013705D01*
X013000Y013652D01*
X012954Y013598D01*
X012912Y013540D01*
X012873Y013481D01*
X012837Y013419D01*
X012804Y013356D01*
X012776Y013291D01*
X012750Y013224D01*
X012729Y013156D01*
X012711Y013087D01*
X012698Y013017D01*
X012688Y012946D01*
X012682Y012875D01*
X012680Y012804D01*
X012682Y012733D01*
X012688Y012662D01*
X012698Y012591D01*
X012711Y012521D01*
X012729Y012452D01*
X012750Y012384D01*
X012776Y012317D01*
X012804Y012252D01*
X012837Y012189D01*
X012873Y012127D01*
X012912Y012068D01*
X012954Y012010D01*
X013000Y011956D01*
X013048Y011903D01*
X013099Y011854D01*
X013153Y011807D01*
X013210Y011764D01*
X013269Y011723D01*
X013330Y011687D01*
X013392Y011653D01*
X013457Y011623D01*
X013523Y011597D01*
X013591Y011574D01*
X013660Y011555D01*
X013729Y011540D01*
X013800Y011529D01*
X013871Y011522D01*
X013942Y011518D01*
X014013Y011519D01*
X014084Y011523D01*
X014155Y011532D01*
X014225Y011544D01*
X014294Y011561D01*
X014363Y011581D01*
X014430Y011605D01*
X014496Y011632D01*
X014560Y011663D01*
X014622Y011698D01*
X014682Y011736D01*
X014740Y011777D01*
X014796Y011822D01*
X014849Y011869D01*
X014900Y011920D01*
X014947Y011973D01*
X014992Y012028D01*
X014985Y012034D01*
X014940Y011979D01*
X014893Y011926D01*
X014843Y011876D01*
X014790Y011829D01*
X014735Y011785D01*
X014677Y011743D01*
X014618Y011706D01*
X014556Y011671D01*
X014492Y011640D01*
X014427Y011613D01*
X014360Y011589D01*
X014292Y011569D01*
X014223Y011553D01*
X014154Y011541D01*
X014083Y011532D01*
X014013Y011528D01*
X013942Y011527D01*
X013871Y011531D01*
X013801Y011538D01*
X013731Y011549D01*
X013662Y011564D01*
X013594Y011583D01*
X013526Y011605D01*
X013461Y011631D01*
X013396Y011661D01*
X013334Y011694D01*
X013274Y011731D01*
X013215Y011771D01*
X013159Y011814D01*
X013105Y011860D01*
X013055Y011910D01*
X013006Y011961D01*
X012961Y012016D01*
X012919Y012073D01*
X012880Y012132D01*
X012845Y012193D01*
X012812Y012256D01*
X012784Y012321D01*
X012759Y012387D01*
X012738Y012455D01*
X012720Y012523D01*
X012707Y012593D01*
X012697Y012663D01*
X012691Y012733D01*
X012689Y012804D01*
X012691Y012875D01*
X012697Y012945D01*
X012707Y013015D01*
X012720Y013085D01*
X012738Y013153D01*
X012759Y013221D01*
X012784Y013287D01*
X012812Y013352D01*
X012845Y013415D01*
X012880Y013476D01*
X012919Y013535D01*
X012961Y013592D01*
X013006Y013647D01*
X013055Y013698D01*
X013105Y013748D01*
X013159Y013794D01*
X013215Y013837D01*
X013274Y013877D01*
X013334Y013914D01*
X013396Y013947D01*
X013461Y013977D01*
X013526Y014003D01*
X013594Y014025D01*
X013662Y014044D01*
X013731Y014059D01*
X013801Y014070D01*
X013871Y014077D01*
X013942Y014081D01*
X014013Y014080D01*
X014083Y014076D01*
X014154Y014067D01*
X014223Y014055D01*
X014292Y014039D01*
X014360Y014019D01*
X014427Y013995D01*
X014492Y013968D01*
X014556Y013937D01*
X014618Y013902D01*
X014677Y013865D01*
X014735Y013823D01*
X014790Y013779D01*
X014843Y013732D01*
X014893Y013682D01*
X014940Y013629D01*
X014985Y013574D01*
X014977Y013569D01*
X014933Y013624D01*
X014885Y013677D01*
X014835Y013727D01*
X014782Y013775D01*
X014726Y013819D01*
X014668Y013860D01*
X014608Y013897D01*
X014546Y013932D01*
X014482Y013962D01*
X014416Y013989D01*
X014349Y014013D01*
X014281Y014032D01*
X014211Y014048D01*
X014141Y014060D01*
X014071Y014068D01*
X014000Y014072D01*
X013929Y014071D01*
X013858Y014067D01*
X013787Y014059D01*
X013717Y014047D01*
X013648Y014031D01*
X013580Y014012D01*
X013512Y013988D01*
X013447Y013961D01*
X013383Y013930D01*
X013321Y013896D01*
X013261Y013858D01*
X013203Y013816D01*
X013147Y013772D01*
X013094Y013725D01*
X013044Y013674D01*
X012997Y013621D01*
X012952Y013566D01*
X012911Y013508D01*
X012874Y013448D01*
X012839Y013385D01*
X012808Y013321D01*
X012781Y013256D01*
X012758Y013189D01*
X012738Y013120D01*
X012722Y013051D01*
X012710Y012981D01*
X012702Y012910D01*
X012698Y012840D01*
X012698Y012768D01*
X012702Y012698D01*
X012710Y012627D01*
X012722Y012557D01*
X012738Y012488D01*
X012758Y012419D01*
X012781Y012352D01*
X012808Y012287D01*
X012839Y012223D01*
X012874Y012160D01*
X012911Y012100D01*
X012952Y012042D01*
X012997Y011987D01*
X013044Y011934D01*
X013094Y011883D01*
X013147Y011836D01*
X013203Y011792D01*
X013261Y011750D01*
X013321Y011712D01*
X013383Y011678D01*
X013447Y011647D01*
X013512Y011620D01*
X013580Y011596D01*
X013648Y011577D01*
X013717Y011561D01*
X013787Y011549D01*
X013858Y011541D01*
X013929Y011537D01*
X014000Y011536D01*
X014071Y011540D01*
X014141Y011548D01*
X014211Y011560D01*
X014281Y011576D01*
X014349Y011595D01*
X014416Y011619D01*
X014482Y011646D01*
X014546Y011676D01*
X014608Y011711D01*
X014668Y011748D01*
X014726Y011789D01*
X014782Y011833D01*
X014835Y011881D01*
X014885Y011931D01*
X014933Y011984D01*
X014977Y012039D01*
X014970Y012045D01*
X014926Y011990D01*
X014879Y011937D01*
X014829Y011887D01*
X014776Y011840D01*
X014721Y011796D01*
X014663Y011756D01*
X014604Y011718D01*
X014542Y011684D01*
X014478Y011654D01*
X014413Y011627D01*
X014346Y011604D01*
X014278Y011584D01*
X014210Y011569D01*
X014140Y011557D01*
X014070Y011549D01*
X013999Y011545D01*
X013929Y011546D01*
X013858Y011550D01*
X013788Y011558D01*
X013719Y011570D01*
X013650Y011585D01*
X013582Y011605D01*
X013516Y011628D01*
X013451Y011655D01*
X013387Y011686D01*
X013325Y011720D01*
X013266Y011758D01*
X013208Y011799D01*
X013153Y011843D01*
X013100Y011890D01*
X013051Y011940D01*
X013004Y011992D01*
X012960Y012048D01*
X012919Y012105D01*
X012881Y012165D01*
X012847Y012227D01*
X012817Y012290D01*
X012790Y012355D01*
X012766Y012422D01*
X012747Y012490D01*
X012731Y012559D01*
X012719Y012628D01*
X012711Y012698D01*
X012707Y012769D01*
X012707Y012839D01*
X012711Y012910D01*
X012719Y012980D01*
X012731Y013049D01*
X012747Y013118D01*
X012766Y013186D01*
X012790Y013253D01*
X012817Y013318D01*
X012847Y013381D01*
X012881Y013443D01*
X012919Y013503D01*
X012960Y013560D01*
X013004Y013616D01*
X013051Y013668D01*
X013100Y013718D01*
X013153Y013765D01*
X013208Y013809D01*
X013266Y013850D01*
X013325Y013888D01*
X013387Y013922D01*
X013451Y013953D01*
X013516Y013980D01*
X013582Y014003D01*
X013650Y014023D01*
X013719Y014038D01*
X013788Y014050D01*
X013858Y014058D01*
X013929Y014062D01*
X013999Y014063D01*
X014070Y014059D01*
X014140Y014051D01*
X014210Y014039D01*
X014278Y014024D01*
X014346Y014004D01*
X014413Y013981D01*
X014478Y013954D01*
X014542Y013924D01*
X014604Y013890D01*
X014663Y013852D01*
X014721Y013812D01*
X014776Y013768D01*
X014829Y013721D01*
X014879Y013671D01*
X014926Y013618D01*
X014970Y013563D01*
X014963Y013558D01*
X014919Y013613D01*
X014872Y013665D01*
X014823Y013714D01*
X014770Y013761D01*
X014716Y013804D01*
X014658Y013845D01*
X014599Y013882D01*
X014538Y013916D01*
X014474Y013946D01*
X014410Y013973D01*
X014343Y013996D01*
X014276Y014015D01*
X014208Y014030D01*
X014139Y014042D01*
X014069Y014050D01*
X013999Y014054D01*
X013929Y014053D01*
X013859Y014049D01*
X013790Y014041D01*
X013721Y014030D01*
X013652Y014014D01*
X013585Y013995D01*
X013519Y013971D01*
X013454Y013944D01*
X013391Y013914D01*
X013330Y013880D01*
X013271Y013843D01*
X013213Y013802D01*
X013159Y013758D01*
X013107Y013712D01*
X013057Y013662D01*
X013010Y013610D01*
X012967Y013555D01*
X012926Y013498D01*
X012889Y013439D01*
X012855Y013377D01*
X012825Y013314D01*
X012798Y013249D01*
X012775Y013183D01*
X012756Y013116D01*
X012740Y013048D01*
X012728Y012979D01*
X012720Y012909D01*
X012716Y012839D01*
X012716Y012769D01*
X012720Y012699D01*
X012728Y012629D01*
X012740Y012560D01*
X012756Y012492D01*
X012775Y012425D01*
X012798Y012359D01*
X012825Y012294D01*
X012855Y012231D01*
X012889Y012169D01*
X012926Y012110D01*
X012967Y012053D01*
X013010Y011998D01*
X013057Y011946D01*
X013107Y011896D01*
X013159Y011850D01*
X013213Y011806D01*
X013271Y011765D01*
X013330Y011728D01*
X013391Y011694D01*
X013454Y011664D01*
X013519Y011637D01*
X013585Y011613D01*
X013652Y011594D01*
X013721Y011578D01*
X013790Y011567D01*
X013859Y011559D01*
X013929Y011555D01*
X013999Y011554D01*
X014069Y011558D01*
X014139Y011566D01*
X014208Y011578D01*
X014276Y011593D01*
X014343Y011612D01*
X014410Y011635D01*
X014474Y011662D01*
X014538Y011692D01*
X014599Y011726D01*
X014658Y011763D01*
X014716Y011804D01*
X014770Y011847D01*
X014823Y011894D01*
X014872Y011943D01*
X014919Y011995D01*
X014963Y012050D01*
X014956Y012055D01*
X014912Y012001D01*
X014866Y011949D01*
X014817Y011900D01*
X014765Y011854D01*
X014710Y011811D01*
X014653Y011771D01*
X014594Y011734D01*
X014533Y011700D01*
X014471Y011670D01*
X014406Y011644D01*
X014341Y011621D01*
X014274Y011602D01*
X014206Y011586D01*
X014137Y011575D01*
X014068Y011567D01*
X013999Y011563D01*
X013929Y011564D01*
X013860Y011568D01*
X013791Y011575D01*
X013722Y011587D01*
X013655Y011603D01*
X013588Y011622D01*
X013522Y011645D01*
X013458Y011672D01*
X013395Y011702D01*
X013334Y011736D01*
X013276Y011773D01*
X013219Y011813D01*
X013165Y011856D01*
X013113Y011903D01*
X013064Y011952D01*
X013017Y012004D01*
X012974Y012058D01*
X012934Y012115D01*
X012897Y012174D01*
X012863Y012235D01*
X012833Y012298D01*
X012806Y012362D01*
X012783Y012427D01*
X012764Y012494D01*
X012749Y012562D01*
X012737Y012631D01*
X012729Y012700D01*
X012725Y012769D01*
X012725Y012839D01*
X012729Y012908D01*
X012737Y012977D01*
X012749Y013046D01*
X012764Y013114D01*
X012783Y013181D01*
X012806Y013246D01*
X012833Y013310D01*
X012863Y013373D01*
X012897Y013434D01*
X012934Y013493D01*
X012974Y013550D01*
X013017Y013604D01*
X013064Y013656D01*
X013113Y013705D01*
X013165Y013752D01*
X013219Y013795D01*
X013276Y013835D01*
X013334Y013872D01*
X013395Y013906D01*
X013458Y013936D01*
X013522Y013963D01*
X013588Y013986D01*
X013655Y014005D01*
X013722Y014021D01*
X013791Y014033D01*
X013860Y014040D01*
X013929Y014044D01*
X013999Y014045D01*
X014068Y014041D01*
X014137Y014033D01*
X014206Y014022D01*
X014274Y014006D01*
X014341Y013987D01*
X014406Y013964D01*
X014471Y013938D01*
X014533Y013908D01*
X014594Y013874D01*
X014653Y013837D01*
X014710Y013797D01*
X014765Y013754D01*
X014817Y013708D01*
X014866Y013659D01*
X014912Y013607D01*
X014956Y013553D01*
X014949Y013547D01*
X014905Y013601D01*
X014859Y013652D01*
X014810Y013701D01*
X014759Y013747D01*
X014705Y013790D01*
X014648Y013830D01*
X014590Y013866D01*
X014529Y013900D01*
X014467Y013930D01*
X014403Y013956D01*
X014338Y013978D01*
X014272Y013997D01*
X014204Y014013D01*
X014136Y014024D01*
X014068Y014032D01*
X013999Y014036D01*
X013930Y014035D01*
X013861Y014031D01*
X013792Y014024D01*
X013724Y014012D01*
X013657Y013997D01*
X013590Y013977D01*
X013525Y013954D01*
X013462Y013928D01*
X013399Y013898D01*
X013339Y013865D01*
X013281Y013828D01*
X013224Y013788D01*
X013170Y013745D01*
X013119Y013699D01*
X013070Y013650D01*
X013024Y013598D01*
X012981Y013544D01*
X012941Y013488D01*
X012905Y013429D01*
X012871Y013369D01*
X012841Y013307D01*
X012815Y013243D01*
X012792Y013178D01*
X012773Y013111D01*
X012758Y013044D01*
X012746Y012976D01*
X012738Y012907D01*
X012734Y012839D01*
X012734Y012769D01*
X012738Y012701D01*
X012746Y012632D01*
X012758Y012564D01*
X012773Y012497D01*
X012792Y012430D01*
X012815Y012365D01*
X012841Y012301D01*
X012871Y012239D01*
X012905Y012179D01*
X012941Y012120D01*
X012981Y012064D01*
X013024Y012010D01*
X013070Y011958D01*
X013119Y011909D01*
X013170Y011863D01*
X013224Y011820D01*
X013281Y011780D01*
X013339Y011743D01*
X013399Y011710D01*
X013462Y011680D01*
X013525Y011654D01*
X013590Y011631D01*
X013657Y011611D01*
X013724Y011596D01*
X013792Y011584D01*
X013861Y011577D01*
X013930Y011573D01*
X013999Y011572D01*
X014068Y011576D01*
X014136Y011584D01*
X014204Y011595D01*
X014272Y011611D01*
X014338Y011630D01*
X014403Y011652D01*
X014467Y011678D01*
X014529Y011708D01*
X014590Y011742D01*
X014648Y011778D01*
X014705Y011818D01*
X014759Y011861D01*
X014810Y011907D01*
X014859Y011956D01*
X014905Y012007D01*
X014949Y012061D01*
X014941Y012066D01*
X014898Y012012D01*
X014852Y011961D01*
X014802Y011912D01*
X014751Y011866D01*
X014696Y011823D01*
X014639Y011783D01*
X014581Y011747D01*
X014520Y011713D01*
X014457Y011684D01*
X014393Y011658D01*
X014327Y011636D01*
X014260Y011617D01*
X014193Y011602D01*
X014124Y011591D01*
X014055Y011584D01*
X013986Y011581D01*
X013917Y011582D01*
X013847Y011587D01*
X013779Y011595D01*
X013711Y011608D01*
X013643Y011624D01*
X013577Y011645D01*
X013512Y011668D01*
X013448Y011696D01*
X013386Y011727D01*
X013326Y011762D01*
X013268Y011800D01*
X013212Y011841D01*
X013159Y011885D01*
X013108Y011932D01*
X013060Y011982D01*
X013015Y012035D01*
X012973Y012090D01*
X012934Y012147D01*
X012899Y012207D01*
X012867Y012268D01*
X012838Y012331D01*
X012813Y012396D01*
X012792Y012462D01*
X012774Y012529D01*
X012761Y012597D01*
X012751Y012666D01*
X012745Y012735D01*
X012743Y012804D01*
X012745Y012873D01*
X012751Y012942D01*
X012761Y013011D01*
X012774Y013079D01*
X012792Y013146D01*
X012813Y013212D01*
X012838Y013277D01*
X012867Y013340D01*
X012899Y013401D01*
X012934Y013461D01*
X012973Y013518D01*
X013015Y013573D01*
X013060Y013626D01*
X013108Y013676D01*
X013159Y013723D01*
X013212Y013767D01*
X013268Y013808D01*
X013326Y013846D01*
X013386Y013881D01*
X013448Y013912D01*
X013512Y013940D01*
X013577Y013963D01*
X013643Y013984D01*
X013711Y014000D01*
X013779Y014013D01*
X013847Y014021D01*
X013917Y014026D01*
X013986Y014027D01*
X014055Y014024D01*
X014124Y014017D01*
X014193Y014006D01*
X014260Y013991D01*
X014327Y013972D01*
X014393Y013950D01*
X014457Y013924D01*
X014520Y013895D01*
X014581Y013861D01*
X014639Y013825D01*
X014696Y013785D01*
X014751Y013742D01*
X014802Y013696D01*
X014852Y013647D01*
X014898Y013596D01*
X014941Y013542D01*
X014934Y013536D01*
X014891Y013590D01*
X014845Y013641D01*
X014796Y013690D01*
X014745Y013735D01*
X014691Y013778D01*
X014634Y013817D01*
X014576Y013854D01*
X014516Y013887D01*
X014453Y013916D01*
X014390Y013942D01*
X014324Y013964D01*
X014258Y013982D01*
X014191Y013997D01*
X014123Y014008D01*
X014054Y014015D01*
X013986Y014018D01*
X013917Y014017D01*
X013848Y014012D01*
X013780Y014004D01*
X013712Y013991D01*
X013646Y013975D01*
X013580Y013955D01*
X013515Y013931D01*
X013452Y013904D01*
X013391Y013873D01*
X013331Y013839D01*
X013273Y013801D01*
X013218Y013760D01*
X013165Y013716D01*
X013115Y013669D01*
X013067Y013620D01*
X013022Y013568D01*
X012980Y013513D01*
X012942Y013456D01*
X012907Y013397D01*
X012875Y013336D01*
X012846Y013273D01*
X012822Y013209D01*
X012800Y013143D01*
X012783Y013077D01*
X012770Y013009D01*
X012760Y012941D01*
X012754Y012873D01*
X012752Y012804D01*
X012754Y012735D01*
X012760Y012667D01*
X012770Y012599D01*
X012783Y012531D01*
X012800Y012465D01*
X012822Y012399D01*
X012846Y012335D01*
X012875Y012272D01*
X012907Y012211D01*
X012942Y012152D01*
X012980Y012095D01*
X013022Y012040D01*
X013067Y011988D01*
X013115Y011939D01*
X013165Y011892D01*
X013218Y011848D01*
X013273Y011807D01*
X013331Y011769D01*
X013391Y011735D01*
X013452Y011704D01*
X013515Y011677D01*
X013580Y011653D01*
X013646Y011633D01*
X013712Y011617D01*
X013780Y011604D01*
X013848Y011596D01*
X013917Y011591D01*
X013986Y011590D01*
X014054Y011593D01*
X014123Y011600D01*
X014191Y011611D01*
X014258Y011626D01*
X014324Y011644D01*
X014390Y011666D01*
X014453Y011692D01*
X014516Y011721D01*
X014576Y011754D01*
X014634Y011791D01*
X014691Y011830D01*
X014745Y011873D01*
X014796Y011918D01*
X014845Y011967D01*
X014891Y012018D01*
X014934Y012072D01*
X010486Y013498D02*
X010519Y013461D01*
X010477Y013420D01*
X010438Y013376D01*
X010402Y013329D01*
X010368Y013281D01*
X010338Y013230D01*
X010311Y013178D01*
X010288Y013124D01*
X010268Y013068D01*
X010252Y013011D01*
X010239Y012954D01*
X010230Y012896D01*
X010225Y012837D01*
X010223Y012778D01*
X010225Y012719D01*
X010231Y012661D01*
X010241Y012603D01*
X010254Y012545D01*
X010271Y012489D01*
X010292Y012433D01*
X010316Y012380D01*
X010343Y012327D01*
X010374Y012277D01*
X010407Y012229D01*
X010444Y012183D01*
X010484Y012139D01*
X010526Y012098D01*
X010571Y012060D01*
X010618Y012025D01*
X010668Y011993D01*
X010719Y011964D01*
X010772Y011938D01*
X010752Y011893D01*
X010752Y011892D01*
X010698Y011918D01*
X010645Y011948D01*
X010595Y011980D01*
X010546Y012016D01*
X010500Y012055D01*
X010456Y012096D01*
X010415Y012140D01*
X010377Y012186D01*
X010341Y012235D01*
X010309Y012286D01*
X010280Y012339D01*
X010254Y012393D01*
X010232Y012449D01*
X010213Y012506D01*
X010198Y012564D01*
X010186Y012623D01*
X010178Y012683D01*
X010174Y012743D01*
X010173Y012803D01*
X010176Y012863D01*
X010183Y012923D01*
X010194Y012982D01*
X010208Y013041D01*
X010225Y013098D01*
X010247Y013155D01*
X010271Y013210D01*
X010299Y013263D01*
X010330Y013314D01*
X010365Y013364D01*
X010402Y013411D01*
X010442Y013456D01*
X010485Y013498D01*
X010491Y013491D01*
X010447Y013448D01*
X010407Y013402D01*
X010369Y013354D01*
X010334Y013303D01*
X010302Y013250D01*
X010274Y013195D01*
X010250Y013139D01*
X010229Y013081D01*
X010212Y013022D01*
X010199Y012962D01*
X010189Y012901D01*
X010184Y012839D01*
X010182Y012778D01*
X010184Y012716D01*
X010190Y012655D01*
X010201Y012595D01*
X010214Y012535D01*
X010232Y012476D01*
X010254Y012418D01*
X010279Y012362D01*
X010307Y012307D01*
X010339Y012255D01*
X010375Y012204D01*
X010413Y012156D01*
X010454Y012111D01*
X010499Y012068D01*
X010546Y012028D01*
X010595Y011991D01*
X010646Y011957D01*
X010700Y011927D01*
X010755Y011900D01*
X010759Y011909D01*
X010704Y011935D01*
X010651Y011965D01*
X010600Y011998D01*
X010551Y012035D01*
X010505Y012074D01*
X010461Y012117D01*
X010420Y012162D01*
X010382Y012210D01*
X010347Y012260D01*
X010315Y012312D01*
X010287Y012366D01*
X010262Y012421D01*
X010241Y012478D01*
X010223Y012537D01*
X010209Y012596D01*
X010199Y012656D01*
X010193Y012717D01*
X010191Y012778D01*
X010193Y012839D01*
X010198Y012900D01*
X010207Y012960D01*
X010221Y013019D01*
X010238Y013078D01*
X010258Y013135D01*
X010282Y013191D01*
X010310Y013246D01*
X010341Y013298D01*
X010376Y013348D01*
X010413Y013396D01*
X010454Y013442D01*
X010497Y013485D01*
X010503Y013478D01*
X010460Y013436D01*
X010420Y013391D01*
X010383Y013343D01*
X010349Y013293D01*
X010318Y013241D01*
X010291Y013187D01*
X010267Y013132D01*
X010246Y013075D01*
X010229Y013017D01*
X010216Y012958D01*
X010207Y012899D01*
X010202Y012838D01*
X010200Y012778D01*
X010202Y012718D01*
X010208Y012658D01*
X010218Y012598D01*
X010232Y012539D01*
X010249Y012481D01*
X010270Y012425D01*
X010295Y012370D01*
X010323Y012316D01*
X010354Y012264D01*
X010389Y012215D01*
X010427Y012168D01*
X010467Y012123D01*
X010511Y012081D01*
X010557Y012042D01*
X010605Y012006D01*
X010656Y011973D01*
X010708Y011943D01*
X010763Y011917D01*
X010766Y011925D01*
X010712Y011951D01*
X010660Y011981D01*
X010610Y012013D01*
X010562Y012049D01*
X010517Y012088D01*
X010474Y012129D01*
X010434Y012174D01*
X010396Y012220D01*
X010362Y012269D01*
X010331Y012321D01*
X010303Y012374D01*
X010279Y012428D01*
X010258Y012484D01*
X010241Y012542D01*
X010227Y012600D01*
X010217Y012659D01*
X010211Y012718D01*
X010209Y012778D01*
X010211Y012838D01*
X010216Y012897D01*
X010225Y012957D01*
X010238Y013015D01*
X010255Y013072D01*
X010275Y013129D01*
X010299Y013184D01*
X010326Y013237D01*
X010357Y013288D01*
X010390Y013338D01*
X010427Y013385D01*
X010467Y013429D01*
X010510Y013472D01*
X010516Y013465D01*
X010473Y013423D01*
X010434Y013379D01*
X010398Y013332D01*
X010364Y013283D01*
X010334Y013233D01*
X010307Y013180D01*
X010283Y013125D01*
X010263Y013070D01*
X010247Y013013D01*
X010234Y012955D01*
X010225Y012896D01*
X010220Y012837D01*
X010218Y012778D01*
X010220Y012719D01*
X010226Y012660D01*
X010236Y012602D01*
X010249Y012544D01*
X010266Y012487D01*
X010287Y012432D01*
X010311Y012377D01*
X010339Y012325D01*
X010369Y012274D01*
X010403Y012226D01*
X010440Y012180D01*
X010480Y012136D01*
X010523Y012095D01*
X010568Y012056D01*
X010615Y012021D01*
X010665Y011988D01*
X010717Y011959D01*
X010770Y011933D01*
X011544Y011893D02*
X011524Y011938D01*
X011577Y011964D01*
X011628Y011993D01*
X011678Y012025D01*
X011725Y012060D01*
X011770Y012098D01*
X011812Y012139D01*
X011852Y012183D01*
X011889Y012229D01*
X011922Y012277D01*
X011953Y012327D01*
X011980Y012380D01*
X012004Y012433D01*
X012025Y012489D01*
X012042Y012545D01*
X012055Y012603D01*
X012065Y012661D01*
X012071Y012719D01*
X012073Y012778D01*
X012071Y012837D01*
X012066Y012896D01*
X012057Y012954D01*
X012044Y013011D01*
X012028Y013068D01*
X012008Y013124D01*
X011985Y013178D01*
X011958Y013230D01*
X011928Y013281D01*
X011894Y013329D01*
X011858Y013376D01*
X011819Y013420D01*
X011777Y013461D01*
X011810Y013498D01*
X011811Y013498D01*
X011854Y013456D01*
X011894Y013411D01*
X011931Y013364D01*
X011966Y013314D01*
X011997Y013263D01*
X012025Y013210D01*
X012049Y013155D01*
X012071Y013098D01*
X012088Y013041D01*
X012102Y012982D01*
X012113Y012923D01*
X012120Y012863D01*
X012123Y012803D01*
X012122Y012743D01*
X012118Y012683D01*
X012110Y012623D01*
X012098Y012564D01*
X012083Y012506D01*
X012064Y012449D01*
X012042Y012393D01*
X012016Y012339D01*
X011987Y012286D01*
X011955Y012235D01*
X011919Y012186D01*
X011881Y012140D01*
X011840Y012096D01*
X011796Y012055D01*
X011750Y012016D01*
X011701Y011980D01*
X011651Y011948D01*
X011598Y011918D01*
X011544Y011892D01*
X011541Y011900D01*
X011596Y011927D01*
X011650Y011957D01*
X011701Y011991D01*
X011750Y012028D01*
X011797Y012068D01*
X011842Y012111D01*
X011883Y012156D01*
X011921Y012204D01*
X011957Y012255D01*
X011989Y012307D01*
X012017Y012362D01*
X012042Y012418D01*
X012064Y012476D01*
X012082Y012535D01*
X012095Y012595D01*
X012106Y012655D01*
X012112Y012716D01*
X012114Y012778D01*
X012112Y012839D01*
X012107Y012901D01*
X012097Y012962D01*
X012084Y013022D01*
X012067Y013081D01*
X012046Y013139D01*
X012022Y013195D01*
X011994Y013250D01*
X011962Y013303D01*
X011927Y013354D01*
X011889Y013402D01*
X011849Y013448D01*
X011805Y013491D01*
X011799Y013485D01*
X011842Y013442D01*
X011883Y013396D01*
X011920Y013348D01*
X011955Y013298D01*
X011986Y013246D01*
X012014Y013191D01*
X012038Y013135D01*
X012058Y013078D01*
X012075Y013019D01*
X012089Y012960D01*
X012098Y012900D01*
X012103Y012839D01*
X012105Y012778D01*
X012103Y012717D01*
X012097Y012656D01*
X012087Y012596D01*
X012073Y012537D01*
X012055Y012478D01*
X012034Y012421D01*
X012009Y012366D01*
X011981Y012312D01*
X011949Y012260D01*
X011914Y012210D01*
X011876Y012162D01*
X011835Y012117D01*
X011791Y012074D01*
X011745Y012035D01*
X011696Y011998D01*
X011645Y011965D01*
X011592Y011935D01*
X011537Y011909D01*
X011533Y011917D01*
X011588Y011943D01*
X011640Y011973D01*
X011691Y012006D01*
X011739Y012042D01*
X011785Y012081D01*
X011829Y012123D01*
X011869Y012168D01*
X011907Y012215D01*
X011942Y012264D01*
X011973Y012316D01*
X012001Y012370D01*
X012026Y012425D01*
X012047Y012481D01*
X012064Y012539D01*
X012078Y012598D01*
X012088Y012658D01*
X012094Y012718D01*
X012096Y012778D01*
X012094Y012838D01*
X012089Y012899D01*
X012080Y012958D01*
X012067Y013017D01*
X012050Y013075D01*
X012029Y013132D01*
X012005Y013187D01*
X011978Y013241D01*
X011947Y013293D01*
X011913Y013343D01*
X011876Y013391D01*
X011836Y013436D01*
X011793Y013478D01*
X011786Y013472D01*
X011829Y013429D01*
X011869Y013385D01*
X011906Y013338D01*
X011939Y013288D01*
X011970Y013237D01*
X011997Y013184D01*
X012021Y013129D01*
X012041Y013072D01*
X012058Y013015D01*
X012071Y012957D01*
X012080Y012897D01*
X012085Y012838D01*
X012087Y012778D01*
X012085Y012718D01*
X012079Y012659D01*
X012069Y012600D01*
X012055Y012542D01*
X012038Y012484D01*
X012017Y012428D01*
X011993Y012374D01*
X011965Y012321D01*
X011934Y012269D01*
X011900Y012220D01*
X011862Y012174D01*
X011822Y012129D01*
X011779Y012088D01*
X011734Y012049D01*
X011686Y012013D01*
X011636Y011981D01*
X011584Y011951D01*
X011530Y011925D01*
X011526Y011933D01*
X011579Y011959D01*
X011631Y011988D01*
X011681Y012021D01*
X011728Y012056D01*
X011773Y012095D01*
X011816Y012136D01*
X011856Y012180D01*
X011893Y012226D01*
X011927Y012274D01*
X011957Y012325D01*
X011985Y012377D01*
X012009Y012432D01*
X012030Y012487D01*
X012047Y012544D01*
X012060Y012602D01*
X012070Y012660D01*
X012076Y012719D01*
X012078Y012778D01*
X012076Y012837D01*
X012071Y012896D01*
X012062Y012955D01*
X012049Y013013D01*
X012033Y013070D01*
X012013Y013125D01*
X011989Y013180D01*
X011962Y013233D01*
X011932Y013283D01*
X011898Y013332D01*
X011862Y013379D01*
X011823Y013423D01*
X011780Y013465D01*
X008858Y006187D02*
X008903Y006207D01*
X008929Y006154D01*
X008958Y006103D01*
X008990Y006053D01*
X009025Y006006D01*
X009063Y005961D01*
X009104Y005919D01*
X009148Y005879D01*
X009194Y005842D01*
X009242Y005809D01*
X009292Y005778D01*
X009345Y005751D01*
X009398Y005727D01*
X009454Y005706D01*
X009510Y005689D01*
X009568Y005676D01*
X009626Y005666D01*
X009684Y005660D01*
X009743Y005658D01*
X009802Y005660D01*
X009861Y005665D01*
X009919Y005674D01*
X009976Y005687D01*
X010033Y005703D01*
X010089Y005723D01*
X010143Y005746D01*
X010195Y005773D01*
X010246Y005803D01*
X010294Y005837D01*
X010341Y005873D01*
X010385Y005912D01*
X010426Y005954D01*
X010463Y005921D01*
X010463Y005920D01*
X010421Y005877D01*
X010376Y005837D01*
X010329Y005800D01*
X010279Y005765D01*
X010228Y005734D01*
X010175Y005706D01*
X010120Y005682D01*
X010063Y005660D01*
X010006Y005643D01*
X009947Y005629D01*
X009888Y005618D01*
X009828Y005611D01*
X009768Y005608D01*
X009708Y005609D01*
X009648Y005613D01*
X009588Y005621D01*
X009529Y005633D01*
X009471Y005648D01*
X009414Y005667D01*
X009358Y005689D01*
X009304Y005715D01*
X009251Y005744D01*
X009200Y005776D01*
X009151Y005812D01*
X009105Y005850D01*
X009061Y005891D01*
X009020Y005935D01*
X008981Y005981D01*
X008945Y006030D01*
X008913Y006080D01*
X008883Y006133D01*
X008857Y006187D01*
X008865Y006190D01*
X008892Y006135D01*
X008922Y006081D01*
X008956Y006030D01*
X008993Y005981D01*
X009033Y005934D01*
X009076Y005889D01*
X009121Y005848D01*
X009169Y005810D01*
X009220Y005774D01*
X009272Y005742D01*
X009327Y005714D01*
X009383Y005689D01*
X009441Y005667D01*
X009500Y005649D01*
X009560Y005636D01*
X009620Y005625D01*
X009681Y005619D01*
X009743Y005617D01*
X009804Y005619D01*
X009866Y005624D01*
X009927Y005634D01*
X009987Y005647D01*
X010046Y005664D01*
X010104Y005685D01*
X010160Y005709D01*
X010215Y005737D01*
X010268Y005769D01*
X010319Y005804D01*
X010367Y005842D01*
X010413Y005882D01*
X010456Y005926D01*
X010450Y005932D01*
X010407Y005889D01*
X010361Y005848D01*
X010313Y005811D01*
X010263Y005776D01*
X010211Y005745D01*
X010156Y005717D01*
X010100Y005693D01*
X010043Y005673D01*
X009984Y005656D01*
X009925Y005642D01*
X009865Y005633D01*
X009804Y005628D01*
X009743Y005626D01*
X009682Y005628D01*
X009621Y005634D01*
X009561Y005644D01*
X009502Y005658D01*
X009443Y005676D01*
X009386Y005697D01*
X009331Y005722D01*
X009277Y005750D01*
X009225Y005782D01*
X009175Y005817D01*
X009127Y005855D01*
X009082Y005896D01*
X009039Y005940D01*
X009000Y005986D01*
X008963Y006035D01*
X008930Y006086D01*
X008900Y006139D01*
X008874Y006194D01*
X008882Y006198D01*
X008908Y006143D01*
X008938Y006091D01*
X008971Y006040D01*
X009007Y005992D01*
X009046Y005946D01*
X009088Y005902D01*
X009133Y005862D01*
X009180Y005824D01*
X009229Y005789D01*
X009281Y005758D01*
X009335Y005730D01*
X009390Y005705D01*
X009446Y005684D01*
X009504Y005667D01*
X009563Y005653D01*
X009623Y005643D01*
X009683Y005637D01*
X009743Y005635D01*
X009803Y005637D01*
X009864Y005642D01*
X009923Y005651D01*
X009982Y005664D01*
X010040Y005681D01*
X010097Y005702D01*
X010152Y005726D01*
X010206Y005753D01*
X010258Y005784D01*
X010308Y005818D01*
X010356Y005855D01*
X010401Y005895D01*
X010443Y005938D01*
X010437Y005945D01*
X010394Y005902D01*
X010350Y005862D01*
X010303Y005825D01*
X010253Y005792D01*
X010202Y005761D01*
X010149Y005734D01*
X010094Y005710D01*
X010037Y005690D01*
X009980Y005673D01*
X009922Y005660D01*
X009862Y005651D01*
X009803Y005646D01*
X009743Y005644D01*
X009683Y005646D01*
X009624Y005652D01*
X009565Y005662D01*
X009507Y005676D01*
X009449Y005693D01*
X009393Y005714D01*
X009339Y005738D01*
X009286Y005766D01*
X009234Y005797D01*
X009185Y005831D01*
X009139Y005869D01*
X009094Y005909D01*
X009053Y005952D01*
X009014Y005997D01*
X008978Y006045D01*
X008946Y006095D01*
X008916Y006147D01*
X008890Y006201D01*
X008898Y006205D01*
X008924Y006152D01*
X008953Y006100D01*
X008986Y006050D01*
X009021Y006003D01*
X009060Y005958D01*
X009101Y005915D01*
X009145Y005875D01*
X009191Y005838D01*
X009239Y005804D01*
X009290Y005774D01*
X009342Y005746D01*
X009397Y005722D01*
X009452Y005701D01*
X009509Y005684D01*
X009567Y005671D01*
X009625Y005661D01*
X009684Y005655D01*
X009743Y005653D01*
X009802Y005655D01*
X009861Y005660D01*
X009920Y005669D01*
X009978Y005682D01*
X010035Y005698D01*
X010090Y005718D01*
X010145Y005742D01*
X010198Y005769D01*
X010248Y005799D01*
X010297Y005833D01*
X010344Y005869D01*
X010388Y005908D01*
X010430Y005951D01*
X010463Y007245D02*
X010426Y007212D01*
X010385Y007254D01*
X010341Y007293D01*
X010294Y007329D01*
X010246Y007363D01*
X010195Y007393D01*
X010143Y007420D01*
X010089Y007443D01*
X010033Y007463D01*
X009976Y007479D01*
X009919Y007492D01*
X009861Y007501D01*
X009802Y007506D01*
X009743Y007508D01*
X009684Y007506D01*
X009626Y007500D01*
X009568Y007490D01*
X009510Y007477D01*
X009454Y007460D01*
X009398Y007439D01*
X009345Y007415D01*
X009292Y007388D01*
X009242Y007357D01*
X009194Y007324D01*
X009148Y007287D01*
X009104Y007247D01*
X009063Y007205D01*
X009025Y007160D01*
X008990Y007113D01*
X008958Y007063D01*
X008929Y007012D01*
X008903Y006959D01*
X008858Y006979D01*
X008857Y006979D01*
X008883Y007033D01*
X008913Y007086D01*
X008945Y007136D01*
X008981Y007185D01*
X009020Y007231D01*
X009061Y007275D01*
X009105Y007316D01*
X009151Y007354D01*
X009200Y007390D01*
X009251Y007422D01*
X009304Y007451D01*
X009358Y007477D01*
X009414Y007499D01*
X009471Y007518D01*
X009529Y007533D01*
X009588Y007545D01*
X009648Y007553D01*
X009708Y007557D01*
X009768Y007558D01*
X009828Y007555D01*
X009888Y007548D01*
X009947Y007537D01*
X010006Y007523D01*
X010063Y007506D01*
X010120Y007484D01*
X010175Y007460D01*
X010228Y007432D01*
X010279Y007401D01*
X010329Y007366D01*
X010376Y007329D01*
X010421Y007289D01*
X010463Y007246D01*
X010456Y007240D01*
X010413Y007284D01*
X010367Y007324D01*
X010319Y007362D01*
X010268Y007397D01*
X010215Y007429D01*
X010160Y007457D01*
X010104Y007481D01*
X010046Y007502D01*
X009987Y007519D01*
X009927Y007532D01*
X009866Y007542D01*
X009804Y007547D01*
X009743Y007549D01*
X009681Y007547D01*
X009620Y007541D01*
X009560Y007530D01*
X009500Y007517D01*
X009441Y007499D01*
X009383Y007477D01*
X009327Y007452D01*
X009272Y007424D01*
X009220Y007392D01*
X009169Y007356D01*
X009121Y007318D01*
X009076Y007277D01*
X009033Y007232D01*
X008993Y007185D01*
X008956Y007136D01*
X008922Y007085D01*
X008892Y007031D01*
X008865Y006976D01*
X008874Y006972D01*
X008900Y007027D01*
X008930Y007080D01*
X008963Y007131D01*
X009000Y007180D01*
X009039Y007226D01*
X009082Y007270D01*
X009127Y007311D01*
X009175Y007349D01*
X009225Y007384D01*
X009277Y007416D01*
X009331Y007444D01*
X009386Y007469D01*
X009443Y007490D01*
X009502Y007508D01*
X009561Y007522D01*
X009621Y007532D01*
X009682Y007538D01*
X009743Y007540D01*
X009804Y007538D01*
X009865Y007533D01*
X009925Y007524D01*
X009984Y007510D01*
X010043Y007493D01*
X010100Y007473D01*
X010156Y007449D01*
X010211Y007421D01*
X010263Y007390D01*
X010313Y007355D01*
X010361Y007318D01*
X010407Y007277D01*
X010450Y007234D01*
X010443Y007228D01*
X010401Y007271D01*
X010356Y007311D01*
X010308Y007348D01*
X010258Y007382D01*
X010206Y007413D01*
X010152Y007440D01*
X010097Y007464D01*
X010040Y007485D01*
X009982Y007502D01*
X009923Y007515D01*
X009864Y007524D01*
X009803Y007529D01*
X009743Y007531D01*
X009683Y007529D01*
X009623Y007523D01*
X009563Y007513D01*
X009504Y007499D01*
X009446Y007482D01*
X009390Y007461D01*
X009335Y007436D01*
X009281Y007408D01*
X009229Y007377D01*
X009180Y007342D01*
X009133Y007304D01*
X009088Y007264D01*
X009046Y007220D01*
X009007Y007174D01*
X008971Y007126D01*
X008938Y007075D01*
X008908Y007023D01*
X008882Y006968D01*
X008890Y006965D01*
X008916Y007019D01*
X008946Y007071D01*
X008978Y007121D01*
X009014Y007169D01*
X009053Y007214D01*
X009094Y007257D01*
X009139Y007297D01*
X009185Y007335D01*
X009234Y007369D01*
X009286Y007400D01*
X009339Y007428D01*
X009393Y007452D01*
X009449Y007473D01*
X009507Y007490D01*
X009565Y007504D01*
X009624Y007514D01*
X009683Y007520D01*
X009743Y007522D01*
X009803Y007520D01*
X009862Y007515D01*
X009922Y007506D01*
X009980Y007493D01*
X010037Y007476D01*
X010094Y007456D01*
X010149Y007432D01*
X010202Y007405D01*
X010253Y007374D01*
X010303Y007341D01*
X010350Y007304D01*
X010394Y007264D01*
X010437Y007221D01*
X010430Y007215D01*
X010388Y007258D01*
X010344Y007297D01*
X010297Y007333D01*
X010248Y007367D01*
X010198Y007397D01*
X010145Y007424D01*
X010090Y007448D01*
X010035Y007468D01*
X009978Y007484D01*
X009920Y007497D01*
X009861Y007506D01*
X009802Y007511D01*
X009743Y007513D01*
X009684Y007511D01*
X009625Y007505D01*
X009567Y007495D01*
X009509Y007482D01*
X009452Y007465D01*
X009397Y007444D01*
X009342Y007420D01*
X009290Y007392D01*
X009239Y007362D01*
X009191Y007328D01*
X009145Y007291D01*
X009101Y007251D01*
X009060Y007208D01*
X009021Y007163D01*
X008986Y007116D01*
X008953Y007066D01*
X008924Y007014D01*
X008898Y006961D01*
D17*
X003397Y009782D03*
X002298Y010983D03*
D18*
X001973Y010983D03*
X001972Y009782D03*
X003722Y009782D03*
X003723Y010983D03*
D19*
X009648Y006583D02*
X009748Y006583D01*
X009748Y007283D02*
X009748Y007583D01*
X009748Y005883D02*
X009748Y005583D01*
X011148Y012683D02*
X011148Y012783D01*
X011848Y012783D02*
X012148Y012783D01*
X010448Y012783D02*
X010148Y012783D01*
X017948Y006383D02*
X017948Y006033D01*
X017948Y002783D02*
X017948Y002433D01*
D20*
X010748Y009333D03*
D21*
X010748Y008958D03*
X010748Y011008D03*
M02*
