%
M48
M72
T01C0.0276
T02C0.0354
T03C0.0400
T04C0.0433
%
T01
X9820Y1539
X9820Y4539
X14646Y8523
X17646Y8523
X15985Y10631
X17363Y10631
X15868Y13031
X17868Y13031
X7687Y5986
X7687Y8986
X6687Y8986
X6687Y5986
X6731Y3812
X8109Y3812
X1448Y3583
X2448Y3583
X2448Y6583
X1448Y6583
X3448Y3583
X4448Y3583
X3448Y6583
X4448Y6583
X1452Y1930
X2452Y1930
X1464Y8210
X2464Y8210
X17948Y1983
X17948Y3983
X3447Y1927
X4447Y1927
X3460Y8200
X4460Y8200
X4410Y14105
X4410Y12727
X12148Y12783
X11148Y12783
X10148Y12783
X12748Y8483
X12748Y11483
X9748Y5583
X9748Y6583
X9748Y7583
X9748Y11483
X9748Y8483
X11748Y8483
X11748Y11483
X13748Y8483
X13748Y11483
X17948Y5583
X17948Y7583
T02
X13466Y12804
X14466Y12804
X4347Y9782
X1347Y9782
X1348Y10983
X4348Y10983
X10748Y8483
X10748Y11483
X19148Y14683
X18148Y14683
X1148Y19683
X19148Y19683
X2148Y19683
X3148Y19683
X4148Y19683
X5148Y19683
X6148Y19683
X7148Y19683
X8148Y19683
X9148Y19683
X10148Y19683
X11148Y19683
X12148Y19683
X13148Y19683
X14148Y19683
X15148Y19683
X16148Y19683
X17148Y19683
X18148Y19683
X19148Y18683
X1148Y18683
X18148Y18683
X17148Y18683
X16148Y18683
X15148Y18683
X14148Y18683
X13148Y18683
X12148Y18683
X11148Y18683
X10148Y18683
X9148Y18683
X8148Y18683
X7148Y18683
X6148Y18683
X5148Y18683
X4148Y18683
X3148Y18683
X2148Y18683
X1148Y17683
X19148Y17683
X2148Y17683
X3148Y17683
X4148Y17683
X5148Y17683
X6148Y17683
X7148Y17683
X8148Y17683
X9148Y17683
X10148Y17683
X11148Y17683
X12148Y17683
X13148Y17683
X14148Y17683
X15148Y17683
X16148Y17683
X17148Y17683
X18148Y17683
X19148Y16683
X1148Y16683
X18148Y16683
X17148Y16683
X16148Y16683
X15148Y16683
X14148Y16683
X13148Y16683
X12148Y16683
X11148Y16683
X10148Y16683
X9148Y16683
X8148Y16683
X7148Y16683
X6148Y16683
X5148Y16683
X4148Y16683
X3148Y16683
X2148Y16683
X1148Y15683
X19148Y15683
X2148Y15683
X3148Y15683
X4148Y15683
X5148Y15683
X6148Y15683
X7148Y15683
X8148Y15683
X9148Y15683
X10148Y15683
X11148Y15683
X12148Y15683
X13148Y15683
X14148Y15683
X15148Y15683
X16148Y15683
X17148Y15683
X18148Y15683
X16148Y14683
X15148Y14683
X14148Y14683
X13148Y14683
X12148Y14683
X11148Y14683
X10148Y14683
X9148Y14683
X8148Y14683
X7148Y14683
X6148Y14683
X17148Y14683
X6148Y13683
X8148Y13683
X7148Y13683
X7148Y12683
X6148Y12683
X8148Y12683
X7148Y11683
X8148Y11683
X6148Y11683
X7148Y10683
X6148Y10683
X8148Y10683
T03
X18989Y3621
X18990Y1624
X18991Y7623
X18989Y5622
X18989Y11621
X18989Y10622
X6790Y1441
X18991Y9623
X18991Y6625
X18990Y8623
X18990Y2624
X18989Y12623
X18991Y4623
X2321Y13101
X2318Y14103
X1321Y12097
X7985Y1441
X1319Y14101
X1317Y13099
X2319Y12103
T04
X14053Y3983
X14053Y6070
X14053Y1897
X15942Y3983
X15942Y1897
X15942Y6070
X12163Y6070
X12163Y3983
X12163Y1897
M30
